<svg version="1.1" id="Layer_1" xmlns="http://www.w3.org/2000/svg" xmlns:xlink="http://www.w3.org/1999/xlink" x="0px" y="0px"
	 width="100%" viewBox="0 0 608 406" enable-background="new 0 0 608 406" xml:space="preserve">
<path fill="#FAFAFA" opacity="1.000000" stroke="none" 
	d="
M1.157198,406.175964 
	C1.000000,278.312439 1.000000,150.624878 1.000000,22.468658 
	C2.511574,20.401106 2.036135,18.343145 2.261329,16.126099 
	C2.264154,15.142277 2.430304,14.527271 3.000815,13.739666 
	C3.986906,12.880479 4.761935,12.250642 5.157642,10.934984 
	C5.490065,10.279908 5.750520,9.949080 6.310197,9.452392 
	C7.506886,8.716955 8.460782,8.195944 9.083619,6.836918 
	C9.511753,6.189481 9.810441,5.866533 10.436777,5.421584 
	C11.849672,4.751016 13.146414,4.650661 14.388550,3.669394 
	C14.746767,3.339543 14.877385,3.195951 15.195807,2.832783 
	C15.507801,2.467193 15.631989,2.321181 15.966615,1.981714 
	C16.318165,1.661012 16.459278,1.533763 16.800194,1.203257 
	C17.444445,1.000000 17.888889,1.000000 18.666668,1.000000 
	C19.424263,1.517062 19.944124,1.682313 20.788898,1.214368 
	C210.020889,1.000000 399.041779,1.000000 588.531372,1.000000 
	C590.310425,2.319639 592.005493,2.255781 593.987549,2.282962 
	C594.948425,2.292017 595.545715,2.464247 596.305237,3.041639 
	C597.138550,4.033894 597.785278,4.768944 599.074890,5.163695 
	C599.712097,5.484796 600.033752,5.734448 600.513916,6.268959 
	C601.273926,7.617278 601.938904,8.631106 603.446289,9.275381 
	C604.064087,9.727447 604.356934,10.053897 604.765198,10.717892 
	C605.800720,14.304946 607.598328,17.242741 608.764648,20.754965 
	C609.000000,149.020889 609.000000,277.041779 609.000000,405.531342 
	C608.796753,406.240662 608.580750,406.469208 608.175964,406.842834 
	C406.312439,407.000000 204.624878,407.000000 2.468657,407.000000 
	C1.759309,406.796844 1.530774,406.580811 1.157198,406.175964 
z"/>
<path fill="#000000" opacity="1.000000" stroke="none" 
	d="
M4.152247,13.764324 
	C3.178812,14.149756 3.030110,14.709013 2.968054,15.665290 
	C2.531718,16.306089 2.088820,16.450560 1.294070,16.214771 
	C1.000000,11.072524 -0.939029,3.959479 1.507166,1.789221 
	C4.351715,-0.734453 11.038403,1.072524 16.528801,1.000000 
	C17.171566,1.192118 17.343134,1.384236 17.280743,1.883824 
	C16.849335,2.301349 16.651890,2.411404 16.193462,2.737923 
	C15.932480,2.954387 15.996072,2.997725 15.975065,2.965493 
	C14.772860,4.352927 13.049252,4.858728 11.189184,5.779935 
	C10.558666,5.978632 10.286064,6.137558 10.028194,6.673445 
	C9.174500,7.864655 8.270308,8.706012 7.147932,9.763306 
	C6.555336,9.980992 6.282960,10.142024 6.028271,10.680628 
	C5.341708,11.742589 5.106314,12.797164 4.152247,13.764324 
z"/>
<path fill="#000000" opacity="1.000000" stroke="none" 
	d="
M596.235596,4.150546 
	C595.850037,3.176843 595.290527,3.029087 594.334839,2.966916 
	C593.694153,2.530760 593.549622,2.088161 593.785278,1.293859 
	C594.328308,1.000000 594.656616,1.000000 594.984924,1.000000 
	C599.581116,1.000000 606.219727,-0.808977 608.240295,1.472301 
	C610.598816,4.135097 608.924561,10.369781 609.000000,15.527336 
	C605.065186,16.988319 605.828491,13.168889 604.240234,11.231731 
	C604.020691,10.559999 603.862000,10.287125 603.325684,10.028997 
	C602.135376,9.173697 601.293274,8.270046 600.236572,7.146805 
	C600.019348,6.554368 599.858582,6.282309 599.320740,6.027726 
	C598.257202,5.342919 597.202820,5.105948 596.235596,4.150546 
z"/>
<path fill="#E4E4E4" opacity="1.000000" stroke="none" 
	d="
M604.027954,11.300383 
	C606.676758,11.892138 606.084778,15.369663 608.710571,16.290493 
	C609.000000,17.388889 609.000000,18.777779 609.000000,20.583334 
	C605.759888,18.739735 605.142456,15.077086 604.027954,11.300383 
z"/>
<path fill="#E4E4E4" opacity="1.000000" stroke="none" 
	d="
M1.000000,16.428463 
	C1.306928,16.559456 1.702574,16.636679 2.548321,16.093864 
	C4.073734,18.261374 3.231529,20.141727 1.347344,21.939783 
	C1.000000,20.285643 1.000000,18.571283 1.000000,16.428463 
z"/>
<path fill="#E4E4E4" opacity="1.000000" stroke="none" 
	d="
M593.583374,1.000000 
	C593.440918,1.306720 593.363708,1.702110 593.906372,2.547270 
	C591.910400,4.404911 590.448853,3.263971 589.049683,1.337071 
	C590.388916,1.000000 591.777771,1.000000 593.583374,1.000000 
z"/>
<path fill="#E4E4E4" opacity="1.000000" stroke="none" 
	d="
M20.666668,1.000000 
	C20.689798,2.638166 20.129595,3.398287 18.922413,1.306818 
	C19.444445,1.000000 19.888889,1.000000 20.666668,1.000000 
z"/>
<path fill="#E4E4E4" opacity="1.000000" stroke="none" 
	d="
M1.000000,406.500000 
	C1.335772,406.081879 1.597164,406.268158 1.892089,406.779388 
	C1.666667,407.000000 1.333333,407.000000 1.000000,406.500000 
z"/>
<path fill="#E4E4E4" opacity="1.000000" stroke="none" 
	d="
M608.500000,407.000000 
	C608.103699,406.678223 608.287659,406.411957 608.776001,406.100586 
	C609.000000,406.333344 609.000000,406.666656 608.500000,407.000000 
z"/>
<path fill="#F4F4F4" opacity="1.000000" stroke="none" 
	d="
M587.000000,145.036896 
	C587.036316,159.746811 586.726440,173.962296 586.881104,188.190857 
	C587.227905,220.094101 587.075562,252.003998 586.928528,283.910278 
	C586.901245,289.834137 586.214966,295.752197 584.346130,301.519806 
	C581.686951,309.726471 576.105347,314.491180 568.045715,316.856689 
	C558.778687,319.576599 549.276733,319.333405 539.842407,318.778900 
	C536.827087,318.601654 533.957581,319.148254 530.999939,319.050323 
	C517.843689,318.614594 504.652863,319.134338 491.530121,318.716553 
	C480.991974,318.381073 470.445190,319.031952 459.889587,318.608887 
	C452.109894,318.297089 443.935333,318.272736 435.953339,318.583862 
	C424.855255,319.016388 413.517151,317.143219 407.557495,305.203552 
	C405.811432,301.705475 403.862610,302.442017 402.248505,305.478607 
	C397.704865,314.026459 389.841461,317.125488 380.914429,317.938141 
	C365.407532,319.349731 349.882965,319.103546 334.312408,318.510223 
	C320.378479,317.979279 306.394287,318.858673 292.431091,318.978210 
	C277.692169,319.104431 262.939087,319.058380 248.244293,317.905762 
	C239.820343,317.245026 231.910995,315.194275 227.557114,306.452972 
	C225.439514,302.201477 223.746536,302.446075 220.820892,306.336426 
	C215.056244,314.001862 207.497406,317.965576 197.770950,318.054047 
	C188.243240,318.140656 178.687485,319.317078 169.201385,318.850128 
	C153.988312,318.101288 138.827789,319.372437 123.635345,319.070465 
	C107.259743,318.744934 90.855911,319.409851 74.499565,318.759003 
	C68.076225,318.503418 61.403660,318.236481 55.200317,314.826355 
	C49.458462,311.669952 45.885368,307.388550 44.327755,301.349670 
	C42.881565,295.742737 41.950447,290.042694 41.958000,284.167236 
	C42.029549,228.515442 42.013096,172.863495 41.977188,117.211632 
	C41.974277,112.700203 42.654358,108.266220 43.616199,103.935883 
	C46.885578,89.216766 56.379650,84.404099 71.380638,84.196327 
	C112.361893,83.628716 153.357849,83.797752 194.344147,84.137962 
	C205.112793,84.227348 215.668350,86.300056 221.363190,97.538895 
	C222.793137,100.360924 225.037033,100.507484 226.591064,97.618271 
	C232.088303,87.397850 241.583725,84.187996 252.043350,84.117805 
	C294.030334,83.836067 336.022308,83.783173 378.007507,84.175385 
	C386.978241,84.259193 395.674683,86.718803 401.144867,95.458054 
	C404.261475,100.437233 405.252686,100.264534 408.962799,95.527458 
	C415.302429,87.433067 423.743927,84.020866 433.749176,84.013306 
	C474.238434,83.982704 514.727661,83.990440 555.216919,84.011658 
	C561.246826,84.014816 567.148987,85.080307 572.675964,87.439766 
	C580.164124,90.636421 584.612549,96.760658 585.533386,104.584793 
	C586.589233,113.556046 587.241943,122.627319 586.919495,131.717575 
	C586.768127,135.988220 586.962402,140.271103 587.000000,145.036896 
z"/>
<path fill="#E4E4E4" opacity="1.000000" stroke="none" 
	d="
M11.288231,5.971043 
	C11.716110,4.032627 13.615295,3.704684 15.602026,2.962003 
	C15.634342,5.513545 13.620934,5.708306 11.288231,5.971043 
z"/>
<path fill="#E4E4E4" opacity="1.000000" stroke="none" 
	d="
M7.262356,9.940129 
	C6.926290,8.366493 7.565313,7.264037 9.607696,6.949600 
	C9.949033,8.512974 9.257470,9.587170 7.262356,9.940129 
z"/>
<path fill="#E4E4E4" opacity="1.000000" stroke="none" 
	d="
M600.059998,7.261058 
	C601.632629,6.927330 602.736816,7.564739 603.049683,9.608313 
	C601.485596,9.949210 600.411255,9.257561 600.059998,7.261058 
z"/>
<path fill="#E4E4E4" opacity="1.000000" stroke="none" 
	d="
M4.270906,13.922184 
	C3.771887,12.711750 4.490731,11.892311 5.647007,11.025393 
	C5.944063,12.097366 6.189785,13.396897 4.270906,13.922184 
z"/>
<path fill="#E4E4E4" opacity="1.000000" stroke="none" 
	d="
M596.078247,4.268880 
	C597.288452,3.771376 598.108582,4.489572 598.975952,5.646377 
	C597.904846,5.941027 596.601990,6.192522 596.078247,4.268880 
z"/>
<path fill="#E4E4E4" opacity="1.000000" stroke="none" 
	d="
M16.162123,2.903135 
	C16.123558,2.653692 16.314638,2.352998 16.776249,2.121799 
	C16.895872,2.478359 16.677534,2.698555 16.162123,2.903135 
z"/>
<path fill="#FFFFFF" opacity="1.000000" stroke="none" 
	d="
M229.720871,108.413345 
	C230.265976,103.856735 229.247223,99.661659 232.475723,95.858978 
	C236.246872,91.417168 240.809082,90.482285 246.557617,90.995575 
	C251.237625,88.842659 255.898056,89.792656 260.222015,89.850273 
	C270.342773,89.985123 280.451324,89.376572 290.548645,89.587265 
	C311.147797,90.017090 331.744598,89.991417 352.343414,89.995285 
	C361.286499,89.996971 370.234467,89.631248 379.580383,90.720108 
	C380.441315,90.996826 380.885315,90.999840 381.662231,91.004288 
	C384.828857,90.882805 386.784790,92.524895 388.948364,94.612396 
	C391.579224,97.651009 392.362793,100.918800 392.418640,104.890549 
	C392.949036,141.607986 392.548920,177.870621 392.659729,214.132202 
	C392.664795,215.795563 392.640472,217.460800 392.145752,219.531387 
	C390.170074,223.163727 387.422729,221.963730 384.926514,221.283157 
	C377.212402,219.180054 369.585938,216.744980 361.527618,216.190414 
	C348.395569,215.286682 335.932312,218.068298 324.378479,224.008530 
	C312.903839,229.908035 308.925232,241.195236 306.805389,252.860184 
	C304.155212,267.443481 304.010986,282.027832 310.634949,295.943726 
	C311.858002,298.513245 313.778534,301.248718 311.542358,304.649139 
	C309.601776,305.563446 307.941254,305.631714 306.286682,305.627716 
	C286.095825,305.578949 265.904053,305.876221 245.234360,305.465881 
	C240.807785,305.690521 237.123993,304.824982 233.319214,302.527405 
	C229.632065,298.173920 228.520859,293.391113 228.518692,288.311768 
	C228.494797,232.442780 228.472656,176.573730 228.569870,120.704903 
	C228.576736,116.757866 228.734589,112.751976 229.720871,108.413345 
z"/>
<path fill="#FFFFFF" opacity="1.000000" stroke="none" 
	d="
M48.720444,108.414917 
	C49.029007,103.383202 48.797897,98.940636 52.350731,94.945084 
	C56.318047,90.483406 61.141560,90.959839 66.551193,90.995377 
	C70.942070,89.372658 75.155190,89.351372 79.225815,89.584267 
	C96.293991,90.560806 113.376396,89.711403 130.431854,89.705887 
	C147.837311,89.700256 165.262283,90.223267 182.685242,89.669807 
	C189.064957,89.467148 195.627533,89.276459 201.998444,90.845642 
	C203.648392,91.252045 205.199814,91.714973 206.810806,93.225006 
	C210.081314,96.391136 211.395615,99.879044 211.421097,104.384811 
	C211.958603,141.274521 211.545502,177.684235 211.661377,214.092819 
	C211.666672,215.755280 211.643524,217.419678 211.154358,219.490250 
	C210.032349,222.082138 208.220093,222.042862 206.364868,221.532501 
	C203.804199,220.828125 201.196228,220.286270 198.702240,219.339691 
	C184.981400,214.131866 171.134552,214.962708 157.201492,218.393417 
	C151.991989,219.676163 147.110443,221.621536 142.529114,224.419144 
	C134.598572,229.261917 129.664719,236.358276 127.211777,245.141190 
	C124.983444,253.119888 122.446152,261.119904 123.446899,269.600891 
	C124.509781,278.608429 125.522690,287.613708 129.559982,295.975037 
	C130.793579,298.529877 132.620163,301.268433 130.524231,304.656555 
	C127.915260,305.798462 125.563583,305.651886 123.242958,305.643341 
	C103.439064,305.570435 83.634102,305.864349 63.352669,305.466187 
	C58.842648,305.825653 55.323231,304.598663 51.858719,301.725464 
	C48.914936,298.138611 48.052856,294.456329 47.927410,290.276154 
	C47.400208,272.708588 48.088863,255.140747 47.584316,237.569794 
	C47.069122,219.627975 48.458664,201.670273 47.925385,183.727951 
	C47.463184,168.177246 47.880684,152.631165 47.678383,137.083313 
	C47.556175,127.691048 46.733582,118.199745 48.720444,108.414917 
z"/>
<path fill="#FFFFFF" opacity="1.000000" stroke="none" 
	d="
M410.720612,108.412491 
	C411.013977,104.036224 410.537994,99.972710 413.082184,96.470306 
	C416.319183,92.014122 420.686584,90.217819 426.565247,90.995079 
	C428.911530,89.522972 431.153290,90.028778 433.268463,90.023842 
	C458.183594,89.965645 483.098877,89.970718 508.014008,90.013474 
	C524.103882,90.041084 540.187439,89.549606 556.275635,89.524879 
	C560.618958,89.518196 564.949646,89.796806 568.814453,93.222046 
	C572.029785,96.412468 573.426819,99.866219 573.417053,104.385315 
	C573.958130,140.141586 573.546326,175.417847 573.663757,210.692902 
	C573.669861,212.522614 573.673157,214.356323 573.125122,216.592499 
	C571.449341,219.754501 569.086914,219.191086 566.869446,218.362610 
	C551.465149,212.607254 535.748779,211.744171 519.822510,215.553314 
	C510.713379,217.731964 502.110809,220.866653 495.345551,228.054764 
	C490.389313,233.320770 488.444183,239.797485 486.569580,246.276794 
	C481.510712,263.761871 482.663544,281.118164 488.712616,298.206177 
	C489.430267,300.233490 490.549255,302.209839 488.660980,304.594482 
	C486.240723,305.737183 484.066254,305.651855 481.918335,305.642426 
	C463.188171,305.560455 444.456543,305.894318 425.246643,305.446716 
	C421.086945,305.788513 417.766418,304.761566 414.294159,302.519592 
	C409.458496,296.759216 409.558899,290.146057 409.549011,283.703674 
	C409.468597,231.373352 409.493317,179.042862 409.518616,126.712425 
	C409.521484,120.738091 408.895813,114.719955 410.720612,108.412491 
z"/>
<path fill="#ECECEC" opacity="1.000000" stroke="none" 
	d="
M210.302963,104.396439 
	C210.049011,100.922531 209.327377,98.073242 207.160004,95.319908 
	C206.962357,93.259872 208.113846,93.371788 209.647766,93.765579 
	C210.000000,94.000305 210.498505,94.001701 210.747757,94.001923 
	C212.174973,95.195030 213.359894,96.380981 214.773651,97.782661 
	C214.996948,98.003914 214.997238,98.502289 214.998016,98.751480 
	C219.917389,105.406845 219.795258,113.103310 219.892563,120.489426 
	C220.194946,143.439713 219.938248,166.395813 219.965790,189.349823 
	C219.986343,206.470123 220.001144,223.590576 219.998337,240.710968 
	C219.997925,243.210114 220.103882,245.717438 219.126160,248.565094 
	C218.998734,249.750153 218.998856,250.500305 218.999176,251.625534 
	C219.817902,252.992157 220.068573,254.070862 219.250458,255.637207 
	C218.998886,256.749542 218.998917,257.499725 218.999176,258.624939 
	C221.172699,262.399292 219.658112,266.130554 219.832047,269.683105 
	C220.220703,277.621643 220.302078,285.583221 219.014435,293.487732 
	C218.366486,297.465454 217.367035,301.259399 214.305191,304.682068 
	C213.819489,307.089844 212.616226,308.315735 210.341980,308.962769 
	C206.208359,312.359924 201.422180,312.431549 196.392288,312.997192 
	C195.249680,312.998138 194.499954,312.998291 193.375366,312.998352 
	C191.889221,312.991577 190.777924,312.993195 189.333252,312.996887 
	C188.249969,312.998749 187.500061,312.998718 186.375214,312.998718 
	C181.937683,312.995270 177.875107,312.994720 173.406250,312.998474 
	C172.555557,312.998871 172.111099,312.998993 171.333328,312.999573 
	C170.387161,313.729279 169.569992,313.970612 168.327530,313.987976 
	C159.297134,312.323761 150.595657,313.037933 141.449158,313.996399 
	C139.799988,312.607117 138.160904,313.106079 136.330734,312.996948 
	C131.620895,312.998108 127.242401,312.998444 122.432106,312.998779 
	C120.889030,312.991516 119.777740,312.993286 118.333076,312.996216 
	C113.310623,312.998169 108.621559,312.998474 103.466393,312.998779 
	C102.555725,312.996704 102.111145,312.995850 101.333130,312.997223 
	C99.610977,312.998383 98.222252,312.998322 96.416916,312.997925 
	C95.555725,312.996002 95.111145,312.995300 94.333130,312.996704 
	C92.285507,312.998108 90.571320,312.998413 88.428711,312.998749 
	C86.222343,312.992065 84.444389,312.991943 82.333061,312.997253 
	C78.254150,313.032532 74.476608,312.701263 70.422470,313.985168 
	C67.773109,312.406219 64.876114,312.783997 62.274544,311.237488 
	C60.236385,310.356720 58.472950,309.713409 56.356773,309.033295 
	C55.475445,308.457947 54.937927,307.928406 54.198662,307.200500 
	C53.682964,306.529480 53.364437,306.061401 53.023415,305.296661 
	C52.172867,304.008453 51.948189,302.914093 52.721634,301.356262 
	C55.466011,302.767120 57.939770,304.485046 61.613163,304.014954 
	C65.529739,306.432404 69.664452,306.245697 73.550293,306.263214 
	C113.696220,306.444427 153.843155,306.441467 193.989288,306.307770 
	C205.388474,306.269836 210.694626,301.234711 212.091141,289.981079 
	C212.379181,287.659851 212.367722,285.327057 212.367813,282.994904 
	C212.370026,229.021881 212.369598,175.048874 212.368820,121.075851 
	C212.368744,115.578476 211.982925,110.123772 210.302963,104.396439 
z"/>
<path fill="#ECECEC" opacity="1.000000" stroke="none" 
	d="
M391.302185,104.395905 
	C391.054535,100.919991 390.328583,98.071663 388.163849,95.316254 
	C387.967438,93.255920 389.119019,93.372688 390.648590,93.765686 
	C391.000000,94.000305 391.498169,94.001862 391.747253,94.002258 
	C397.742798,99.691269 400.192810,106.722656 400.494598,114.663582 
	C401.544342,142.289185 400.326630,169.915771 400.383942,197.542526 
	C400.413605,211.827911 401.090637,226.109772 400.895874,240.348907 
	C400.668457,256.978455 401.691193,273.641449 400.339569,290.231842 
	C399.902618,295.595520 398.635437,301.099915 394.322083,305.671387 
	C393.437042,306.505005 392.874084,307.009979 392.155121,307.756897 
	C391.458374,308.525085 390.927399,309.061188 390.194946,309.795929 
	C389.552948,309.998322 389.109467,309.999084 388.333435,310.000549 
	C384.017883,312.837738 379.427765,312.997986 374.800781,312.996338 
	C372.820740,312.995667 370.840729,312.997070 368.430359,312.998596 
	C367.555542,312.998932 367.111115,312.999115 366.333313,312.999634 
	C326.986237,313.001434 287.972443,312.995911 248.478912,312.996613 
	C247.555923,312.995697 247.112717,312.995880 246.337067,312.996185 
	C243.179199,311.067871 239.646408,310.556763 236.918411,308.404022 
	C234.993942,306.885345 232.824448,305.584991 233.750031,302.283600 
	C237.096603,302.509552 239.889099,304.414856 243.599792,304.013245 
	C246.994263,306.328796 250.582565,306.299377 254.027435,306.307861 
	C294.348145,306.406830 334.669281,306.441864 374.989868,306.312225 
	C386.572601,306.274994 391.930328,301.092957 393.148132,289.521667 
	C393.357819,287.529175 393.366486,285.529999 393.366638,283.530548 
	C393.370972,229.547134 393.378174,175.563721 393.355560,121.580307 
	C393.353210,115.926682 392.906891,110.302132 391.302185,104.395905 
z"/>
<path fill="#ECECEC" opacity="1.000000" stroke="none" 
	d="
M572.296082,104.401619 
	C572.045898,100.923965 571.328369,98.073265 569.159973,95.320320 
	C571.353699,93.384583 572.727051,93.732330 575.094482,96.452484 
	C579.344727,101.335876 580.972778,107.142235 580.982422,113.461151 
	C581.019287,137.605927 580.997131,161.750793 580.997192,185.895630 
	C580.997253,220.031418 581.119141,254.167877 580.932861,288.302673 
	C580.865112,300.721375 576.487122,307.752319 566.961182,311.200836 
	C563.538452,312.439941 559.913391,313.008972 556.217834,313.007507 
	C515.254883,312.991211 474.291870,313.023193 433.328979,312.968048 
	C427.579559,312.960297 422.074310,311.867493 417.341522,307.335632 
	C416.894775,306.679932 416.706573,306.419922 416.217773,306.109985 
	C415.124268,305.046387 414.178345,304.122742 414.779175,302.313782 
	C417.792725,302.428375 420.152863,304.625916 423.608154,304.015564 
	C427.770813,306.233276 432.003662,306.290344 436.113342,306.302063 
	C475.747192,306.415222 515.381409,306.410583 555.015381,306.322388 
	C561.121094,306.308777 567.013672,305.510132 570.892273,299.770844 
	C572.327209,297.647552 573.271790,295.505890 573.567261,292.926331 
	C574.174866,287.621124 574.391663,282.317139 574.388489,276.981537 
	C574.358276,225.523773 574.370789,174.066010 574.370728,122.608246 
	C574.370728,116.607635 573.938171,110.651672 572.296082,104.401619 
z"/>
<path fill="#F2F2F2" opacity="1.000000" stroke="none" 
	d="
M417.039124,307.354553 
	C424.948395,312.167603 433.861847,312.072205 442.874817,312.045959 
	C480.526978,311.936371 518.179626,312.004333 555.832092,311.997437 
	C571.574463,311.994568 579.973755,303.774872 579.984192,288.132629 
	C580.023132,229.987915 580.004700,171.843170 579.991760,113.698448 
	C579.990417,107.724792 578.387756,102.240227 574.691345,97.454208 
	C573.347107,95.713722 571.875854,94.213013 569.198853,94.758362 
	C565.518799,91.717606 561.359131,90.927200 556.662476,90.938522 
	C513.755066,91.041962 470.847290,90.998177 427.471375,90.994904 
	C427.508972,88.223396 429.726044,89.042221 431.389435,89.030373 
	C440.382446,88.966309 449.376160,88.999962 458.369629,88.999924 
	C475.274109,88.999847 492.179871,89.129456 509.082703,88.961952 
	C524.894653,88.805275 540.702393,88.174614 556.514099,88.063545 
	C565.212219,88.002441 572.651123,91.075737 577.957581,98.443642 
	C580.921021,102.558380 581.934509,107.252632 581.941650,112.057434 
	C582.030273,171.347610 582.192383,230.639008 581.869202,289.927551 
	C581.784302,305.499451 573.380310,313.682129 557.328430,313.849396 
	C515.030396,314.290131 472.724060,314.106415 430.422943,313.851471 
	C425.502686,313.821777 420.071625,312.891693 417.039124,307.354553 
z"/>
<path fill="#F2F2F2" opacity="1.000000" stroke="none" 
	d="
M394.357727,305.959778 
	C398.907928,297.998474 399.348572,289.191467 399.069153,280.114899 
	C398.764526,270.220245 399.000061,260.308990 398.999969,250.404968 
	C398.999695,216.059647 398.911438,181.713959 399.056061,147.369247 
	C399.096069,137.870361 399.129303,128.368820 399.203827,118.878723 
	C399.274658,109.859016 397.747253,101.797523 392.034790,94.353348 
	C395.474762,94.324776 396.534698,97.370369 397.652863,99.743912 
	C401.121887,107.107521 402.988068,114.919647 403.017487,123.140167 
	C403.067719,137.184296 402.036163,151.242416 402.314819,165.233795 
	C402.530884,176.081985 402.020508,186.962769 402.490906,197.845169 
	C402.829163,205.670700 399.755676,214.136246 401.255768,221.967728 
	C404.738525,240.149963 402.046997,258.351501 402.954742,276.507935 
	C403.396454,285.342133 401.548767,293.841187 398.177246,302.034302 
	C397.436951,303.833344 396.680878,305.341400 394.357727,305.959778 
z"/>
<path fill="#F2F2F2" opacity="1.000000" stroke="none" 
	d="
M233.843689,301.680115 
	C233.843903,305.898499 236.840485,307.175323 239.532471,308.819977 
	C241.600693,310.083588 244.275162,310.225311 245.943787,312.648987 
	C234.866302,311.850952 230.579605,304.042938 228.077240,294.525543 
	C227.317108,291.634521 226.956985,288.714874 226.960159,285.686951 
	C227.015381,232.962982 227.062027,180.238785 226.914719,127.515167 
	C226.897919,121.508217 228.130219,115.653854 228.136459,109.683815 
	C228.136993,109.182892 228.840286,108.682701 229.604492,108.092773 
	C229.994537,168.617020 230.028717,229.230698 229.934113,289.844208 
	C229.927246,294.241608 230.869995,298.034119 233.843689,301.680115 
z"/>
<path fill="#F2F2F2" opacity="1.000000" stroke="none" 
	d="
M414.843811,301.682159 
	C415.311340,303.100433 415.622650,304.204895 415.967041,305.654694 
	C409.414337,303.846375 410.788300,297.410034 409.143890,292.747101 
	C407.310120,287.547241 408.003815,281.918304 408.003204,276.452911 
	C407.997711,226.889130 408.033997,177.325272 407.955170,127.761620 
	C407.945770,121.839104 407.300873,115.920937 408.963898,110.101051 
	C409.200928,109.271599 409.360382,108.501213 410.622192,108.078934 
	C410.994751,168.617386 411.028748,229.231628 410.933777,289.845703 
	C410.926880,294.243591 411.872284,298.035156 414.843811,301.682159 
z"/>
<path fill="#F2F2F2" opacity="1.000000" stroke="none" 
	d="
M52.728073,300.801819 
	C53.003643,302.077179 53.002419,303.139801 53.001053,304.601196 
	C47.710190,302.817200 47.581127,297.585724 47.196926,293.347717 
	C46.293137,283.378265 45.714951,273.289429 46.199768,263.306946 
	C46.787399,251.207458 46.269539,239.168015 45.979378,227.106201 
	C45.659649,213.815125 47.929214,200.580566 46.957115,187.298615 
	C45.732468,170.566101 46.586056,153.809906 46.229084,137.068497 
	C46.038963,128.152161 45.156887,119.075081 47.006809,110.155975 
	C47.184090,109.301254 47.352306,108.547768 48.610573,108.088463 
	C48.994648,168.524521 49.031120,229.045883 48.925701,289.567017 
	C48.918362,293.781097 49.649227,297.432281 52.728073,300.801819 
z"/>
<path fill="#F2F2F2" opacity="1.000000" stroke="none" 
	d="
M209.941162,93.645340 
	C209.138367,94.161057 208.276733,94.321808 207.206360,94.742203 
	C203.518524,91.718315 199.359253,90.926453 194.662567,90.938057 
	C152.421783,91.042389 110.180626,90.998116 67.471298,90.995094 
	C71.552055,87.170670 77.027939,87.825874 82.218307,88.336006 
	C88.775543,88.980507 95.257423,88.934479 101.775757,88.249870 
	C103.260468,88.093933 104.759186,88.040024 106.252953,88.006630 
	C117.920563,87.745735 129.553116,88.785606 141.266251,88.195900 
	C153.262970,87.591911 165.381577,89.292587 177.365692,88.593559 
	C186.238907,88.075989 194.812271,89.193466 203.496735,90.014305 
	C206.016876,90.252510 208.357056,91.024399 209.941162,93.645340 
z"/>
<path fill="#F2F2F2" opacity="1.000000" stroke="none" 
	d="
M219.393723,248.906158 
	C216.805756,246.646072 219.171188,244.306519 219.125351,241.935104 
	C218.863007,228.357773 218.998123,214.772781 218.997498,201.190384 
	C218.996811,186.067398 218.994553,170.944427 218.994370,155.821442 
	C218.994232,144.238968 219.443848,132.632828 218.832840,121.082741 
	C218.454010,113.921844 218.680801,106.439766 215.041885,99.377045 
	C220.986572,103.242493 220.740921,109.999275 220.838791,115.961876 
	C221.229446,139.761002 220.999969,163.570297 221.000000,187.375839 
	C221.000015,206.187210 221.023865,224.998657 220.959244,243.809814 
	C220.953430,245.500458 221.823578,247.539749 219.393723,248.906158 
z"/>
<path fill="#F2F2F2" opacity="1.000000" stroke="none" 
	d="
M379.903687,90.599533 
	C335.978058,90.995079 291.958801,90.996353 247.471222,90.995316 
	C247.208496,89.235504 248.432098,88.990059 249.884872,89.000381 
	C257.070740,89.051460 264.253723,88.074524 271.443237,88.979538 
	C277.115540,89.693581 282.665527,87.711708 288.288361,88.041359 
	C308.872162,89.248138 329.472931,88.972855 350.071381,88.998009 
	C358.482697,89.008286 366.894318,88.962875 375.305054,89.033455 
	C376.849762,89.046417 378.709229,88.305618 379.903687,90.599533 
z"/>
<path fill="#F2F2F2" opacity="1.000000" stroke="none" 
	d="
M248.295807,313.289825 
	C249.654129,311.290497 251.780487,312.018951 253.685471,312.035950 
	C278.309174,312.255463 302.931732,311.839325 327.560547,312.271912 
	C340.159454,312.493164 352.789246,311.729767 365.702881,312.706604 
	C365.017365,314.237671 363.621216,313.993378 362.315796,313.993622 
	C325.217041,314.000671 288.118286,314.001282 251.019531,313.980835 
	C250.210434,313.980377 249.401474,313.722137 248.295807,313.289825 
z"/>
<path fill="#F2F2F2" opacity="1.000000" stroke="none" 
	d="
M214.355881,304.958557 
	C219.699066,293.608978 219.258377,281.440521 218.638519,269.218689 
	C218.481415,266.120819 218.863953,262.995605 218.998962,259.441467 
	C220.394318,259.181763 221.045792,260.011169 220.976562,261.379608 
	C220.358200,273.603577 222.694702,285.989777 218.994339,298.042694 
	C218.178787,300.699188 217.681580,303.587280 214.355881,304.958557 
z"/>
<path fill="#F2F2F2" opacity="1.000000" stroke="none" 
	d="
M368.294189,313.290955 
	C369.806549,311.219696 372.090179,311.996490 374.125275,312.061951 
	C378.636902,312.206940 382.973206,311.562317 387.607758,310.048584 
	C386.497772,314.401184 382.230103,313.056763 379.256653,313.736023 
	C375.880402,314.507324 372.134949,314.451538 368.294189,313.290955 
z"/>
<path fill="#F2F2F2" opacity="1.000000" stroke="none" 
	d="
M196.260223,313.277496 
	C200.157196,310.823975 205.167694,311.536316 209.621536,309.042053 
	C206.723572,314.116608 201.526611,313.553802 196.260223,313.277496 
z"/>
<path fill="#F2F2F2" opacity="1.000000" stroke="none" 
	d="
M173.292206,313.289978 
	C177.059845,311.128082 181.248627,312.010406 185.707703,312.708099 
	C181.940384,314.871338 177.751266,313.988617 173.292206,313.289978 
z"/>
<path fill="#F2F2F2" opacity="1.000000" stroke="none" 
	d="
M390.938721,93.643646 
	C390.139893,94.159966 389.279755,94.319618 388.211609,94.738235 
	C386.085358,93.923729 384.761566,91.893631 382.201721,91.263092 
	C385.424957,89.940102 388.429199,90.531143 390.938721,93.643646 
z"/>
<path fill="#F2F2F2" opacity="1.000000" stroke="none" 
	d="
M62.071491,311.363190 
	C64.683243,311.526886 67.562218,311.375153 69.929398,313.629089 
	C67.190552,313.911438 64.375847,313.827362 62.071491,311.363190 
z"/>
<path fill="#F2F2F2" opacity="1.000000" stroke="none" 
	d="
M82.247406,313.270782 
	C83.694466,311.397949 85.595108,311.882751 87.752335,312.726807 
	C86.305923,314.602783 84.404922,314.117615 82.247406,313.270782 
z"/>
<path fill="#F2F2F2" opacity="1.000000" stroke="none" 
	d="
M136.251068,313.274261 
	C137.709518,311.652924 139.360672,311.288300 140.936768,313.643555 
	C139.503677,313.847809 138.003204,313.699249 136.251068,313.274261 
z"/>
<path fill="#F2F2F2" opacity="1.000000" stroke="none" 
	d="
M214.962585,97.660583 
	C212.907181,97.822746 211.681534,96.618294 211.033203,94.344727 
	C213.093506,94.174995 214.318481,95.381348 214.962585,97.660583 
z"/>
<path fill="#F2F2F2" opacity="1.000000" stroke="none" 
	d="
M189.212250,313.257507 
	C190.029572,311.705597 191.260391,311.803497 192.787811,312.740112 
	C191.971161,314.293640 190.740219,314.197144 189.212250,313.257507 
z"/>
<path fill="#F2F2F2" opacity="1.000000" stroke="none" 
	d="
M118.211937,313.256714 
	C119.030075,311.706268 120.260666,311.803009 121.787781,312.740479 
	C120.970528,314.293915 119.739594,314.197021 118.211937,313.256714 
z"/>
<path fill="#F2F2F2" opacity="1.000000" stroke="none" 
	d="
M219.344055,255.936798 
	C218.998718,254.933044 218.998581,253.866699 218.998932,252.400482 
	C221.742279,252.844254 221.673721,254.188614 219.344055,255.936798 
z"/>
<path fill="#F2F2F2" opacity="1.000000" stroke="none" 
	d="
M168.199509,314.247375 
	C168.535812,313.104736 169.408890,313.003204 170.662598,313.001495 
	C170.794327,314.645477 170.065567,315.384338 168.199509,314.247375 
z"/>
<path fill="#F2F2F2" opacity="1.000000" stroke="none" 
	d="
M94.146553,313.221191 
	C94.426064,312.303925 94.949303,311.981110 95.853119,312.774963 
	C95.574593,313.693512 95.051880,314.019135 94.146553,313.221191 
z"/>
<path fill="#F2F2F2" opacity="1.000000" stroke="none" 
	d="
M101.146606,313.221710 
	C101.426086,312.304138 101.949326,311.980927 102.853256,312.775909 
	C102.574295,313.694153 102.051376,314.018890 101.146606,313.221710 
z"/>
<path fill="#F2F2F2" opacity="1.000000" stroke="none" 
	d="
M390.316406,309.955261 
	C390.077301,309.093658 390.322357,308.306854 391.679688,308.042175 
	C391.921661,308.905060 391.677490,309.692657 390.316406,309.955261 
z"/>
<path fill="#F2F2F2" opacity="1.000000" stroke="none" 
	d="
M54.044289,307.317566 
	C54.905643,307.076660 55.692471,307.320862 55.959785,308.677307 
	C55.096718,308.922058 54.309109,308.678772 54.044289,307.317566 
z"/>
<path fill="#FAFAFA" opacity="1.000000" stroke="none" 
	d="
M312.327820,304.294678 
	C310.047363,296.105530 305.229004,289.190857 304.476318,280.937408 
	C302.963409,264.348114 303.729706,248.139252 312.433411,233.267105 
	C318.317291,223.213257 328.439362,220.025375 338.726410,217.000839 
	C354.470306,212.371948 369.720612,214.789963 384.854950,219.803711 
	C386.565308,220.370316 388.385437,220.605530 390.558594,220.992371 
	C393.605225,224.183990 392.390472,227.995148 392.560150,231.552048 
	C392.710175,234.697433 392.806732,237.874207 392.151184,241.426208 
	C389.962158,245.222397 387.640625,243.295914 385.796387,241.822891 
	C382.794708,239.425430 379.679871,237.229172 376.412537,235.236038 
	C363.532501,227.378967 350.717529,227.557770 337.840851,235.373260 
	C324.943176,243.201492 317.861237,254.624649 318.585510,269.620178 
	C319.128174,280.855347 323.793427,290.842255 332.898438,298.258911 
	C334.767639,299.781494 337.884857,301.105103 335.295319,304.779755 
	C327.484772,305.801819 320.055603,306.399261 312.327820,304.294678 
z"/>
<path fill="#E4E4E4" opacity="1.000000" stroke="none" 
	d="
M311.522919,303.974274 
	C319.678680,303.971680 327.366852,303.979736 335.523041,303.982727 
	C338.083160,302.164551 340.648376,302.447205 343.114807,302.437012 
	C353.909576,302.392365 364.705048,302.491180 375.499237,302.394745 
	C385.464905,302.305725 389.431854,298.406372 389.373779,288.392822 
	C389.300598,275.772217 389.517181,263.153564 389.438599,250.533722 
	C389.424255,248.229645 389.178497,245.859604 390.701965,243.358200 
	C390.981842,235.970993 390.986481,228.950134 390.976807,221.459808 
	C390.977936,182.309097 390.993317,143.627869 391.015991,104.479469 
	C396.276550,106.456108 392.964172,111.847229 394.906830,115.470749 
	C395.394257,116.379883 394.999420,117.765366 394.999451,118.931931 
	C395.000366,174.598129 395.000732,230.264343 394.996460,285.930542 
	C394.996338,287.429321 395.103607,288.951111 394.891083,290.423248 
	C393.114105,302.732788 386.933014,307.999146 374.355103,307.999542 
	C334.022095,308.000793 293.689087,308.014465 253.356125,307.973846 
	C249.963470,307.970428 246.268616,308.462769 244.055328,304.392731 
	C266.359253,304.009796 288.707275,303.997345 311.522919,303.974274 
z"/>
<path fill="#ECECEC" opacity="1.000000" stroke="none" 
	d="
M316.884583,155.000000 
	C319.361084,155.023865 321.380707,154.862976 323.345459,155.120590 
	C325.566345,155.411804 326.980133,156.835220 326.885986,159.189865 
	C326.788330,161.631607 324.979279,162.001312 322.991119,162.001175 
	C297.371063,161.999420 271.751007,161.999283 246.130936,162.005463 
	C243.538696,162.006088 241.107864,161.212418 241.281387,158.312408 
	C241.451035,155.477402 243.983002,154.981323 246.530579,154.984421 
	C269.821533,155.012756 293.112518,155.000458 316.884583,155.000000 
z"/>
<path fill="#ECECEC" opacity="1.000000" stroke="none" 
	d="
M312.859009,132.798004 
	C311.713379,135.484375 309.814758,136.019547 307.447571,136.014297 
	C287.144867,135.969391 266.842041,135.975601 246.539291,136.003387 
	C243.759766,136.007202 241.258133,135.340607 241.159134,132.189865 
	C241.049500,128.700699 243.666382,127.992607 246.653320,127.996735 
	C266.956055,128.024826 287.258881,128.021103 307.561676,128.001678 
	C310.608643,127.998772 312.802948,128.904602 312.859009,132.798004 
z"/>
<path fill="#ECECEC" opacity="1.000000" stroke="none" 
	d="
M276.000000,141.988403 
	C284.147003,141.989365 291.794006,141.990021 299.441010,141.991501 
	C301.496521,141.991898 303.755432,141.963882 303.863678,144.747238 
	C303.974701,147.603683 302.134094,148.965195 299.425751,148.970352 
	C281.472046,149.004501 263.518219,149.005341 245.564514,148.969101 
	C242.856491,148.963623 241.016922,147.588898 241.138855,144.734756 
	C241.257614,141.955383 243.525711,141.992645 245.576935,141.992096 
	C255.551285,141.989426 265.525635,141.989380 276.000000,141.988403 
z"/>
<path fill="#ECECEC" opacity="1.000000" stroke="none" 
	d="
M272.999756,122.011490 
	C263.694366,122.010956 254.888885,122.018303 246.083450,122.004562 
	C243.743729,122.000908 240.960388,122.269440 241.140900,118.783051 
	C241.287003,115.961693 243.390900,114.992920 246.047531,114.995682 
	C261.000183,115.011246 275.952850,115.004967 290.905518,115.000641 
	C293.500488,114.999893 295.859558,115.820541 295.719330,118.725746 
	C295.597443,121.251244 293.356445,122.030510 290.944458,122.018013 
	C285.129700,121.987900 279.314667,122.010277 272.999756,122.011490 
z"/>
<path fill="#FAFAFA" opacity="1.000000" stroke="none" 
	d="
M131.328873,304.294312 
	C129.590790,300.310303 129.105972,296.262787 126.199249,293.259491 
	C125.658783,292.701050 125.327042,291.797211 125.198868,291.004303 
	C122.832321,276.364471 120.121719,261.982635 124.920380,246.994568 
	C129.864883,231.550964 139.188187,222.384583 154.681015,217.616898 
	C166.636368,213.937805 178.456619,213.945068 190.360718,215.241486 
	C196.768494,215.939316 202.919861,218.991608 209.574921,220.985962 
	C211.362762,222.202057 211.526306,223.887787 211.534180,225.538391 
	C211.566544,232.325409 211.935547,239.118042 211.186996,246.312775 
	C208.634995,250.547806 206.896637,247.656128 205.357483,245.956787 
	C201.310043,241.488083 197.009766,237.554367 191.335205,235.053253 
	C175.573196,228.105972 161.994934,230.628693 149.390961,244.161697 
	C138.315109,256.053955 136.404129,270.013428 143.446121,284.745117 
	C146.017853,290.125092 150.426590,294.377014 155.096039,298.224854 
	C156.981949,299.778900 159.927780,301.259155 157.226898,304.815491 
	C148.438675,305.788666 140.034561,306.406067 131.328873,304.294312 
z"/>
<path fill="#E4E4E4" opacity="1.000000" stroke="none" 
	d="
M130.522568,303.972870 
	C139.677338,303.968353 148.364532,303.974792 157.519531,303.974426 
	C160.079483,302.163452 162.641418,302.433960 165.107407,302.421997 
	C174.899475,302.374542 184.692459,302.481750 194.483826,302.377563 
	C204.485962,302.271118 208.291550,298.449921 208.377182,288.392944 
	C208.470428,277.441284 208.435883,266.488403 208.421951,255.535950 
	C208.419006,253.231812 208.175034,250.864990 209.690201,248.358368 
	C209.975464,239.301346 209.983353,230.615402 209.977081,221.459900 
	C209.978256,182.309204 209.993607,143.628067 210.016541,104.479797 
	C214.943497,106.783905 213.529343,111.899193 213.817001,115.937820 
	C214.419174,124.391884 214.000580,132.918671 214.000565,141.415604 
	C214.000458,189.398270 213.978561,237.380951 214.046371,285.363525 
	C214.051132,288.737640 213.561646,291.971466 212.783127,295.201355 
	C210.830185,303.303436 205.549057,307.695190 196.368225,307.796814 
	C154.721725,308.257935 113.066887,308.068756 71.416389,307.852783 
	C68.322815,307.836731 64.291573,308.506622 62.059757,304.400940 
	C84.693138,304.010681 107.374069,303.997253 130.522568,303.972870 
z"/>
<path fill="#ECECEC" opacity="1.000000" stroke="none" 
	d="
M90.000000,162.005249 
	C81.516220,162.004715 73.532257,161.974258 65.548752,162.021057 
	C63.007271,162.035950 60.410336,161.539597 60.292557,158.713226 
	C60.157925,155.482620 62.899475,154.990311 65.608864,154.992004 
	C90.558167,155.007645 115.507515,155.013443 140.456802,154.984726 
	C143.242996,154.981522 145.723831,155.650253 145.843643,158.792206 
	C145.991516,162.670319 142.780243,161.979904 140.398529,161.985199 
	C123.765755,162.022263 107.132858,162.005066 90.000000,162.005249 
z"/>
<path fill="#ECECEC" opacity="1.000000" stroke="none" 
	d="
M63.684853,135.924210 
	C60.988327,134.992264 59.471081,133.483246 60.257233,130.933197 
	C61.001881,128.517807 63.062092,127.984436 65.441299,127.989098 
	C85.736183,128.028839 106.031197,128.024399 126.326118,127.996857 
	C129.299057,127.992813 131.971512,128.666946 131.838715,132.159332 
	C131.706039,135.647934 128.883835,136.012314 125.998871,136.006882 
	C105.371315,135.968002 84.743675,135.976578 63.684853,135.924210 
z"/>
<path fill="#ECECEC" opacity="1.000000" stroke="none" 
	d="
M72.058937,149.000000 
	C69.076004,148.992416 66.572792,149.115982 64.090767,148.940262 
	C61.621586,148.765427 60.024246,147.351822 60.123627,144.755127 
	C60.216946,142.316849 62.086174,141.992447 64.057976,141.992722 
	C82.347313,141.995361 100.636642,141.998383 118.925980,141.988434 
	C121.166565,141.987213 123.118019,142.526489 122.875519,145.226181 
	C122.621559,148.053345 120.596382,149.010361 117.938759,149.005341 
	C107.463989,148.985550 96.989166,148.999069 86.514359,148.999924 
	C81.858887,149.000320 77.203415,149.000000 72.058937,149.000000 
z"/>
<path fill="#ECECEC" opacity="1.000000" stroke="none" 
	d="
M62.835472,115.256271 
	C78.542381,115.075409 93.844437,115.056450 109.146225,114.983315 
	C111.843239,114.970421 114.699532,115.350876 114.720009,118.483955 
	C114.740562,121.628731 111.890495,122.033409 109.190193,122.026985 
	C94.385696,121.991745 79.581070,122.015350 64.776505,122.001465 
	C62.969383,121.999763 60.933567,122.270943 60.229332,119.940247 
	C59.590508,117.826057 60.778343,116.469818 62.835472,115.256271 
z"/>
<path fill="#FAFAFA" opacity="1.000000" stroke="none" 
	d="
M489.326904,304.294098 
	C488.193329,298.569550 485.702698,293.688263 484.376160,288.396057 
	C479.657104,269.569763 481.823761,251.507370 489.314026,234.106888 
	C492.477875,226.757034 498.832123,221.541321 506.450623,218.304169 
	C519.377686,212.811401 532.916565,210.942184 546.785583,212.115555 
	C553.307251,212.667313 559.850464,213.938232 565.986694,216.520218 
	C567.671448,217.229126 569.243347,218.206848 571.569702,217.992813 
	C575.062561,223.836624 573.258179,230.030029 573.124268,236.507538 
	C571.434143,239.781738 569.326111,238.494003 567.474670,237.468582 
	C564.567566,235.858490 561.763306,234.049866 558.976196,232.240402 
	C539.222046,219.415558 499.776642,228.898315 497.294922,264.689789 
	C496.408539,277.473206 500.084839,288.616821 508.604370,298.212524 
	C510.131714,299.932770 512.757324,301.511536 510.364075,304.743042 
	C503.198151,305.834351 496.412140,306.358368 489.326904,304.294098 
z"/>
<path fill="#E4E4E4" opacity="1.000000" stroke="none" 
	d="
M571.679810,238.373169 
	C571.976562,231.634995 571.984192,225.282089 571.978027,218.459930 
	C571.979370,180.309494 571.994507,142.628357 572.017212,104.480118 
	C576.701477,107.533821 575.685547,112.962700 575.833252,117.537392 
	C576.289551,131.669830 576.000000,145.826370 576.000000,159.973541 
	C576.000061,201.416443 576.003357,242.859344 575.995117,284.302246 
	C575.994202,288.782837 575.707397,293.372528 574.096008,297.471283 
	C571.219788,304.787384 564.946106,307.913086 557.462463,307.936615 
	C516.186401,308.066437 474.909637,308.041016 433.633545,307.918732 
	C430.305420,307.908844 426.610809,307.848053 424.074219,304.385925 
	C445.360443,304.011780 466.707947,303.998688 488.523010,303.974640 
	C496.010986,303.969513 503.031403,303.975372 510.519592,303.973938 
	C514.427551,301.448547 518.347534,302.695953 522.561279,302.538452 
	C531.118103,302.216827 539.206238,302.438416 547.735840,302.453918 
	C551.665527,302.655212 555.155945,302.580658 558.640137,302.492340 
	C565.789978,302.311096 569.982849,298.223358 570.455078,291.057648 
	C570.629883,288.406281 570.515564,285.743805 570.525574,282.640991 
	C570.233765,271.506439 570.389587,260.816437 570.458069,249.652634 
	C570.623718,245.690170 569.732300,242.115845 571.679810,238.373169 
z"/>
<path fill="#ECECEC" opacity="1.000000" stroke="none" 
	d="
M492.981812,155.000000 
	C496.804901,155.004211 500.132874,154.952652 503.457855,155.030075 
	C506.171783,155.093262 508.004364,156.431137 507.859802,159.288849 
	C507.719177,162.069473 505.438293,162.001816 503.392548,162.001938 
	C478.109558,162.003326 452.826538,161.992569 427.543579,162.020081 
	C425.001434,162.022858 422.404907,161.534561 422.291962,158.708099 
	C422.162994,155.480530 424.905182,154.989563 427.614563,154.991653 
	C449.238190,155.008270 470.861786,155.000381 492.981812,155.000000 
z"/>
<path fill="#ECECEC" opacity="1.000000" stroke="none" 
	d="
M485.790894,135.989990 
	C466.863678,135.990005 448.407990,135.990295 429.952301,135.989395 
	C428.788483,135.989349 427.622925,136.018982 426.461182,135.967422 
	C423.986450,135.857605 422.207672,134.683670 422.127594,132.116592 
	C422.047333,129.542389 423.747894,128.277145 426.224731,128.035690 
	C426.719391,127.987480 427.221619,128.011917 427.720367,128.011887 
	C447.838745,128.010757 467.957092,128.010284 488.075470,128.012131 
	C488.740143,128.012192 489.413849,127.971848 490.067810,128.062454 
	C492.303619,128.372192 493.828949,129.583252 493.890594,131.909317 
	C493.952606,134.249924 492.469086,135.568466 490.245819,135.898071 
	C488.942139,136.091339 487.591766,135.969894 485.790894,135.989990 
z"/>
<path fill="#ECECEC" opacity="1.000000" stroke="none" 
	d="
M476.856934,141.988403 
	C479.999420,142.716309 484.738373,140.024857 484.736023,145.134247 
	C484.733795,149.973114 480.219910,148.967316 477.041168,148.977310 
	C461.243713,149.027023 445.446014,149.001694 429.648407,148.996933 
	C428.319031,148.996536 426.963074,149.111572 425.666229,148.893997 
	C423.453339,148.522751 422.030853,147.174515 422.113281,144.822159 
	C422.198822,142.380630 424.002533,141.993011 425.991302,141.993729 
	C429.815979,141.995087 433.640656,141.988907 437.465332,141.988693 
	C450.436005,141.987915 463.406677,141.988403 476.856934,141.988403 
z"/>
<path fill="#ECECEC" opacity="1.000000" stroke="none" 
	d="
M470.634094,115.000359 
	C473.769135,114.866302 476.700745,115.303284 476.705261,118.423424 
	C476.710327,121.931313 473.548218,122.028801 470.755035,122.023514 
	C456.289642,121.996124 441.824127,122.026047 427.358734,121.993896 
	C425.113464,121.988907 422.147797,122.550102 422.158356,119.049446 
	C422.169006,115.543793 424.837616,114.977287 427.780731,114.984734 
	C441.913544,115.020447 456.046539,115.000458 470.634094,115.000359 
z"/>
<path fill="#FDFAE6" opacity="1.000000" stroke="none" 
	d="
M390.626740,242.957458 
	C390.984741,258.786469 391.019257,274.581177 390.989319,290.375732 
	C390.972717,299.127808 386.141602,303.965240 377.404144,303.989502 
	C363.913025,304.026978 350.421661,303.995819 336.460754,303.985718 
	C335.888977,301.854614 334.259491,301.012787 332.806824,299.856384 
	C316.657532,287.000366 310.205658,261.828003 326.502136,243.044373 
	C334.920441,233.341278 345.609619,227.832901 358.611786,228.083298 
	C368.784668,228.279190 377.281677,233.091293 384.909637,239.471375 
	C386.579071,240.867691 388.094910,242.376770 390.626740,242.957458 
z"/>
<path fill="#F4F4F4" opacity="1.000000" stroke="none" 
	d="
M209.625824,247.951599 
	C209.978577,262.133484 210.019501,276.279785 209.989594,290.425903 
	C209.971161,299.139587 205.116104,303.967102 196.373489,303.990906 
	C183.891556,304.024902 171.409439,303.993988 158.457367,303.979187 
	C157.943390,301.850861 156.406128,300.671692 154.959137,299.625580 
	C130.801178,282.160645 133.827148,251.649567 156.735687,235.847717 
	C172.052231,225.282715 195.597641,230.481827 206.799683,245.668213 
	C207.499954,246.617569 207.988831,247.676849 209.625824,247.951599 
z"/>
<path fill="#F4F4F4" opacity="1.000000" stroke="none" 
	d="
M523.209473,303.685333 
	C519.297180,303.990479 515.604126,303.990295 511.449188,303.978394 
	C509.032593,299.111511 504.549591,296.142609 501.970276,291.665955 
	C497.636871,284.144897 495.750610,276.126007 495.680450,267.599731 
	C495.627930,261.217468 497.427673,255.299194 499.925476,249.393600 
	C506.107880,234.776337 518.070923,228.640076 532.651245,226.005783 
	C545.601501,223.666016 556.681152,228.101578 566.944946,235.523285 
	C568.269897,236.481354 569.819763,237.128433 571.617188,237.953735 
	C571.977417,241.350830 571.985840,244.713776 571.993469,248.534363 
	C569.583618,250.452835 568.309204,248.429245 566.912720,247.201141 
	C564.295837,244.899780 561.989624,242.266678 559.242615,240.086639 
	C546.594238,230.048904 531.359375,229.913284 518.306946,239.353653 
	C510.038055,245.334198 505.276337,253.239273 503.171387,263.077271 
	C500.832336,274.009399 504.799225,282.979309 511.564026,291.081604 
	C514.007629,294.008362 516.900269,296.536011 519.959595,298.863770 
	C521.479309,300.020172 523.489197,300.948517 523.209473,303.685333 
z"/>
<path fill="#FCE4E7" opacity="1.000000" stroke="none" 
	d="
M523.459900,303.993896 
	C520.434937,299.350586 515.514771,297.216919 511.931213,293.621674 
	C495.849060,277.486969 498.645935,253.830139 515.400208,240.003616 
	C527.332214,230.156647 540.141785,228.313995 554.145935,234.907913 
	C557.784851,236.621307 560.547241,239.495056 563.556091,242.044785 
	C566.192566,244.279007 567.992615,247.454773 571.649170,248.958527 
	C571.994080,260.017792 571.995422,271.043579 571.994751,282.538452 
	C566.288025,291.801575 559.390137,299.287415 549.261658,303.751587 
	C540.648071,303.994171 532.288818,303.995667 523.459900,303.993896 
z"/>
<path fill="#F2F2F2" opacity="1.000000" stroke="none" 
	d="
M549.472717,303.994324 
	C549.072388,302.891357 549.657837,302.205170 550.632629,301.707092 
	C558.627136,297.622070 564.965271,291.751709 569.650574,284.079285 
	C569.947571,283.593018 570.738281,283.408203 571.645996,283.045349 
	C571.994263,285.999573 572.109436,288.996643 571.974609,291.982452 
	C571.658386,298.987701 566.422485,303.947968 559.412659,303.996796 
	C556.254578,304.018799 553.096313,303.997589 549.472717,303.994324 
z"/>
<path fill="#FFFFFF" opacity="1.000000" stroke="none" 
	d="
M338.274292,261.593445 
	C343.152496,247.810867 358.393982,245.063065 368.341095,251.053207 
	C374.997345,255.061584 379.549988,264.475647 377.718964,272.329559 
	C374.089478,287.897552 356.899872,294.311859 344.290985,284.411957 
	C338.571716,279.921448 334.844086,272.054016 338.274292,261.593445 
z"/>
<path fill="#F2F2F2" opacity="1.000000" stroke="none" 
	d="
M166.811707,296.383240 
	C159.384125,292.804047 153.511246,287.701050 149.694382,281.040009 
	C142.314133,268.160126 147.481873,253.941071 158.504120,245.292572 
	C167.856567,237.954269 178.213226,234.868759 188.848175,241.629761 
	C198.383469,247.691666 206.779922,255.686966 206.612656,268.133362 
	C206.496719,276.761353 202.779602,284.710724 195.892288,290.319000 
	C190.933517,294.356903 185.480026,297.519073 178.677948,298.514679 
	C174.274704,299.159119 170.940384,297.411316 166.811707,296.383240 
z"/>
<path fill="#FFFFFF" opacity="1.000000" stroke="none" 
	d="
M526.715210,251.613022 
	C537.108704,244.917816 549.264343,247.394318 555.786255,257.269501 
	C561.845093,266.443512 559.541504,279.080048 550.708313,285.124634 
	C541.265015,291.586700 528.295288,289.853333 522.193115,281.313629 
	C514.998474,271.245056 516.763367,258.887970 526.715210,251.613022 
z"/>
<path fill="#F66074" opacity="1.000000" stroke="none" 
	d="
M367.062256,275.418610 
	C361.967529,277.277863 356.966461,276.325897 352.032501,276.340393 
	C349.339569,276.348297 348.634644,274.451019 349.933655,272.164368 
	C351.903656,268.696564 353.983337,265.287933 356.114227,261.916016 
	C357.159851,260.261444 359.045990,259.425568 360.158447,261.282959 
	C362.820129,265.726898 366.805756,269.545258 367.062256,275.418610 
z"/>
<path fill="#FFFFFF" opacity="1.000000" stroke="none" 
	d="
M195.969330,274.632019 
	C191.099899,289.581757 175.929504,292.030792 165.432159,285.815277 
	C158.288666,281.585602 154.113876,272.079865 156.379074,263.385773 
	C158.741180,254.319702 166.479691,248.102280 175.521164,248.006180 
	C186.115097,247.893600 193.780914,253.322235 196.426941,262.967285 
	C197.456558,266.720367 197.409790,270.521820 195.969330,274.632019 
z"/>
<path fill="#F66074" opacity="1.000000" stroke="none" 
	d="
M529.669495,265.071777 
	C532.432678,259.829102 536.351746,258.114685 541.758301,259.494873 
	C545.801819,260.527130 548.040649,263.257263 548.780945,267.053162 
	C549.671448,271.619507 547.730042,275.238586 543.790039,277.610870 
	C540.328674,279.695007 536.734375,279.491699 533.435547,277.221649 
	C529.228821,274.326813 527.932068,270.324738 529.669495,265.071777 
z"/>
<path fill="#57D282" opacity="1.000000" stroke="none" 
	d="
M166.974731,266.550659 
	C170.134415,260.380341 173.525726,257.977325 178.229828,259.016663 
	C182.585846,259.979126 186.093521,262.346130 186.896271,267.241852 
	C187.804977,272.783783 183.946533,278.118774 178.539337,278.906647 
	C172.788239,279.744629 167.593033,275.747040 166.937149,269.935944 
	C166.826050,268.951569 166.909241,267.945251 166.974731,266.550659 
z"/>
<path fill="#ECECEC" opacity="1.000000" stroke="none" 
	d="
M182.314850,265.547577 
	C181.611771,268.620483 179.249512,270.407257 177.090057,271.968170 
	C173.823334,274.329468 173.315018,271.086884 172.215622,268.573212 
	C177.520996,272.549133 178.617935,265.780487 182.314850,265.547577 
z"/>
</svg>