<svg version="1.1" id="Layer_1" xmlns="http://www.w3.org/2000/svg" xmlns:xlink="http://www.w3.org/1999/xlink" x="0px" y="0px"
	 width="100%" viewBox="0 0 608 402" enable-background="new 0 0 608 402" xml:space="preserve">
<path fill="#F7F7FA" opacity="1.000000" stroke="none" 
	d="
M1.000000,402.000000 
	C1.000000,275.310699 1.000000,148.621384 1.331996,21.417660 
	C2.157667,19.255911 2.651343,17.608583 3.183119,15.616357 
	C4.529657,13.493676 5.838095,11.715897 7.465977,9.922661 
	C8.502748,8.985837 9.220076,8.064469 10.101364,6.833153 
	C12.236233,5.327637 14.207140,4.132069 16.303076,2.928185 
	C16.708353,2.800401 16.793829,2.605160 16.775227,1.866266 
	C16.577280,1.265593 16.288641,1.132797 16.000000,1.000000 
	C206.689285,1.000000 397.378571,1.000000 588.582458,1.331969 
	C590.744385,2.157342 592.391724,2.650746 594.383972,3.182215 
	C596.506836,4.528270 598.284790,5.836259 600.078247,7.463788 
	C601.014954,8.500557 601.936279,9.217787 603.167114,10.100646 
	C604.679810,12.239514 605.882996,14.212754 607.131836,16.353020 
	C607.295898,16.727873 607.461426,16.886711 607.718933,17.321358 
	C607.791504,18.082241 607.819153,18.518335 607.652710,19.159533 
	C607.972412,19.909760 608.486206,20.454884 609.000000,21.000004 
	C609.000000,147.689316 609.000000,274.378632 608.777893,401.637451 
	C608.288818,402.414062 608.103577,402.678406 608.000000,403.000000 
	C509.310699,403.000000 410.621368,403.000000 311.420776,402.620026 
	C309.388672,396.746674 310.517609,394.972992 315.964081,395.053986 
	C319.924072,395.112885 323.880707,395.982544 327.831726,395.932281 
	C335.396912,395.836060 342.956543,395.100677 350.519409,395.085388 
	C357.305878,395.071686 364.096741,395.912384 370.878601,395.825592 
	C372.590607,395.803680 375.152252,394.024719 375.777100,392.442535 
	C376.832886,389.769012 376.503906,386.580414 377.043030,383.661194 
	C377.486328,381.261200 375.145630,377.670746 379.767090,376.870544 
	C382.513702,376.394958 385.530609,374.695770 387.895477,375.380096 
	C392.810974,376.802521 395.779602,374.802673 398.887634,371.660583 
	C410.132812,360.292206 421.572235,349.114288 432.710907,337.643677 
	C435.164062,335.117432 437.071014,331.856232 438.508057,328.613770 
	C439.615753,326.114319 440.750793,324.984619 443.550720,324.933716 
	C449.343140,324.828339 455.124664,324.215454 460.917664,324.033569 
	C474.149353,323.618073 487.384064,323.271698 500.619904,323.025360 
	C508.112946,322.885925 515.614502,323.144409 523.104980,322.948242 
	C527.986145,322.820374 532.222107,321.214233 534.150757,315.644989 
	C534.543945,313.530670 534.783997,311.766479 535.415283,309.903992 
	C535.871521,301.204193 535.936523,292.602692 536.000488,283.667480 
	C536.000488,282.888763 536.001465,282.443756 536.251953,281.796997 
	C536.006592,280.729401 535.511841,279.863586 535.013062,278.664734 
	C535.008484,277.887634 535.007874,277.443542 535.248230,276.797546 
	C534.043335,270.572876 527.645203,266.188354 521.715210,266.512848 
	C517.347534,266.751862 512.934998,266.168701 508.542450,265.951904 
	C509.102783,264.389557 509.757019,263.817566 510.432129,263.791718 
	C513.466309,263.675598 516.548035,264.025909 519.534668,263.625824 
	C524.182983,263.003113 529.753357,264.065674 532.369019,257.958679 
	C533.833618,256.206482 535.788452,254.553284 535.895752,252.787827 
	C536.507507,242.721451 536.783386,232.630203 536.966980,222.543655 
	C537.114319,214.454056 533.027771,209.207077 525.307007,206.869965 
	C524.224365,206.542252 523.282471,205.749374 522.422974,205.256439 
	C524.560730,203.625336 526.280396,202.313278 528.257690,200.891235 
	C529.010254,200.520813 529.505127,200.260406 530.376099,199.994034 
	C531.834839,198.658340 532.917419,197.328613 534.178406,195.655640 
	C534.902954,193.637161 535.897217,191.968430 535.921753,190.285568 
	C536.069519,180.155289 536.068054,170.020706 535.922546,159.890366 
	C535.898438,158.214996 535.195801,156.391525 534.332275,154.913849 
	C530.896973,149.035538 525.364868,147.529129 518.945312,147.661591 
	C517.897766,146.638046 516.904907,145.949844 515.911987,145.261627 
	C516.104980,144.773361 516.297974,144.285080 516.490967,143.796814 
	C518.302979,143.682846 520.187988,143.840912 521.906860,143.379745 
	C523.689209,142.901566 525.310608,141.823578 527.347412,140.967224 
	C531.579590,138.528870 535.328979,135.710220 535.479736,130.788605 
	C535.798706,120.369820 536.035278,109.915077 535.489380,99.517937 
	C535.233337,94.641441 531.966003,90.786812 526.905518,88.596954 
	C525.636292,87.802742 524.470337,87.072273 523.290955,87.050064 
	C502.001038,86.649071 480.705078,86.497322 459.420471,85.920738 
	C450.660919,85.683449 441.925140,84.569931 433.178375,83.857330 
	C427.285583,83.377243 422.679626,80.841507 418.661011,76.334030 
	C413.027435,70.015114 406.985565,64.006691 400.648834,58.395676 
	C398.254578,56.275600 394.638824,54.857555 391.426575,54.501160 
	C386.874969,53.996174 382.177429,54.708694 377.549988,55.017296 
	C373.991577,55.254604 372.707214,53.535580 372.998047,50.208210 
	C373.343903,46.251507 373.596588,42.285294 374.018738,38.337002 
	C374.471313,34.104542 372.582275,32.756878 368.497864,32.961037 
	C358.548767,33.458336 348.579926,33.558681 338.630432,34.050190 
	C334.016418,34.278118 330.523468,32.936184 327.007385,29.709223 
	C316.621857,20.177755 303.752106,18.228357 291.405548,30.583076 
	C290.589691,31.399452 287.221558,31.071198 286.229950,30.082500 
	C278.620300,22.494997 264.089966,18.215712 253.808395,27.337404 
	C250.506973,30.266399 246.084671,33.423904 241.996155,33.686172 
	C230.973450,34.393250 219.835693,33.906811 208.782806,33.242229 
	C204.487213,32.983944 203.795029,34.670834 204.017303,37.999920 
	C204.281860,41.962044 204.748062,45.911598 204.969971,49.875385 
	C205.149399,53.080742 203.584854,54.948715 200.260849,54.978111 
	C196.095352,55.014950 191.812134,55.570637 187.791550,54.798908 
	C182.298370,53.744522 178.991119,56.178242 176.904205,60.450672 
	C174.075821,66.241028 171.339493,72.183411 169.579559,78.350487 
	C168.431244,82.374268 166.571976,83.109123 162.939926,83.069427 
	C154.178497,82.973671 145.395203,82.922737 136.653152,83.421768 
	C119.178886,84.419266 101.721550,85.733971 84.267426,87.052711 
	C78.112732,87.517738 72.135307,93.990616 72.039253,100.256508 
	C71.894821,109.678513 72.042755,119.104599 71.983917,128.528442 
	C71.940697,135.451309 75.063080,140.212250 81.370697,142.998047 
	C82.287231,143.402863 83.037186,144.184814 82.917862,144.097168 
	C79.741638,147.981659 76.871521,151.491791 74.000702,155.000946 
	C74.000000,155.000000 74.002434,155.001221 73.679886,155.047485 
	C73.237595,156.062317 73.117844,157.030869 72.998001,158.460052 
	C72.991196,162.612534 72.984474,166.304428 72.684616,170.039124 
	C72.592781,170.721649 72.794083,171.361359 72.998543,172.375946 
	C72.999435,173.500610 72.997169,174.250397 72.625755,175.079971 
	C71.841454,175.980255 71.006920,176.839264 71.078156,177.615112 
	C71.602142,183.322983 72.051804,189.062546 73.115128,194.680435 
	C73.422844,196.306198 75.655220,197.567657 77.002625,198.998077 
	C77.000000,199.000000 77.003693,198.994690 77.058395,199.337967 
	C78.075401,200.120834 79.037704,200.560410 80.000000,201.000000 
	C80.000000,201.000000 79.999695,201.000000 80.061371,201.354736 
	C81.915184,202.847229 83.707329,203.985001 86.240372,205.593155 
	C76.530800,206.708252 71.693123,212.507797 71.213799,220.801590 
	C70.661575,230.356537 71.635750,240.004578 72.100464,249.604767 
	C72.140556,250.432922 73.328285,251.205536 73.988541,252.336578 
	C73.994614,253.112823 73.995064,253.556427 73.753960,254.201599 
	C74.021736,261.170929 80.385498,261.910217 85.270287,265.141724 
	C83.121803,265.962646 81.598717,266.434662 80.171745,267.109802 
	C75.314194,269.408020 72.200111,273.209198 72.070343,278.617981 
	C71.828751,288.687622 71.844292,298.770508 72.052910,308.841675 
	C72.223999,317.100769 78.543068,322.762604 86.818161,323.038818 
	C102.842934,323.573761 118.859039,324.364014 134.881271,324.982635 
	C138.716705,325.130707 140.172104,326.971161 139.909622,330.728607 
	C139.494217,336.674835 139.307663,342.636841 138.997360,348.590759 
	C138.788635,352.595825 141.210297,353.938934 144.624557,353.850983 
	C148.507156,353.750977 152.405365,352.907501 156.249207,353.147980 
	C158.639923,353.297546 161.453049,354.298706 163.191467,355.886658 
	C169.087906,361.272766 174.412933,367.287048 180.342743,372.632599 
	C182.322937,374.417725 185.440872,375.782318 188.079315,375.854492 
	C201.786346,376.229279 201.923294,376.062134 201.928772,389.635498 
	C201.930695,394.419159 203.817245,396.129425 208.494308,396.073700 
	C215.124329,395.994720 221.773346,396.232330 228.391052,396.678558 
	C239.688873,397.440338 250.957672,398.701630 262.263123,399.236389 
	C265.428741,399.386169 265.973389,400.530029 266.000000,403.000000 
	C178.310699,403.000000 90.621391,403.000000 2.357692,402.780212 
	C1.592098,402.275909 1.330997,402.089111 1.000000,402.000000 
z"/>
<path fill="#F3F4FA" opacity="1.000000" stroke="none" 
	d="
M266.468658,403.000000 
	C265.973389,400.530029 265.428741,399.386169 262.263123,399.236389 
	C250.957672,398.701630 239.688873,397.440338 228.391052,396.678558 
	C221.773346,396.232330 215.124329,395.994720 208.494308,396.073700 
	C203.817245,396.129425 201.930695,394.419159 201.928772,389.635498 
	C201.923294,376.062134 201.786346,376.229279 188.079315,375.854492 
	C185.440872,375.782318 182.322937,374.417725 180.342743,372.632599 
	C174.412933,367.287048 169.087906,361.272766 163.191467,355.886658 
	C161.453049,354.298706 158.639923,353.297546 156.249207,353.147980 
	C152.405365,352.907501 148.507156,353.750977 144.624557,353.850983 
	C141.210297,353.938934 138.788635,352.595825 138.997360,348.590759 
	C139.307663,342.636841 139.494217,336.674835 139.909622,330.728607 
	C140.172104,326.971161 138.716705,325.130707 134.881271,324.982635 
	C118.859039,324.364014 102.842934,323.573761 86.818161,323.038818 
	C78.543068,322.762604 72.223999,317.100769 72.052910,308.841675 
	C71.844292,298.770508 71.828751,288.687622 72.070343,278.617981 
	C72.200111,273.209198 75.314194,269.408020 80.171745,267.109802 
	C81.598717,266.434662 83.121803,265.962646 85.270287,265.141724 
	C80.385498,261.910217 74.021736,261.170929 74.024330,254.397705 
	C77.325447,256.584442 79.821274,259.870483 82.971809,260.715485 
	C87.836380,262.020233 93.148132,261.936981 98.271606,261.951569 
	C130.517151,262.043243 162.763428,262.095825 195.008804,261.980591 
	C270.435577,261.710999 345.861816,261.300049 421.288574,261.027893 
	C452.774506,260.914307 484.261200,260.982025 515.747437,261.031281 
	C521.383545,261.040100 527.037964,261.463867 532.000000,258.000061 
	C532.000000,258.000153 532.006042,258.005829 532.006042,258.005829 
	C529.753357,264.065674 524.182983,263.003113 519.534668,263.625824 
	C516.548035,264.025909 513.466309,263.675598 510.432129,263.791718 
	C509.757019,263.817566 509.102783,264.389557 508.542450,265.951904 
	C512.934998,266.168701 517.347534,266.751862 521.715210,266.512848 
	C527.645203,266.188354 534.043335,270.572876 534.979370,276.602509 
	C531.005188,271.092560 526.351562,268.835114 519.523193,268.852570 
	C436.070496,269.066040 352.617035,268.987457 269.163788,268.987000 
	C208.531082,268.986664 147.898376,268.986023 87.265663,268.996063 
	C78.542145,268.997498 74.018326,273.485992 73.997292,282.127228 
	C73.976616,290.622437 73.898567,299.119812 74.083496,307.611023 
	C74.115616,309.085785 75.328117,310.534821 76.035812,312.343994 
	C78.052986,314.797241 80.029762,316.902283 82.099335,319.401855 
	C83.863091,320.199768 85.533279,320.951202 87.205132,320.954926 
	C118.817184,321.025543 150.429840,320.914368 182.041443,321.053741 
	C195.001724,321.110870 207.958145,321.821381 220.919281,321.960541 
	C236.426727,322.127045 251.937302,322.000458 267.446533,322.000275 
	C293.239410,322.000000 319.032593,322.073578 344.824921,321.953400 
	C352.543091,321.917419 360.256073,321.176788 367.976196,321.050140 
	C378.057373,320.884796 388.143341,321.008881 398.227234,321.008545 
	C412.672974,321.008087 427.118713,321.007629 441.564453,321.007324 
	C464.064178,321.006866 486.564026,321.044281 509.063599,320.987213 
	C517.682922,320.965332 526.713684,322.777771 533.997559,315.995117 
	C532.222107,321.214233 527.986145,322.820374 523.104980,322.948242 
	C515.614502,323.144409 508.112946,322.885925 500.619904,323.025360 
	C487.384064,323.271698 474.149353,323.618073 460.917664,324.033569 
	C455.124664,324.215454 449.343140,324.828339 443.550720,324.933716 
	C440.750793,324.984619 439.615753,326.114319 438.508057,328.613770 
	C437.071014,331.856232 435.164062,335.117432 432.710907,337.643677 
	C421.572235,349.114288 410.132812,360.292206 398.887634,371.660583 
	C395.779602,374.802673 392.810974,376.802521 387.895477,375.380096 
	C385.530609,374.695770 382.513702,376.394958 379.767090,376.870544 
	C375.145630,377.670746 377.486328,381.261200 377.043030,383.661194 
	C376.503906,386.580414 376.832886,389.769012 375.777100,392.442535 
	C375.152252,394.024719 372.590607,395.803680 370.878601,395.825592 
	C364.096741,395.912384 357.305878,395.071686 350.519409,395.085388 
	C342.956543,395.100677 335.396912,395.836060 327.831726,395.932281 
	C323.880707,395.982544 319.924072,395.112885 315.964081,395.053986 
	C310.517609,394.972992 309.388672,396.746674 310.954773,402.620026 
	C296.312439,403.000000 281.624878,403.000000 266.468658,403.000000 
z"/>
<path fill="#4359E4" opacity="1.000000" stroke="none" 
	d="
M600.062744,7.144248 
	C598.284790,5.836259 596.506836,4.528270 594.218994,2.784125 
	C593.806030,1.898650 593.903015,1.449329 594.000000,1.000005 
	C598.932373,1.000000 603.864807,1.000000 609.000000,1.000000 
	C609.000000,6.685756 609.000000,12.373170 608.709351,18.578934 
	C608.227966,19.049664 608.037354,19.002047 607.846802,18.954430 
	C607.819153,18.518335 607.791504,18.082241 607.748657,17.118029 
	C607.622009,16.288134 607.406189,16.153494 607.086182,16.185991 
	C605.882996,14.212754 604.679810,12.239514 603.143311,9.779025 
	C601.894226,8.575933 600.978516,7.860089 600.062744,7.144248 
z"/>
<path fill="#4359E4" opacity="1.000000" stroke="none" 
	d="
M15.527336,1.000000 
	C16.288641,1.132797 16.577280,1.265593 16.575489,1.954028 
	C16.285055,2.509666 16.178047,2.936501 16.178047,2.936502 
	C14.207140,4.132069 12.236233,5.327637 9.779438,6.856437 
	C8.577878,8.105818 7.862205,9.021968 7.146533,9.938117 
	C5.838095,11.715897 4.529657,13.493676 2.784820,15.781269 
	C1.898948,16.194056 1.449474,16.097029 1.000000,16.000000 
	C1.000000,11.075478 1.000000,6.150956 1.000000,1.000000 
	C5.683317,1.000000 10.368995,1.000000 15.527336,1.000000 
z"/>
<path fill="#EAEAEA" opacity="1.000000" stroke="none" 
	d="
M1.000000,16.416666 
	C1.449474,16.097029 1.898948,16.194056 2.746721,16.126171 
	C2.651343,17.608583 2.157667,19.255911 1.331996,20.951618 
	C1.000000,19.611111 1.000000,18.222221 1.000000,16.416666 
z"/>
<path fill="#EAEAEA" opacity="1.000000" stroke="none" 
	d="
M593.583374,1.000005 
	C593.903015,1.449329 593.806030,1.898650 593.874023,2.746060 
	C592.391724,2.650746 590.744385,2.157342 589.048523,1.331969 
	C590.388916,1.000000 591.777771,1.000000 593.583374,1.000005 
z"/>
<path fill="#EAEAEA" opacity="1.000000" stroke="none" 
	d="
M607.652710,19.159534 
	C608.037354,19.002047 608.227966,19.049664 608.709351,19.048641 
	C609.000000,19.444445 609.000000,19.888889 609.000000,20.666672 
	C608.486206,20.454884 607.972412,19.909760 607.652710,19.159534 
z"/>
<path fill="#EAEAEA" opacity="1.000000" stroke="none" 
	d="
M1.000000,402.500000 
	C1.330997,402.089111 1.592098,402.275909 1.891651,402.780212 
	C1.666667,403.000000 1.333333,403.000000 1.000000,402.500000 
z"/>
<path fill="#EAEAEA" opacity="1.000000" stroke="none" 
	d="
M608.500000,403.000000 
	C608.103577,402.678406 608.288818,402.414062 608.777893,402.103516 
	C609.000000,402.333344 609.000000,402.666656 608.500000,403.000000 
z"/>
<path fill="#F3F4FA" opacity="1.000000" stroke="none" 
	d="
M74.001404,155.001907 
	C76.871521,151.491791 79.741638,147.981659 82.917862,144.097168 
	C83.037186,144.184814 82.287231,143.402863 81.370697,142.998047 
	C75.063080,140.212250 71.940697,135.451309 71.983917,128.528442 
	C72.042755,119.104599 71.894821,109.678513 72.039253,100.256508 
	C72.135307,93.990616 78.112732,87.517738 84.267426,87.052711 
	C101.721550,85.733971 119.178886,84.419266 136.653152,83.421768 
	C145.395203,82.922737 154.178497,82.973671 162.939926,83.069427 
	C166.571976,83.109123 168.431244,82.374268 169.579559,78.350487 
	C171.339493,72.183411 174.075821,66.241028 176.904205,60.450672 
	C178.991119,56.178242 182.298370,53.744522 187.791550,54.798908 
	C191.812134,55.570637 196.095352,55.014950 200.260849,54.978111 
	C203.584854,54.948715 205.149399,53.080742 204.969971,49.875385 
	C204.748062,45.911598 204.281860,41.962044 204.017303,37.999920 
	C203.795029,34.670834 204.487213,32.983944 208.782806,33.242229 
	C219.835693,33.906811 230.973450,34.393250 241.996155,33.686172 
	C246.084671,33.423904 250.506973,30.266399 253.808395,27.337404 
	C264.089966,18.215712 278.620300,22.494997 286.229950,30.082500 
	C287.221558,31.071198 290.589691,31.399452 291.405548,30.583076 
	C303.752106,18.228357 316.621857,20.177755 327.007385,29.709223 
	C330.523468,32.936184 334.016418,34.278118 338.630432,34.050190 
	C348.579926,33.558681 358.548767,33.458336 368.497864,32.961037 
	C372.582275,32.756878 374.471313,34.104542 374.018738,38.337002 
	C373.596588,42.285294 373.343903,46.251507 372.998047,50.208210 
	C372.707214,53.535580 373.991577,55.254604 377.549988,55.017296 
	C382.177429,54.708694 386.874969,53.996174 391.426575,54.501160 
	C394.638824,54.857555 398.254578,56.275600 400.648834,58.395676 
	C406.985565,64.006691 413.027435,70.015114 418.661011,76.334030 
	C422.679626,80.841507 427.285583,83.377243 433.178375,83.857330 
	C441.925140,84.569931 450.660919,85.683449 459.420471,85.920738 
	C480.705078,86.497322 502.001038,86.649071 523.290955,87.050064 
	C524.470337,87.072273 525.636292,87.802742 526.436523,88.599663 
	C380.267792,88.994743 234.471024,88.993706 88.674248,88.992744 
	C87.674500,88.992744 86.673866,88.966812 85.675140,88.999115 
	C79.977684,89.183380 74.091339,94.853065 74.026566,100.506660 
	C73.915848,110.169632 73.918312,119.835670 74.026100,129.498718 
	C74.092987,135.495712 79.553452,140.942780 85.570740,140.983734 
	C139.864792,141.353180 194.159149,141.677475 248.453568,141.990921 
	C258.568939,142.049316 268.684937,142.021759 278.800568,141.995316 
	C293.467285,141.956985 308.134918,141.969055 322.800293,141.798691 
	C335.123169,141.655563 347.442261,141.189346 359.765106,141.039062 
	C370.687286,140.905869 381.612335,141.010574 392.536133,141.010361 
	C437.358246,141.009521 482.180328,141.008743 527.002441,141.007935 
	C525.310608,141.823578 523.689209,142.901566 521.906860,143.379745 
	C520.187988,143.840912 518.302979,143.682846 516.490967,143.796814 
	C516.297974,144.285080 516.104980,144.773361 515.911987,145.261627 
	C516.904907,145.949844 517.897766,146.638046 518.518433,147.665649 
	C511.899078,148.004318 505.651886,148.003067 499.404663,148.002960 
	C483.518097,148.002716 467.631378,147.963623 451.744965,148.009369 
	C341.497284,148.326828 231.249680,148.664169 121.002045,148.987549 
	C111.171173,149.016388 101.319473,149.380188 91.516197,148.859283 
	C84.595505,148.491562 78.751381,149.835190 74.001404,155.001907 
M508.407043,145.195999 
	C508.791016,145.200317 509.175018,145.204636 509.558960,145.208954 
	C509.560608,145.049637 509.572998,144.751846 509.562317,144.751007 
	C509.180267,144.721313 508.796021,144.719376 508.407043,145.195999 
z"/>
<path fill="#EAEAEA" opacity="1.000000" stroke="none" 
	d="
M74.000702,155.000946 
	C78.751381,149.835190 84.595505,148.491562 91.516197,148.859283 
	C101.319473,149.380188 111.171173,149.016388 121.002045,148.987549 
	C231.249680,148.664169 341.497284,148.326828 451.744965,148.009369 
	C467.631378,147.963623 483.518097,148.002716 499.404663,148.002960 
	C505.651886,148.003067 511.899078,148.004318 518.573120,148.000992 
	C525.364868,147.529129 530.896973,149.035538 534.332275,154.913849 
	C535.195801,156.391525 535.898438,158.214996 535.922546,159.890366 
	C536.068054,170.020706 536.069519,180.155289 535.921753,190.285568 
	C535.897217,191.968430 534.902954,193.637161 533.891052,195.793945 
	C532.283508,197.516983 531.141724,198.758484 530.000000,199.999985 
	C529.505127,200.260406 529.010254,200.520813 527.834839,200.901215 
	C524.198914,201.346573 521.243591,201.955597 518.288025,201.956573 
	C377.480072,202.003357 236.672104,202.008316 95.864151,201.955475 
	C90.575882,201.953491 85.287842,201.332520 79.999695,201.000000 
	C79.999695,201.000000 80.000000,201.000000 79.857040,200.712463 
	C78.810608,199.948181 77.907150,199.471436 77.003693,198.994690 
	C77.003693,198.994690 77.000000,199.000000 76.960205,198.627441 
	C73.786369,193.987732 73.872879,189.093460 73.925926,184.112518 
	C73.958244,181.078720 73.327698,178.037872 72.994904,175.000183 
	C72.997169,174.250397 72.999435,173.500610 72.998573,172.041809 
	C72.989548,170.887299 72.983650,170.441803 72.977753,169.996307 
	C72.984474,166.304428 72.991196,162.612534 73.257645,158.251770 
	C73.679054,156.722336 73.840744,155.861771 74.002434,155.001221 
	C74.002434,155.001221 74.000000,155.000000 74.000702,155.000946 
M127.500000,151.016464 
	C114.501839,151.016296 101.503571,150.985214 88.505547,151.027008 
	C80.059105,151.054153 76.063194,155.122070 76.022064,163.652649 
	C75.988319,170.651505 76.013916,177.650681 76.016045,184.649704 
	C76.019394,195.630234 79.358078,198.983627 90.305389,198.983673 
	C193.624405,198.984131 296.943420,198.982224 400.262451,198.981995 
	C440.090271,198.981903 479.918091,198.990005 519.745911,198.981461 
	C529.225708,198.979431 532.967285,195.178543 532.983154,185.598709 
	C532.994202,178.932983 532.986328,172.267212 532.985168,165.601471 
	C532.983215,154.279770 529.731750,151.015778 518.445984,151.015762 
	C388.463989,151.015488 258.481995,151.016068 127.500000,151.016464 
z"/>
<path fill="#F3F4FA" opacity="1.000000" stroke="none" 
	d="
M80.061371,201.354736 
	C85.287842,201.332520 90.575882,201.953491 95.864151,201.955475 
	C236.672104,202.008316 377.480072,202.003357 518.288025,201.956573 
	C521.243591,201.955597 524.198914,201.346573 527.577148,201.011200 
	C526.280396,202.313278 524.560730,203.625336 522.422974,205.256439 
	C523.282471,205.749374 524.224365,206.542252 525.307007,206.869965 
	C533.027771,209.207077 537.114319,214.454056 536.966980,222.543655 
	C536.783386,232.630203 536.507507,242.721451 535.895752,252.787827 
	C535.788452,254.553284 533.833618,256.206482 532.369019,257.958679 
	C532.006042,258.005829 532.000000,258.000153 532.045715,257.630432 
	C533.063416,253.480011 534.642517,249.736526 534.877258,245.910553 
	C535.325317,238.605850 535.008362,231.254181 535.007080,223.921997 
	C535.005249,213.784668 529.245544,208.025620 519.000488,208.010788 
	C501.244202,207.985077 483.487885,208.003418 465.731567,208.003006 
	C448.029205,208.002594 430.326874,208.001602 412.624512,208.001251 
	C367.019623,208.000320 321.414764,207.999390 275.809875,207.998871 
	C252.561859,207.998611 229.313828,207.998901 206.065811,207.999512 
	C170.404770,208.000443 134.743729,207.993439 99.082695,208.019348 
	C96.291077,208.021378 93.460693,208.614685 90.714897,208.317734 
	C79.426430,207.096878 72.906380,212.691895 73.040932,224.132782 
	C73.150215,233.425583 73.654053,242.713730 73.982903,252.003952 
	C73.328285,251.205536 72.140556,250.432922 72.100464,249.604767 
	C71.635750,240.004578 70.661575,230.356537 71.213799,220.801590 
	C71.693123,212.507797 76.530800,206.708252 86.240372,205.593155 
	C83.707329,203.985001 81.915184,202.847229 80.061371,201.354736 
z"/>
<path fill="#EAEAEA" opacity="1.000000" stroke="none" 
	d="
M73.988541,252.336578 
	C73.654053,242.713730 73.150215,233.425583 73.040932,224.132782 
	C72.906380,212.691895 79.426430,207.096878 90.714897,208.317734 
	C93.460693,208.614685 96.291077,208.021378 99.082695,208.019348 
	C134.743729,207.993439 170.404770,208.000443 206.065811,207.999512 
	C229.313828,207.998901 252.561859,207.998611 275.809875,207.998871 
	C321.414764,207.999390 367.019623,208.000320 412.624512,208.001251 
	C430.326874,208.001602 448.029205,208.002594 465.731567,208.003006 
	C483.487885,208.003418 501.244202,207.985077 519.000488,208.010788 
	C529.245544,208.025620 535.005249,213.784668 535.007080,223.921997 
	C535.008362,231.254181 535.325317,238.605850 534.877258,245.910553 
	C534.642517,249.736526 533.063416,253.480011 532.045715,257.630371 
	C527.037964,261.463867 521.383545,261.040100 515.747437,261.031281 
	C484.261200,260.982025 452.774506,260.914307 421.288574,261.027893 
	C345.861816,261.300049 270.435577,261.710999 195.008804,261.980591 
	C162.763428,262.095825 130.517151,262.043243 98.271606,261.951569 
	C93.148132,261.936981 87.836380,262.020233 82.971809,260.715485 
	C79.821274,259.870483 77.325447,256.584442 74.265877,254.196136 
	C73.995064,253.556427 73.994614,253.112823 73.988541,252.336578 
M117.500000,258.984253 
	C163.994965,258.982971 210.489929,258.980316 256.984894,258.980743 
	C344.975311,258.981506 432.965698,258.986694 520.956116,258.981262 
	C528.884399,258.980774 532.960144,254.918335 532.981079,247.039413 
	C533.001038,239.540283 532.985779,232.041061 532.985229,224.541870 
	C532.984375,214.505569 529.515625,211.014709 519.536377,211.014694 
	C376.218658,211.014618 232.900970,211.015152 89.583260,211.015579 
	C88.416718,211.015594 87.247620,210.965927 86.084084,211.025238 
	C80.766617,211.296310 76.158821,215.642700 76.063431,220.924576 
	C75.900963,229.920654 75.885818,238.924362 76.061188,247.919952 
	C76.195465,254.807770 80.633286,258.950348 87.503189,258.975616 
	C97.168671,259.011200 106.834389,258.984406 117.500000,258.984253 
z"/>
<path fill="#EAEAEA" opacity="1.000000" stroke="none" 
	d="
M527.347412,140.967224 
	C482.180328,141.008743 437.358246,141.009521 392.536133,141.010361 
	C381.612335,141.010574 370.687286,140.905869 359.765106,141.039062 
	C347.442261,141.189346 335.123169,141.655563 322.800293,141.798691 
	C308.134918,141.969055 293.467285,141.956985 278.800568,141.995316 
	C268.684937,142.021759 258.568939,142.049316 248.453568,141.990921 
	C194.159149,141.677475 139.864792,141.353180 85.570740,140.983734 
	C79.553452,140.942780 74.092987,135.495712 74.026100,129.498718 
	C73.918312,119.835670 73.915848,110.169632 74.026566,100.506660 
	C74.091339,94.853065 79.977684,89.183380 85.675140,88.999115 
	C86.673866,88.966812 87.674500,88.992744 88.674248,88.992744 
	C234.471024,88.993706 380.267792,88.994743 526.533508,88.993057 
	C531.966003,90.786812 535.233337,94.641441 535.489380,99.517937 
	C536.035278,109.915077 535.798706,120.369820 535.479736,130.788605 
	C535.328979,135.710220 531.579590,138.528870 527.347412,140.967224 
M396.500000,138.982544 
	C437.998749,138.983368 479.497467,138.990097 520.996216,138.979813 
	C528.918152,138.977844 532.964294,134.916168 532.983459,126.998093 
	C533.002014,119.331688 532.989868,111.665207 532.987183,103.998756 
	C532.984009,94.678917 529.322388,91.015953 519.992310,91.015717 
	C468.327118,91.014420 416.661896,91.017334 364.996704,91.017151 
	C272.832672,91.016823 180.668610,91.013969 88.504570,91.016464 
	C79.865677,91.016701 76.025879,94.864532 76.016060,103.502647 
	C76.007713,110.835762 76.013847,118.168900 76.014191,125.502022 
	C76.014656,135.512802 79.487534,138.984222 89.508705,138.984207 
	C191.505798,138.984039 293.502899,138.983185 396.500000,138.982544 
z"/>
<path fill="#EAEAEA" opacity="1.000000" stroke="none" 
	d="
M534.150757,315.644989 
	C526.713684,322.777771 517.682922,320.965332 509.063599,320.987213 
	C486.564026,321.044281 464.064178,321.006866 441.564453,321.007324 
	C427.118713,321.007629 412.672974,321.008087 398.227234,321.008545 
	C388.143341,321.008881 378.057373,320.884796 367.976196,321.050140 
	C360.256073,321.176788 352.543091,321.917419 344.824921,321.953400 
	C319.032593,322.073578 293.239410,322.000000 267.446533,322.000275 
	C251.937302,322.000458 236.426727,322.127045 220.919281,321.960541 
	C207.958145,321.821381 195.001724,321.110870 182.041443,321.053741 
	C150.429840,320.914368 118.817184,321.025543 87.205132,320.954926 
	C85.533279,320.951202 83.863091,320.199768 82.567245,319.397003 
	C227.870636,318.993744 372.798889,318.989960 517.727173,318.985840 
	C519.226440,318.985809 520.730652,319.060608 522.224060,318.965698 
	C528.573059,318.562195 532.790039,314.499908 532.932373,308.124115 
	C533.129272,299.299591 533.167114,290.461975 532.915100,281.640167 
	C532.727234,275.064758 528.199707,271.025452 521.561768,271.024872 
	C376.799988,271.012054 232.038208,271.011017 87.276436,271.029053 
	C79.821404,271.029968 76.054977,274.928009 76.023239,282.510406 
	C75.982094,292.338715 76.001869,302.167297 75.995415,311.995758 
	C75.328117,310.534821 74.115616,309.085785 74.083496,307.611023 
	C73.898567,299.119812 73.976616,290.622437 73.997292,282.127228 
	C74.018326,273.485992 78.542145,268.997498 87.265663,268.996063 
	C147.898376,268.986023 208.531082,268.986664 269.163788,268.987000 
	C352.617035,268.987457 436.070496,269.066040 519.523193,268.852570 
	C526.351562,268.835114 531.005188,271.092560 534.738403,276.804443 
	C535.007874,277.443542 535.008484,277.887634 535.010437,279.002014 
	C535.341980,280.447815 535.672180,281.223297 536.002441,281.998779 
	C536.001465,282.443756 536.000488,282.888763 535.709778,283.966553 
	C535.288086,293.066986 535.156006,301.534637 535.024048,310.002289 
	C534.783997,311.766479 534.543945,313.530670 534.150757,315.644989 
z"/>
<path fill="#F3F4FA" opacity="1.000000" stroke="none" 
	d="
M72.625755,175.079971 
	C73.327698,178.037872 73.958244,181.078720 73.925926,184.112518 
	C73.872879,189.093460 73.786369,193.987732 76.962830,198.625504 
	C75.655220,197.567657 73.422844,196.306198 73.115128,194.680435 
	C72.051804,189.062546 71.602142,183.322983 71.078156,177.615112 
	C71.006920,176.839264 71.841454,175.980255 72.625755,175.079971 
z"/>
<path fill="#F3F4FA" opacity="1.000000" stroke="none" 
	d="
M535.415283,309.903992 
	C535.156006,301.534637 535.288086,293.066986 535.710815,284.300262 
	C535.936523,292.602692 535.871521,301.204193 535.415283,309.903992 
z"/>
<path fill="#F3F4FA" opacity="1.000000" stroke="none" 
	d="
M530.376099,199.994034 
	C531.141724,198.758484 532.283508,197.516983 533.712646,196.137177 
	C532.917419,197.328613 531.834839,198.658340 530.376099,199.994034 
z"/>
<path fill="#EAEAEA" opacity="1.000000" stroke="none" 
	d="
M600.078247,7.463787 
	C600.978516,7.860089 601.894226,8.575933 602.833740,9.613396 
	C601.936279,9.217787 601.014954,8.500557 600.078247,7.463787 
z"/>
<path fill="#EAEAEA" opacity="1.000000" stroke="none" 
	d="
M7.465977,9.922661 
	C7.862205,9.021968 8.577878,8.105818 9.615477,7.166385 
	C9.220076,8.064469 8.502748,8.985837 7.465977,9.922661 
z"/>
<path fill="#F3F4FA" opacity="1.000000" stroke="none" 
	d="
M73.679886,155.047485 
	C73.840744,155.861771 73.679054,156.722336 73.257729,157.791168 
	C73.117844,157.030869 73.237595,156.062317 73.679886,155.047485 
z"/>
<path fill="#F3F4FA" opacity="1.000000" stroke="none" 
	d="
M536.251953,281.796997 
	C535.672180,281.223297 535.341980,280.447815 535.014404,279.335022 
	C535.511841,279.863586 536.006592,280.729401 536.251953,281.796997 
z"/>
<path fill="#F3F4FA" opacity="1.000000" stroke="none" 
	d="
M77.058395,199.337967 
	C77.907150,199.471436 78.810608,199.948181 79.857040,200.712463 
	C79.037704,200.560410 78.075401,200.120834 77.058395,199.337967 
z"/>
<path fill="#F3F4FA" opacity="1.000000" stroke="none" 
	d="
M72.684608,170.039124 
	C72.983650,170.441803 72.989548,170.887299 72.995415,171.666931 
	C72.794083,171.361359 72.592781,170.721649 72.684608,170.039124 
z"/>
<path fill="#EAEAEA" opacity="1.000000" stroke="none" 
	d="
M607.131836,16.353020 
	C607.406189,16.153494 607.622009,16.288134 607.703735,16.793240 
	C607.461426,16.886711 607.295898,16.727873 607.131836,16.353020 
z"/>
<path fill="#EAEAEA" opacity="1.000000" stroke="none" 
	d="
M16.303076,2.928184 
	C16.178047,2.936501 16.285055,2.509666 16.484795,2.421905 
	C16.793829,2.605160 16.708353,2.800401 16.303076,2.928184 
z"/>
<path fill="#FFFFFF" opacity="1.000000" stroke="none" 
	d="
M76.035812,312.343994 
	C76.001869,302.167297 75.982094,292.338715 76.023239,282.510406 
	C76.054977,274.928009 79.821404,271.029968 87.276436,271.029053 
	C232.038208,271.011017 376.799988,271.012054 521.561768,271.024872 
	C528.199707,271.025452 532.727234,275.064758 532.915100,281.640167 
	C533.167114,290.461975 533.129272,299.299591 532.932373,308.124115 
	C532.790039,314.499908 528.573059,318.562195 522.224060,318.965698 
	C520.730652,319.060608 519.226440,318.985809 517.727173,318.985840 
	C372.798889,318.989960 227.870636,318.993744 82.474449,319.002441 
	C80.029762,316.902283 78.052986,314.797241 76.035812,312.343994 
M523.665161,292.065582 
	C521.576233,283.446991 516.628601,278.506104 509.585571,278.005249 
	C503.260834,277.555450 497.097076,281.095367 494.535858,286.648376 
	C491.417755,293.408844 492.841187,299.279297 499.397980,305.989105 
	C503.963623,309.851624 509.032501,309.926636 514.328979,307.889740 
	C521.243347,305.230713 524.222412,300.050446 523.665161,292.065582 
M340.500000,281.000000 
	C258.220642,281.000000 175.941299,280.999969 93.661942,281.000122 
	C92.329483,281.000122 90.988220,281.101013 89.666382,280.983093 
	C86.785561,280.726135 85.886833,282.075867 85.962639,284.811188 
	C86.101013,289.804047 86.372124,294.839081 85.898018,299.790466 
	C85.401138,304.979767 87.267952,306.120483 92.271790,306.112335 
	C186.043320,305.959503 279.815155,306.000031 373.586914,305.999939 
	C374.419708,305.999939 375.262146,305.916351 376.083557,306.012695 
	C379.212921,306.379822 380.132812,304.895447 380.045135,301.939087 
	C379.882294,296.447510 379.815216,290.939331 380.065002,285.454285 
	C380.226685,281.904144 378.920502,280.881836 375.476685,280.934906 
	C364.153473,281.109467 352.825897,281.000214 340.500000,281.000000 
z"/>
<path fill="#F7F7FA" opacity="1.000000" stroke="none" 
	d="
M508.409576,144.954788 
	C508.796021,144.719376 509.180267,144.721313 509.562317,144.751007 
	C509.572998,144.751846 509.560608,145.049637 509.558960,145.208954 
	C509.175018,145.204636 508.791016,145.200317 508.409576,144.954788 
z"/>
<path fill="#FFFFFF" opacity="1.000000" stroke="none" 
	d="
M128.000000,151.016449 
	C258.481995,151.016068 388.463989,151.015488 518.445984,151.015762 
	C529.731750,151.015778 532.983215,154.279770 532.985168,165.601471 
	C532.986328,172.267212 532.994202,178.932983 532.983154,185.598709 
	C532.967285,195.178543 529.225708,198.979431 519.745911,198.981461 
	C479.918091,198.990005 440.090271,198.981903 400.262451,198.981995 
	C296.943420,198.982224 193.624405,198.984131 90.305389,198.983673 
	C79.358078,198.983627 76.019394,195.630234 76.016045,184.649704 
	C76.013916,177.650681 75.988319,170.651505 76.022064,163.652649 
	C76.063194,155.122070 80.059105,151.054153 88.505547,151.027008 
	C101.503571,150.985214 114.501839,151.016296 128.000000,151.016449 
M523.687378,174.814590 
	C523.620544,166.657455 519.271240,160.102402 513.037415,158.763657 
	C504.732056,156.980042 497.864441,159.867294 494.627228,166.503693 
	C491.196960,173.535919 493.239532,180.901154 500.425415,186.853745 
	C511.229614,192.427444 522.152405,187.158844 523.687378,174.814590 
M127.500000,186.000000 
	C174.953598,186.000000 222.407639,185.905579 269.860138,186.132874 
	C275.125641,186.158096 276.527985,184.582809 276.084930,179.663895 
	C275.683289,175.204453 275.733673,170.659897 276.076721,166.190628 
	C276.402740,161.943237 274.797852,160.896286 270.714722,160.915848 
	C238.913193,161.068344 207.110611,161.000046 175.308365,161.000000 
	C147.502213,160.999969 119.695038,161.121872 91.890877,160.886292 
	C86.960396,160.844513 85.529701,162.368988 85.913818,167.085251 
	C86.304489,171.882080 86.194916,176.745880 85.936722,181.560623 
	C85.745270,185.130905 87.112831,186.111618 90.536057,186.064041 
	C102.522018,185.897400 114.511719,185.999786 127.500000,186.000000 
z"/>
<path fill="#FFFFFF" opacity="1.000000" stroke="none" 
	d="
M117.000000,258.984253 
	C106.834389,258.984406 97.168671,259.011200 87.503189,258.975616 
	C80.633286,258.950348 76.195465,254.807770 76.061188,247.919952 
	C75.885818,238.924362 75.900963,229.920654 76.063431,220.924576 
	C76.158821,215.642700 80.766617,211.296310 86.084084,211.025238 
	C87.247620,210.965927 88.416718,211.015594 89.583260,211.015579 
	C232.900970,211.015152 376.218658,211.014618 519.536377,211.014694 
	C529.515625,211.014709 532.984375,214.505569 532.985229,224.541870 
	C532.985779,232.041061 533.001038,239.540283 532.981079,247.039413 
	C532.960144,254.918335 528.884399,258.980774 520.956116,258.981262 
	C432.965698,258.986694 344.975311,258.981506 256.984894,258.980743 
	C210.489929,258.980316 163.994965,258.982971 117.000000,258.984253 
M272.500000,246.000000 
	C288.487274,245.999771 304.475311,245.919495 320.461273,246.063263 
	C323.880188,246.094009 325.262421,245.136353 325.062714,241.562042 
	C324.803009,236.913605 325.001953,232.239670 324.999451,227.576706 
	C324.995941,221.007431 324.994354,221.001129 318.607330,221.000992 
	C243.167267,220.999496 167.727188,221.000000 92.287125,221.000107 
	C91.454453,221.000107 90.615097,221.070129 89.790344,220.989670 
	C87.037888,220.721207 85.874649,221.825684 85.960892,224.685898 
	C86.111397,229.677368 86.319809,234.703003 85.910072,239.665283 
	C85.503464,244.589859 86.882156,246.149353 92.142929,246.131180 
	C151.928055,245.924500 211.714157,245.999985 272.500000,246.000000 
M503.564606,218.636017 
	C502.517303,219.129120 501.417389,219.534912 500.431122,220.129272 
	C493.298492,224.427734 490.801514,233.347427 494.719696,240.400772 
	C499.022034,248.145676 507.204681,250.575256 515.136658,247.111374 
	C522.372009,243.951691 525.003479,234.439682 523.192444,228.824860 
	C520.558350,220.658417 513.842041,216.920853 503.564606,218.636017 
z"/>
<path fill="#FFFFFF" opacity="1.000000" stroke="none" 
	d="
M396.000000,138.982544 
	C293.502899,138.983185 191.505798,138.984039 89.508705,138.984207 
	C79.487534,138.984222 76.014656,135.512802 76.014191,125.502022 
	C76.013847,118.168900 76.007713,110.835762 76.016060,103.502647 
	C76.025879,94.864532 79.865677,91.016701 88.504570,91.016464 
	C180.668610,91.013969 272.832672,91.016823 364.996704,91.017151 
	C416.661896,91.017334 468.327118,91.014420 519.992310,91.015717 
	C529.322388,91.015953 532.984009,94.678917 532.987183,103.998756 
	C532.989868,111.665207 533.002014,119.331688 532.983459,126.998093 
	C532.964294,134.916168 528.918152,138.977844 520.996216,138.979813 
	C479.497467,138.990097 437.998749,138.983368 396.000000,138.982544 
M247.500000,101.000000 
	C205.527573,101.000000 163.555145,100.999992 121.582726,101.000000 
	C111.589287,101.000008 101.590302,101.194115 91.605026,100.908607 
	C87.364403,100.787354 85.492058,101.754036 85.912407,106.377914 
	C86.317879,110.838097 86.389137,115.406898 85.899620,119.850014 
	C85.314194,125.163582 87.448540,126.111122 92.332596,126.103813 
	C186.104172,125.963394 279.876007,125.999939 373.647797,125.999931 
	C373.980896,125.999931 374.320190,125.958046 374.646179,126.006172 
	C378.636871,126.595291 380.406769,125.220749 380.081818,120.874062 
	C379.722717,116.070747 379.685608,111.193352 380.090271,106.397324 
	C380.477844,101.803123 378.675385,100.895279 374.417053,100.910347 
	C332.445129,101.058868 290.472443,101.000038 247.500000,101.000000 
M496.105408,103.733238 
	C491.968964,109.666824 491.564240,115.783829 495.526184,121.909859 
	C499.048340,127.355896 504.351135,129.557831 510.596375,128.563873 
	C516.997009,127.545189 521.465271,123.810577 523.351440,117.372231 
	C525.223633,110.981407 522.708496,103.488708 516.662598,100.315407 
	C509.572784,96.594193 503.174774,96.460518 496.105408,103.733238 
z"/>
<path fill="#EAEAEA" opacity="1.000000" stroke="none" 
	d="
M341.000000,281.000000 
	C352.825897,281.000214 364.153473,281.109467 375.476685,280.934906 
	C378.920502,280.881836 380.226685,281.904144 380.065002,285.454285 
	C379.815216,290.939331 379.882294,296.447510 380.045135,301.939087 
	C380.132812,304.895447 379.212921,306.379822 376.083557,306.012695 
	C375.262146,305.916351 374.419708,305.999939 373.586914,305.999939 
	C279.815155,306.000031 186.043320,305.959503 92.271790,306.112335 
	C87.267952,306.120483 85.401138,304.979767 85.898018,299.790466 
	C86.372124,294.839081 86.101013,289.804047 85.962639,284.811188 
	C85.886833,282.075867 86.785561,280.726135 89.666382,280.983093 
	C90.988220,281.101013 92.329483,281.000122 93.661942,281.000122 
	C175.941299,280.999969 258.220642,281.000000 341.000000,281.000000 
z"/>
<path fill="#4359E4" opacity="1.000000" stroke="none" 
	d="
M499.085815,305.413147 
	C492.841187,299.279297 491.417755,293.408844 494.535858,286.648376 
	C497.097076,281.095367 503.260834,277.555450 509.585571,278.005249 
	C516.628601,278.506104 521.576233,283.446991 523.378784,292.480103 
	C515.090149,297.067444 507.087982,301.240295 499.085815,305.413147 
z"/>
<path fill="#EAEAEA" opacity="1.000000" stroke="none" 
	d="
M499.241882,305.701111 
	C507.087982,301.240295 515.090149,297.067444 523.461792,292.834717 
	C524.222412,300.050446 521.243347,305.230713 514.328979,307.889740 
	C509.032501,309.926636 503.963623,309.851624 499.241882,305.701111 
z"/>
<path fill="#EAEAEA" opacity="1.000000" stroke="none" 
	d="
M127.000000,186.000000 
	C114.511719,185.999786 102.522018,185.897400 90.536057,186.064041 
	C87.112831,186.111618 85.745270,185.130905 85.936722,181.560623 
	C86.194916,176.745880 86.304489,171.882080 85.913818,167.085251 
	C85.529701,162.368988 86.960396,160.844513 91.890877,160.886292 
	C119.695038,161.121872 147.502213,160.999969 175.308365,161.000000 
	C207.110611,161.000046 238.913193,161.068344 270.714722,160.915848 
	C274.797852,160.896286 276.402740,161.943237 276.076721,166.190628 
	C275.733673,170.659897 275.683289,175.204453 276.084930,179.663895 
	C276.527985,184.582809 275.125641,186.158096 269.860138,186.132874 
	C222.407639,185.905579 174.953598,186.000000 127.000000,186.000000 
z"/>
<path fill="#EB5E5F" opacity="1.000000" stroke="none" 
	d="
M500.100067,186.237976 
	C493.239532,180.901154 491.196960,173.535919 494.627228,166.503693 
	C497.864441,159.867294 504.732056,156.980042 513.037415,158.763657 
	C519.271240,160.102402 523.620544,166.657455 523.347595,175.301682 
	C515.371887,179.271835 507.735992,182.754898 500.100067,186.237976 
z"/>
<path fill="#EAEAEA" opacity="1.000000" stroke="none" 
	d="
M500.262756,186.545868 
	C507.735992,182.754898 515.371887,179.271835 523.371216,175.699677 
	C522.152405,187.158844 511.229614,192.427444 500.262756,186.545868 
z"/>
<path fill="#EAEAEA" opacity="1.000000" stroke="none" 
	d="
M272.000000,246.000000 
	C211.714157,245.999985 151.928055,245.924500 92.142929,246.131180 
	C86.882156,246.149353 85.503464,244.589859 85.910072,239.665283 
	C86.319809,234.703003 86.111397,229.677368 85.960892,224.685898 
	C85.874649,221.825684 87.037888,220.721207 89.790344,220.989670 
	C90.615097,221.070129 91.454453,221.000107 92.287125,221.000107 
	C167.727188,221.000000 243.167267,220.999496 318.607330,221.000992 
	C324.994354,221.001129 324.995941,221.007431 324.999451,227.576706 
	C325.001953,232.239670 324.803009,236.913605 325.062714,241.562042 
	C325.262421,245.136353 323.880188,246.094009 320.461273,246.063263 
	C304.475311,245.919495 288.487274,245.999771 272.000000,246.000000 
z"/>
<path fill="#4359E4" opacity="1.000000" stroke="none" 
	d="
M503.953796,218.507095 
	C513.842041,216.920853 520.558350,220.658417 523.192444,228.824860 
	C525.003479,234.439682 522.372009,243.951691 515.136658,247.111374 
	C507.204681,250.575256 499.022034,248.145676 494.719696,240.400772 
	C490.801514,233.347427 493.298492,224.427734 500.431122,220.129272 
	C501.417389,219.534912 502.517303,219.129120 503.953796,218.507095 
z"/>
<path fill="#EAEAEA" opacity="1.000000" stroke="none" 
	d="
M248.000000,101.000000 
	C290.472443,101.000038 332.445129,101.058868 374.417053,100.910347 
	C378.675385,100.895279 380.477844,101.803123 380.090271,106.397324 
	C379.685608,111.193352 379.722717,116.070747 380.081818,120.874062 
	C380.406769,125.220749 378.636871,126.595291 374.646179,126.006172 
	C374.320190,125.958046 373.980896,125.999931 373.647797,125.999931 
	C279.876007,125.999939 186.104172,125.963394 92.332596,126.103813 
	C87.448540,126.111122 85.314194,125.163582 85.899620,119.850014 
	C86.389137,115.406898 86.317879,110.838097 85.912407,106.377914 
	C85.492058,101.754036 87.364403,100.787354 91.605026,100.908607 
	C101.590302,101.194115 111.589287,101.000008 121.582726,101.000000 
	C163.555145,100.999992 205.527573,101.000000 248.000000,101.000000 
z"/>
<path fill="#EB5E5F" opacity="1.000000" stroke="none" 
	d="
M496.340820,103.445328 
	C503.174774,96.460518 509.572784,96.594193 516.662598,100.315407 
	C522.708496,103.488708 525.223633,110.981407 523.351440,117.372231 
	C521.465271,123.810577 516.997009,127.545189 510.596375,128.563873 
	C504.351135,129.557831 499.048340,127.355896 495.526184,121.909859 
	C491.564240,115.783829 491.968964,109.666824 496.340820,103.445328 
z"/>
</svg>