<svg version="1.1" id="Layer_1" xmlns="http://www.w3.org/2000/svg" xmlns:xlink="http://www.w3.org/1999/xlink" x="0px" y="0px"
	 width="100%" viewBox="0 0 608 418" enable-background="new 0 0 608 418" xml:space="preserve">
<path fill="#FAFAFA" opacity="1.000000" stroke="none" 
	d="
M1.157191,418.175964 
	C1.000000,286.312439 1.000000,154.624878 1.000000,22.468658 
	C2.496467,20.326298 2.107421,18.244377 2.214136,15.929762 
	C2.302871,13.045337 3.557184,11.156282 5.833163,9.510557 
	C7.244169,8.787447 8.482915,8.375042 9.049050,6.705220 
	C9.920957,5.022476 10.918706,3.914908 12.769306,3.343377 
	C13.463120,3.246827 13.852001,3.209487 14.493010,3.088376 
	C14.894049,2.922497 15.042612,2.836802 15.380717,2.582328 
	C15.683825,2.289162 15.797390,2.164775 16.094816,1.868865 
	C16.401230,1.583530 16.523781,1.469718 16.823166,1.177953 
	C17.444445,1.000000 17.888889,1.000000 18.666668,1.000000 
	C19.424261,1.517077 19.944145,1.682249 20.788898,1.214365 
	C87.687561,1.000000 154.375122,1.000000 221.531342,1.000000 
	C223.259308,4.480217 224.507141,7.613665 227.665314,10.321848 
	C232.101685,14.126084 230.059143,19.256159 224.460403,20.562378 
	C220.715546,21.436081 217.142319,22.583698 213.279968,20.885075 
	C211.407440,20.061567 209.725021,21.228544 208.455673,22.697865 
	C203.407379,28.541588 197.064285,32.672207 190.452682,36.480038 
	C187.787598,38.014950 184.943024,39.228096 181.941162,38.892075 
	C178.615646,38.519817 178.579041,39.948658 178.635818,42.568542 
	C178.751114,47.889595 178.614288,53.270237 174.364563,57.809929 
	C168.373657,59.231163 162.690002,58.545799 157.044418,58.595253 
	C143.623886,58.712811 141.635056,60.584225 141.633881,73.858437 
	C141.626663,155.682953 141.629379,237.507477 141.633331,319.332001 
	C141.633575,324.497925 141.492996,329.667572 141.697983,334.828979 
	C141.985413,342.066162 144.955322,345.124329 152.247757,345.282410 
	C163.076248,345.517181 173.910645,345.340607 184.742416,345.353271 
	C189.103592,345.358368 192.409027,343.493408 195.473389,340.005981 
	C198.097641,338.660278 199.761322,339.681702 200.956924,341.475739 
	C202.779907,344.211273 205.331085,345.308899 208.486877,345.730377 
	C213.438522,346.391663 216.825439,349.861816 219.999588,353.209198 
	C222.433701,355.776154 225.022507,356.857117 228.388397,356.565552 
	C233.346695,356.136078 237.620407,357.131165 240.432343,361.809845 
	C241.744507,363.993103 244.163651,364.076324 246.281937,363.501862 
	C253.873993,361.442963 261.045776,365.259064 268.504395,364.911316 
	C269.825806,364.849762 271.297180,365.481628 272.036194,366.569489 
	C274.767853,370.590637 278.530273,369.833344 282.651672,369.828857 
	C295.057007,369.815338 307.586334,367.431824 319.863831,371.261871 
	C321.759979,371.853363 323.867401,371.773773 325.830444,371.478607 
	C330.648315,370.754150 335.417908,370.826416 340.240875,371.474274 
	C344.698608,372.073151 348.451965,371.100891 350.453918,366.353119 
	C351.924744,362.864990 355.188660,362.195404 358.468872,362.778809 
	C362.268036,363.454590 365.233673,362.391266 368.100830,359.982086 
	C372.089294,356.630768 376.745392,355.748932 381.707703,357.407440 
	C385.278931,358.601044 387.567993,357.565613 389.710602,354.443359 
	C391.919281,351.224792 395.161743,348.847992 397.258148,345.357117 
	C398.751587,342.870239 402.091003,343.358612 404.687439,343.777222 
	C407.947968,344.302887 410.966400,343.983826 414.348022,342.573914 
	C420.630798,345.459778 426.890594,345.587646 433.244781,345.463776 
	C441.218811,345.308350 449.199097,345.520874 457.174469,345.393127 
	C465.241882,345.263947 468.291290,342.269287 468.375732,334.119049 
	C468.534119,318.831116 468.410065,303.541229 468.433044,288.252167 
	C468.436279,286.094086 468.347870,283.928436 468.889587,281.398071 
	C471.485779,277.157135 475.140717,277.809448 479.854065,278.706207 
	C474.551025,270.091278 483.274811,263.527771 482.000427,255.554367 
	C481.876434,254.778549 482.331879,253.750015 483.008850,253.346542 
	C488.364075,250.154770 490.489197,244.025009 495.052063,240.189835 
	C497.769684,237.905655 496.929230,237.155487 494.293610,235.862061 
	C488.343658,232.942108 486.942566,229.254379 489.706818,224.892029 
	C491.441101,222.155060 493.640411,221.371689 496.414764,223.304474 
	C499.270050,225.293610 502.452911,226.608124 505.760437,228.429596 
	C506.266510,225.942688 505.007202,224.605331 503.738220,223.390945 
	C501.333893,221.090118 499.169983,218.542358 496.538727,216.472092 
	C494.332916,214.736633 493.805664,212.488525 494.466095,209.769882 
	C495.112549,207.108765 496.796753,206.092621 499.349548,205.543900 
	C504.991394,204.331223 505.580627,203.504532 505.639374,197.829193 
	C505.689392,193.000092 505.689514,188.169800 505.621399,183.340012 
	C505.574646,180.023148 503.975922,178.176010 500.682587,177.467682 
	C494.264496,176.087250 492.709717,171.574158 496.967041,166.495804 
	C498.994141,164.077789 501.026093,161.644363 503.218170,159.358185 
	C504.349487,158.178253 505.727631,157.117188 505.934143,154.729919 
	C502.630585,156.167419 499.492401,157.360489 496.628448,159.062698 
	C494.041901,160.600037 491.690430,161.423431 489.718628,158.453812 
	C487.826965,155.604919 487.327301,152.600143 489.651672,149.660110 
	C490.281372,148.863586 491.143524,148.353912 492.035370,147.881653 
	C497.599457,144.935211 497.596771,144.930130 493.782227,139.717072 
	C493.455933,139.527206 493.094299,139.486588 492.847839,139.741043 
	C490.404053,142.264038 487.725830,144.195206 484.045532,142.444336 
	C481.242371,141.110748 478.067108,134.542328 479.159546,131.110428 
	C480.399658,127.214699 479.592499,124.159409 477.713989,120.759193 
	C475.914032,117.501167 476.594269,114.093933 478.626465,110.831856 
	C481.362793,106.439545 481.082214,105.647453 476.350861,103.310326 
	C472.952728,101.631767 471.383209,99.502167 473.430939,95.791626 
	C474.562042,93.742065 473.912018,92.116798 472.359833,90.426750 
	C468.460022,86.180595 468.529999,86.109261 472.253876,81.112656 
	C474.469879,78.139290 473.378754,74.734550 473.660553,71.133896 
	C472.817047,72.575851 472.910522,73.938431 472.266113,75.065598 
	C471.147614,77.022072 469.813751,78.685318 467.378448,78.879524 
	C464.820496,79.083527 463.252869,77.541306 462.420898,75.423981 
	C460.856079,71.441544 457.973236,70.062447 453.894928,68.884789 
	C448.217926,67.245491 442.612000,64.429985 442.481598,56.870804 
	C442.438202,54.352989 441.190521,52.544922 438.330841,52.070129 
	C429.889465,50.668602 427.525970,47.823132 427.358917,39.220848 
	C427.349243,38.723083 427.284210,38.234604 426.747070,37.437256 
	C420.726135,40.597401 415.843506,39.102932 412.213318,33.210514 
	C411.442444,31.959295 409.715027,31.602797 408.605408,30.578680 
	C405.132721,27.373674 406.123016,23.755856 407.426941,19.972578 
	C408.010071,18.280653 410.112183,15.964539 407.545349,14.704809 
	C404.743225,13.329631 402.094849,9.566034 398.218628,12.926998 
	C395.968719,14.877845 393.180298,15.382246 390.267029,15.336643 
	C388.090607,15.302576 385.936310,15.453202 383.891541,16.306808 
	C381.485779,17.311131 379.201080,16.910841 377.379028,15.193362 
	C374.713318,12.680666 371.518158,11.840236 368.148560,12.407609 
	C360.699097,13.661945 354.215332,10.062881 347.362213,8.493315 
	C344.405579,7.816157 342.247284,5.289634 343.769165,1.281199 
	C425.354218,1.000000 506.708466,1.000000 588.531372,1.000000 
	C590.310181,2.319480 592.005066,2.255383 593.986511,2.282623 
	C594.946350,2.291537 595.543152,2.463063 596.302185,3.038949 
	C597.135864,4.030871 597.780090,4.769994 599.076782,5.165174 
	C599.728271,5.496029 600.056885,5.756094 600.550781,6.314498 
	C601.283813,7.510976 601.806213,8.462395 603.165161,9.085241 
	C603.816345,9.516506 604.140991,9.818732 604.588562,10.454278 
	C605.260620,11.907973 605.385376,13.234818 606.436157,14.494345 
	C606.791626,14.872828 606.940674,15.017574 607.307068,15.385695 
	C607.794312,15.922761 608.018799,16.265532 608.301514,16.924503 
	C608.462097,17.601393 608.481506,17.998676 608.416443,18.685375 
	C608.186340,19.550640 608.200073,20.102043 608.792297,20.801880 
	C609.000000,153.020889 609.000000,285.041779 609.000000,417.531342 
	C608.796753,418.240662 608.580750,418.469208 608.175964,418.842834 
	C406.312439,419.000000 204.624878,419.000000 2.468657,419.000000 
	C1.759281,418.796875 1.530741,418.580841 1.157191,418.175964 
z"/>
<path fill="#F7F9F9" opacity="1.000000" stroke="none" 
	d="
M175.253052,57.154549 
	C176.771011,50.998119 178.066071,45.134132 177.059448,38.944267 
	C176.725143,36.888664 177.284332,35.938980 179.880585,37.134758 
	C183.689377,38.889008 187.560104,37.353943 190.345108,34.829647 
	C192.280334,33.075573 194.211121,31.974030 196.565292,31.254215 
	C201.828842,29.644825 203.937347,24.446394 207.690201,21.120054 
	C210.165039,18.926487 212.544342,18.176544 214.678894,19.623482 
	C219.563217,22.934385 223.408279,17.812031 227.967407,18.560736 
	C229.335693,18.785439 228.344879,10.922482 225.980179,10.174549 
	C221.284271,8.689287 221.258102,5.563534 221.999115,1.399938 
	C223.066666,1.000000 224.133347,1.000000 225.600006,1.000000 
	C230.908981,6.656195 234.862595,6.789520 240.764862,1.244989 
	C243.041672,1.000000 245.083328,1.000000 247.562500,1.000000 
	C252.407486,4.457588 254.284271,4.536911 259.760803,1.243485 
	C261.388885,1.000000 262.777802,1.000000 264.583344,1.000000 
	C266.409180,2.302212 266.475983,4.206762 267.163483,5.832212 
	C268.251251,8.404033 269.650879,8.583176 271.439331,6.458877 
	C272.706696,4.953524 273.220123,2.988731 274.761017,1.255707 
	C276.388885,1.000000 277.777802,1.000000 279.583344,1.000000 
	C281.357483,2.618582 282.751770,3.888705 284.767517,1.239700 
	C296.354218,1.000000 307.708466,1.000000 319.531342,1.000000 
	C324.608093,5.552276 325.378479,5.596721 328.772217,1.246474 
	C333.689240,1.000000 338.378510,1.000000 343.533875,1.000000 
	C344.452209,6.547898 346.162994,8.114323 351.373505,7.734347 
	C352.015106,7.687558 353.017090,7.282662 353.238373,7.550570 
	C358.104828,13.442451 364.738892,10.308345 370.589508,10.927190 
	C373.310211,11.214967 375.690796,11.331243 377.619659,13.788370 
	C379.055481,15.617455 381.227692,16.858171 383.698822,14.881641 
	C385.435455,13.492580 387.548279,13.943137 389.490601,14.044213 
	C393.175964,14.235996 396.396118,13.545281 398.940399,10.609576 
	C400.285828,9.057128 401.813599,8.235163 403.370331,10.566769 
	C403.803864,11.216105 404.588226,11.976516 405.281860,12.053523 
	C412.254517,12.827632 410.501831,16.469051 408.664886,20.865625 
	C406.040100,27.147955 406.381500,27.601862 412.666046,31.105644 
	C414.101807,31.906136 414.040405,33.277859 414.683044,34.366093 
	C416.659088,37.712364 421.605255,38.950859 424.554352,36.962669 
	C425.596466,36.260109 425.732483,33.499115 427.756744,35.018333 
	C429.133301,36.051445 429.464203,38.071507 428.841675,39.640568 
	C427.402344,43.268326 429.942017,45.679737 431.309998,48.348625 
	C432.348663,50.374958 434.517944,51.066769 436.879303,50.880753 
	C441.987976,50.478298 443.685974,51.983238 443.996857,57.081043 
	C444.303131,62.103199 449.909424,67.851746 455.209106,67.907753 
	C459.416840,67.952209 461.632782,69.999084 463.010406,73.561073 
	C463.847809,75.726318 464.404755,78.395645 467.547668,77.843925 
	C470.416931,77.340256 471.343262,74.855850 471.909241,72.352341 
	C472.125336,71.396484 471.963257,70.360237 472.035278,69.365097 
	C472.093414,68.561432 472.067322,67.565712 473.214569,67.545166 
	C474.191833,67.527672 474.899994,68.410278 474.790009,69.144119 
	C474.044617,74.117241 477.866577,80.083633 471.099609,83.827148 
	C468.555542,85.234566 470.622925,87.641922 472.244751,88.597069 
	C476.340729,91.009361 476.886658,93.663269 474.086151,97.504250 
	C472.027313,100.327957 474.619324,101.183907 476.617798,102.018990 
	C483.202942,104.770691 483.649384,106.203560 479.488037,111.998245 
	C476.983124,115.486282 477.350433,119.032280 479.834320,122.080391 
	C481.770386,124.456215 482.476562,126.434479 480.936584,129.233002 
	C478.325043,133.978683 481.289856,137.914536 483.997314,140.945999 
	C486.302063,143.526566 489.493073,142.047485 491.448944,139.095093 
	C492.136749,138.056915 492.307953,136.222092 494.042511,136.545807 
	C495.526001,136.822678 494.730560,138.565109 495.311310,139.510635 
	C495.571686,139.934509 495.727081,140.425781 496.005341,140.835342 
	C499.725800,146.311356 499.729126,146.309082 493.242035,148.805695 
	C488.691956,150.556824 487.726135,155.390701 491.255127,158.709229 
	C492.014130,159.422943 493.132965,160.289322 493.817993,159.374481 
	C496.314392,156.040710 500.985748,156.827606 503.652832,153.896713 
	C504.604706,152.850677 505.919922,151.165573 507.344299,152.660477 
	C508.730621,154.115341 508.205627,156.108215 506.827881,157.612991 
	C503.922791,160.786026 501.086365,164.034561 498.006042,167.030350 
	C495.764923,169.209961 495.636475,171.800705 496.213837,174.398621 
	C496.781982,176.955109 499.225433,175.709518 500.870392,176.012131 
	C504.752197,176.726227 507.227905,178.463577 507.047668,182.954422 
	C506.840851,188.108505 507.005066,193.277252 506.998688,198.439636 
	C506.990936,204.724533 505.934662,206.237228 499.885590,206.869339 
	C497.288300,207.140732 496.271210,207.884125 495.565826,210.437759 
	C494.824554,213.121384 495.755890,214.437027 497.672241,215.859299 
	C501.264526,218.525436 504.449249,221.661285 507.066010,225.288452 
	C508.150909,226.792374 508.836060,228.997955 507.324188,230.352905 
	C505.598938,231.899155 504.428223,229.752823 503.254059,228.738739 
	C500.639862,226.480881 496.777649,226.386414 494.477936,223.450745 
	C493.720551,222.483856 492.110931,223.120712 491.527771,224.256241 
	C490.449677,226.355453 488.345978,228.213425 490.005188,231.067795 
	C491.602509,233.815613 494.289825,234.537384 496.943298,235.522049 
	C497.948822,235.895157 499.444733,235.748245 499.750214,237.226517 
	C500.067291,238.760925 498.687378,239.332458 497.752777,239.724991 
	C493.517365,241.503830 492.691467,246.214890 489.626862,248.908173 
	C485.229767,252.772476 481.575256,256.759003 482.612213,263.321442 
	C482.804932,264.541229 481.666290,266.183044 480.756561,267.322144 
	C478.731842,269.857452 478.514343,272.363770 480.056732,275.166870 
	C481.134979,277.126465 481.450653,279.191040 480.208282,281.895966 
	C477.638855,278.005402 474.306213,278.887787 470.553436,279.991577 
	C467.646881,277.577362 468.403015,274.407745 468.399200,271.508514 
	C468.342987,228.882462 468.362457,186.256317 468.361389,143.630188 
	C468.361389,143.297165 468.361450,142.964157 468.361359,142.631134 
	C468.357635,127.198174 467.488800,126.280174 452.213287,125.563812 
	C451.547516,125.532585 450.886047,125.454742 449.805969,125.255920 
	C445.123535,122.903877 444.503448,118.551445 443.888184,114.566383 
	C443.244904,110.399872 441.771454,107.675827 437.309326,107.184944 
	C435.726135,107.010773 434.286865,106.198250 433.977875,104.576424 
	C432.722839,97.989281 427.477814,94.322540 423.363586,89.848640 
	C420.883728,87.151985 418.212952,84.638214 416.584534,81.277710 
	C416.367767,80.830414 416.140198,80.272057 415.740631,80.057854 
	C406.225586,74.956795 401.000671,63.981541 389.838501,61.136696 
	C389.037140,60.932461 388.175171,60.627041 387.608459,60.050743 
	C382.384247,54.738136 375.519226,52.183372 369.310211,48.484871 
	C363.312714,44.912346 356.522766,45.118340 350.715668,41.856552 
	C345.796082,39.093273 340.700348,36.476032 334.659973,38.004086 
	C333.887634,38.199482 332.972626,37.926247 332.225861,37.577805 
	C325.661194,34.514713 318.975067,33.449841 311.886139,35.749546 
	C309.486176,36.528126 307.347351,35.170685 305.437225,33.756413 
	C303.553467,32.361637 301.639771,31.766176 299.436127,33.050385 
	C294.662201,35.832474 289.376190,36.629745 284.019836,36.288784 
	C272.383911,35.548084 262.320160,39.823410 252.634399,45.521477 
	C251.616852,46.120098 250.534851,46.995308 249.413254,46.566563 
	C242.984497,44.109116 238.887085,48.523941 234.843353,51.898979 
	C229.747284,56.152321 225.442871,61.321774 218.250732,62.246559 
	C216.472824,62.475159 215.127426,64.137749 213.932098,65.513412 
	C210.401794,69.576248 205.018951,70.566299 200.825668,73.531013 
	C199.727081,74.307739 198.259598,74.094604 196.729950,73.098816 
	C195.566422,71.327507 195.673370,69.648888 195.502930,68.017426 
	C194.816132,61.443336 191.961624,58.848595 185.230484,58.462597 
	C181.979141,58.276150 178.615860,59.086014 175.253052,57.154549 
z"/>
<path fill="#000000" opacity="1.000000" stroke="none" 
	d="
M608.303894,19.176674 
	C608.036194,18.532236 607.992493,18.092508 607.875916,17.328671 
	C607.689514,16.816544 607.575928,16.628523 607.250916,16.187744 
	C607.039551,15.934989 607.001953,15.995834 607.032898,15.977865 
	C605.652466,14.772759 605.140137,13.053090 604.217896,11.193719 
	C604.021606,10.561868 603.863708,10.287284 603.322693,10.030656 
	C602.137085,9.171437 601.292908,8.270851 600.234497,7.150180 
	C600.020325,6.556349 599.860413,6.282643 599.318054,6.029727 
	C598.258545,5.338963 597.201538,5.106827 596.233398,4.153837 
	C595.852173,3.177144 595.292603,3.029287 594.334778,2.970943 
	C593.697388,2.534836 593.544006,2.093749 593.785156,1.295114 
	C598.932373,1.000000 606.072021,-0.940483 608.222290,1.505404 
	C610.745667,4.375629 608.933350,11.058405 608.998840,16.087641 
	C609.007385,16.745182 609.000000,17.402931 609.000000,18.530293 
	C608.842590,19.127129 608.685242,19.254257 608.303894,19.176674 
z"/>
<path fill="#000000" opacity="1.000000" stroke="none" 
	d="
M14.263935,3.908066 
	C12.127130,3.775968 11.379786,5.368816 10.087906,6.605087 
	C9.172426,7.862890 8.270892,8.706502 7.150787,9.765895 
	C4.768392,11.109867 3.814520,13.128115 2.972714,15.620359 
	C2.535364,16.301275 2.093933,16.454502 1.295355,16.214859 
	C1.000000,11.072524 -0.939029,3.959479 1.507166,1.789221 
	C4.351715,-0.734453 11.038403,1.072524 16.528801,1.000000 
	C17.172495,1.192667 17.344988,1.385334 17.282982,1.886996 
	C16.850155,2.304795 16.651829,2.413598 16.194283,2.741355 
	C15.935061,2.960309 15.995877,2.997816 15.977789,2.967011 
	C15.607365,3.425951 15.151046,3.764400 14.263935,3.908066 
z"/>
<path fill="#FAFAFA" opacity="1.000000" stroke="none" 
	d="
M240.533875,1.000000 
	C240.769684,7.546873 235.029770,5.744155 231.586029,6.698427 
	C228.522934,7.547216 226.561310,4.919441 226.006256,1.375454 
	C230.689255,1.000000 235.378510,1.000000 240.533875,1.000000 
z"/>
<path fill="#FAFAFA" opacity="1.000000" stroke="none" 
	d="
M274.545898,1.000000 
	C274.991028,1.331476 275.044830,1.679283 274.963470,1.991930 
	C274.076752,5.399696 272.730255,9.629712 269.155579,9.620113 
	C265.038086,9.609057 265.714447,4.855327 265.001831,1.402974 
	C268.030609,1.000000 271.061188,1.000000 274.545898,1.000000 
z"/>
<path fill="#FAFAFA" opacity="1.000000" stroke="none" 
	d="
M259.539368,1.000000 
	C260.144073,4.758306 257.091858,4.693721 254.817123,4.875922 
	C252.184052,5.086824 248.889008,5.826673 248.011505,1.389434 
	C251.692917,1.000000 255.385818,1.000000 259.539368,1.000000 
z"/>
<path fill="#FAFAFA" opacity="1.000000" stroke="none" 
	d="
M328.550018,1.000000 
	C328.951508,3.137965 329.350952,5.733589 326.231354,5.887793 
	C323.334198,6.030999 320.484253,5.544091 320.007446,1.382740 
	C322.700012,1.000000 325.400024,1.000000 328.550018,1.000000 
z"/>
<path fill="#FAFAFA" opacity="1.000000" stroke="none" 
	d="
M284.583344,1.000000 
	C284.990265,2.662659 284.966461,4.469707 282.866028,4.773060 
	C280.745178,5.079360 280.105743,3.579455 280.007172,1.377241 
	C281.388885,1.000000 282.777802,1.000000 284.583344,1.000000 
z"/>
<path fill="#E5E7EB" opacity="1.000000" stroke="none" 
	d="
M1.000000,16.428463 
	C1.306870,16.562729 1.704209,16.641418 2.554704,16.096630 
	C4.075878,18.263849 3.242369,20.146391 1.347916,21.940945 
	C1.000000,20.285643 1.000000,18.571283 1.000000,16.428463 
z"/>
<path fill="#E5E7EB" opacity="1.000000" stroke="none" 
	d="
M593.583374,1.000000 
	C593.437805,1.306681 593.359070,1.703742 593.903564,2.553587 
	C591.906433,4.410381 590.444153,3.272807 589.048706,1.337464 
	C590.388916,1.000000 591.777771,1.000000 593.583374,1.000000 
z"/>
<path fill="#E5E7EB" opacity="1.000000" stroke="none" 
	d="
M20.666668,1.000000 
	C20.697483,2.581775 20.186213,3.447632 18.944153,1.307874 
	C19.444445,1.000000 19.888889,1.000000 20.666668,1.000000 
z"/>
<path fill="#E5E7EB" opacity="1.000000" stroke="none" 
	d="
M607.837952,19.132359 
	C608.079895,18.971964 608.539001,19.015179 608.769531,19.007589 
	C609.000000,19.444445 609.000000,19.888889 609.000000,20.666668 
	C608.049622,20.827618 606.906494,20.813747 607.837952,19.132359 
z"/>
<path fill="#E5E7EB" opacity="1.000000" stroke="none" 
	d="
M608.500000,419.000000 
	C608.101318,418.676636 608.285339,418.410492 608.776001,418.100769 
	C609.000000,418.333344 609.000000,418.666656 608.500000,419.000000 
z"/>
<path fill="#E5E7EB" opacity="1.000000" stroke="none" 
	d="
M1.000000,418.500000 
	C1.335142,418.082825 1.597120,418.268768 1.892967,418.778870 
	C1.666667,419.000000 1.333333,419.000000 1.000000,418.500000 
z"/>
<path fill="#F15D5C" opacity="1.000000" stroke="none" 
	d="
M174.534378,56.901459 
	C178.308929,56.890141 181.618820,56.970116 184.929138,56.995674 
	C193.251511,57.059944 196.926239,60.743809 197.001221,69.134109 
	C197.010101,70.128014 197.023499,71.121895 197.100525,72.556946 
	C198.992310,75.289307 198.619400,78.025009 198.620590,80.644272 
	C198.623062,86.114243 198.795822,91.586288 198.516327,97.541695 
	C198.758118,110.713493 198.778961,123.398430 198.497253,136.573730 
	C198.881317,156.850815 198.711029,176.639191 198.606857,196.426056 
	C198.534225,210.225861 198.907379,224.024414 198.571899,238.310547 
	C198.728989,248.861908 198.705170,258.926727 198.539307,269.476685 
	C198.749588,281.643280 198.729721,293.325348 198.528931,305.495789 
	C198.844299,315.458984 198.618668,324.936554 198.620026,334.412994 
	C198.620255,336.077148 198.509171,337.749176 197.204102,339.580475 
	C194.204758,345.359894 189.899277,347.293182 183.874863,347.099731 
	C173.058350,346.752502 162.222519,347.039734 151.395142,346.986084 
	C143.885956,346.948883 140.015625,343.103943 140.013855,335.588165 
	C139.992981,246.634918 139.993637,157.681671 140.011932,68.728432 
	C140.013565,60.814358 143.771057,57.057625 151.582062,57.007717 
	C159.077805,56.959820 166.573944,56.978539 174.534378,56.901459 
z"/>
<path fill="#64D48C" opacity="1.000000" stroke="none" 
	d="
M447.602386,123.573013 
	C450.661072,123.889191 453.320923,123.985283 455.981018,123.990967 
	C466.984161,124.014511 469.996307,126.959007 469.997009,137.773499 
	C469.999603,178.382629 469.996613,218.991760 469.999725,259.600891 
	C470.000214,266.091522 470.021210,272.582184 470.097656,279.537842 
	C470.108429,298.117462 470.052734,316.232025 470.000732,334.346588 
	C469.974487,343.484406 466.495819,346.987762 457.388367,346.997528 
	C446.584351,347.009125 435.779266,346.914978 424.976807,347.045532 
	C420.889069,347.094971 417.453156,346.051971 414.500977,342.648407 
	C411.056885,341.653015 411.452148,338.932709 411.440521,336.781189 
	C411.352661,320.514618 411.149017,304.246582 411.507874,287.491760 
	C411.226929,272.325592 411.216949,257.648071 411.504761,242.480896 
	C411.093323,220.738647 411.404083,199.484146 411.334747,178.230637 
	C411.294189,165.776260 411.269928,153.321335 411.406799,140.390396 
	C411.588593,138.594177 411.534271,137.270172 411.552094,135.946823 
	C411.667816,127.363449 414.915527,123.767601 424.045349,122.568581 
	C432.083832,122.622726 439.694214,121.479965 447.602386,123.573013 
z"/>
<path fill="#F7F9F9" opacity="1.000000" stroke="none" 
	d="
M412.529358,286.785706 
	C412.887024,302.715454 412.925598,318.419495 413.017700,334.123260 
	C413.032990,336.728607 412.671204,339.381714 413.919006,342.174805 
	C412.751953,345.398346 410.429871,346.236908 407.221619,345.637207 
	C402.611389,344.775452 398.227325,343.152771 395.890991,350.203369 
	C394.876740,353.264130 390.553223,355.795685 387.996033,358.864075 
	C386.847260,360.242493 384.717010,360.401947 382.882111,359.416260 
	C376.983398,356.247620 371.882080,358.158020 367.415924,362.224701 
	C365.121918,364.313507 363.237976,365.237640 359.937744,364.305847 
	C355.974945,363.186981 352.068573,363.421661 350.739777,368.957581 
	C350.033325,371.900848 347.388977,373.262054 344.107330,373.020508 
	C331.351746,372.081787 318.592529,372.466614 305.770721,370.680969 
	C297.644104,369.549194 288.606506,370.129486 280.093079,371.544037 
	C276.717804,372.104828 273.814178,372.587219 272.264038,368.641785 
	C271.659088,367.102081 270.186951,366.080841 268.760986,366.183472 
	C260.551331,366.774200 252.517105,362.484436 244.321426,365.174225 
	C241.506104,366.098145 240.283829,364.978943 239.280838,362.836578 
	C237.406952,358.834045 234.254227,356.988373 230.009216,358.060913 
	C223.595261,359.681580 220.137787,355.399292 216.302032,351.758820 
	C213.359192,348.965790 210.390549,346.718964 205.883484,346.850739 
	C202.358337,346.953766 200.366943,344.300812 199.260345,341.039978 
	C199.104218,340.579926 198.185883,340.378540 197.255157,340.008667 
	C196.938110,328.950104 196.986237,317.940338 197.100998,306.466339 
	C201.314423,304.709015 204.673019,305.871185 207.238907,310.540436 
	C209.117996,313.959808 211.520218,315.745972 215.268799,316.276184 
	C223.133102,317.388611 227.162827,323.507324 231.771652,329.443268 
	C232.560852,331.584656 232.483871,333.425140 232.546158,335.252289 
	C232.801453,342.741730 235.339157,345.315033 242.985077,345.415619 
	C253.135971,345.549164 263.289185,345.440643 273.441376,345.459045 
	C275.769501,345.463257 278.103546,345.371002 280.827209,345.840088 
	C285.790344,349.190765 290.757660,350.824860 296.459137,350.438843 
	C298.889648,350.274261 301.394775,350.834839 303.743195,351.764893 
	C305.850861,352.599579 308.107025,352.673645 309.997742,351.500946 
	C315.500000,348.088287 321.729767,347.147186 328.279053,345.762268 
	C340.638245,345.502319 352.587128,345.484650 364.536102,345.447632 
	C374.824097,345.415771 377.355652,342.777008 377.471313,332.373627 
	C377.546967,325.570038 377.133820,318.759033 377.849030,311.566406 
	C378.206909,310.554108 378.443176,309.838104 379.056030,309.561218 
	C389.960571,304.634888 398.469543,296.444275 407.431824,288.859589 
	C408.783905,287.715302 410.162170,286.343018 412.529358,286.785706 
z"/>
<path fill="#E5E7EB" opacity="1.000000" stroke="none" 
	d="
M604.023682,11.294649 
	C605.957458,11.725623 606.292175,13.619404 607.033203,15.607888 
	C604.484070,15.640409 604.283875,13.629897 604.023682,11.294649 
z"/>
<path fill="#E5E7EB" opacity="1.000000" stroke="none" 
	d="
M600.056274,7.265821 
	C601.625305,6.936263 602.733276,7.567451 603.043823,9.612385 
	C601.480774,9.953803 600.405945,9.263579 600.056274,7.265821 
z"/>
<path fill="#E5E7EB" opacity="1.000000" stroke="none" 
	d="
M7.266631,9.944242 
	C6.935690,8.374766 7.567506,7.267282 9.612082,6.955174 
	C9.953749,8.517571 9.263524,9.592687 7.266631,9.944242 
z"/>
<path fill="#E5E7EB" opacity="1.000000" stroke="none" 
	d="
M596.074585,4.273673 
	C597.282349,3.780579 598.104614,4.493711 598.971436,5.650738 
	C597.900879,5.944978 596.597412,6.198870 596.074585,4.273673 
z"/>
<path fill="#E5E7EB" opacity="1.000000" stroke="none" 
	d="
M14.135494,4.157767 
	C14.119215,3.150503 14.676537,2.995641 15.649077,2.966277 
	C15.816091,3.889182 15.870277,5.066492 14.135494,4.157767 
z"/>
<path fill="#E5E7EB" opacity="1.000000" stroke="none" 
	d="
M16.163593,2.906370 
	C16.125898,2.659741 16.316734,2.359174 16.778027,2.127299 
	C16.896885,2.481991 16.678099,2.700804 16.163593,2.906370 
z"/>
<path fill="#E5E7EB" opacity="1.000000" stroke="none" 
	d="
M607.091187,16.159019 
	C607.335999,16.115469 607.632385,16.295933 607.865967,16.740479 
	C607.513611,16.871031 607.293518,16.663855 607.091187,16.159019 
z"/>
<path fill="#F3F7F9" opacity="1.000000" stroke="none" 
	d="
M447.949310,123.471947 
	C440.312256,123.875542 432.623444,123.916420 424.469971,123.896210 
	C419.081482,110.835754 407.808228,102.115799 401.302216,90.177711 
	C400.580017,88.852539 399.398285,87.803894 398.046539,87.146233 
	C386.538971,81.547447 376.420441,73.593018 364.753387,68.161140 
	C347.077362,59.931622 328.556549,55.237648 309.384613,52.596596 
	C306.530334,52.203400 303.723358,52.281136 301.055176,53.462250 
	C297.467590,55.050358 293.710724,55.472496 289.837433,55.352097 
	C284.668976,55.191441 279.577820,55.148624 274.894531,58.104763 
	C272.615875,59.543056 269.783875,59.479240 267.099182,59.122421 
	C264.137054,58.728725 261.198456,59.231541 259.112366,61.200134 
	C254.356445,65.688187 248.611847,68.169701 242.581757,70.111954 
	C236.329987,72.125603 230.654282,75.261757 225.363815,78.989532 
	C218.056763,84.138245 209.984024,88.298790 204.030731,95.275887 
	C202.489243,97.082504 200.803116,99.284264 197.467957,98.236404 
	C197.122513,89.974205 197.076950,81.950722 197.098816,73.462669 
	C202.769623,71.627861 207.748413,68.897453 212.101227,65.263481 
	C215.178253,62.694592 217.673508,59.800163 222.283661,59.805290 
	C224.889328,59.808186 227.120163,57.641220 228.827621,55.605110 
	C232.303497,51.460228 236.870468,48.712215 241.123672,45.561016 
	C242.316940,44.676922 243.998703,43.416031 245.210144,44.151295 
	C249.716690,46.886444 252.039932,42.780918 255.432739,41.779800 
	C263.706665,39.338406 271.111145,33.827084 280.524719,34.853416 
	C287.231903,35.584682 294.174133,35.449844 300.080811,31.003094 
	C302.138184,29.454229 304.011749,30.615919 305.419037,32.037575 
	C308.080688,34.726395 310.939697,35.254864 314.451569,33.974010 
	C319.383850,32.175125 324.236664,32.712078 328.957794,34.964691 
	C331.978210,36.405823 334.903229,37.023354 338.499207,36.256729 
	C343.851837,35.115597 347.954498,39.353558 352.593384,41.221203 
	C354.777252,42.100449 356.757538,43.165085 359.185852,43.021786 
	C360.170532,42.963676 361.466156,42.766300 362.116364,43.275639 
	C369.612976,49.147991 380.451782,49.344833 386.512634,57.683399 
	C387.229828,58.670155 388.603668,59.487286 389.812866,59.757481 
	C396.317993,61.211044 401.014130,65.276108 405.464386,69.897018 
	C408.310425,72.852180 410.816528,76.352371 415.265381,77.303474 
	C415.926025,77.444702 416.702698,78.317719 416.929260,79.013771 
	C418.783813,84.711220 423.542999,88.220650 427.441467,92.148132 
	C430.946106,95.678856 434.228027,98.934189 435.013885,103.994957 
	C435.346832,106.139282 436.913910,105.911339 438.402161,106.011856 
	C442.842010,106.311699 445.091705,108.799423 444.953308,113.157524 
	C444.835754,116.859810 447.168121,119.723335 447.949310,123.471947 
z"/>
<path fill="#FAFAFA" opacity="1.000000" stroke="none" 
	d="
M393.252625,16.138409 
	C394.470184,16.101904 395.378021,15.939565 396.108307,16.227493 
	C398.254120,17.073544 400.782166,17.834478 400.779541,20.709146 
	C400.777740,22.721766 398.772095,23.234756 397.235687,23.724506 
	C395.216309,24.368191 393.139679,24.190788 391.895325,22.217739 
	C390.529083,20.051462 390.264282,17.848970 393.252625,16.138409 
z"/>
<path fill="#FAFAFA" opacity="1.000000" stroke="none" 
	d="
M492.463562,178.391541 
	C493.774475,178.137360 494.885925,178.108917 494.462860,179.586990 
	C494.174744,180.593582 493.164368,181.160339 492.161194,180.737717 
	C490.742126,180.139877 491.483002,179.285248 492.463562,178.391541 
z"/>
<path fill="#EAF3F7" opacity="1.000000" stroke="none" 
	d="
M412.613312,138.675507 
	C412.877197,173.019714 412.919342,207.048645 412.896973,241.542664 
	C409.191467,246.764999 406.689545,252.201263 403.753326,257.373322 
	C401.264221,261.757782 398.318756,265.735657 394.185760,268.624176 
	C390.753540,271.022919 387.756561,273.667389 385.417847,277.231232 
	C383.942291,279.479675 381.833954,281.865051 378.265472,279.393555 
	C376.974670,274.599640 377.633850,270.087280 377.568115,265.195923 
	C378.147034,260.725250 380.719971,257.856476 383.452820,255.149597 
	C400.116516,238.644257 407.216187,218.293900 407.624664,195.244583 
	C407.692566,191.413757 407.637970,187.580673 407.631744,183.748627 
	C407.629852,182.582489 407.905701,181.306747 407.487366,180.269241 
	C402.620575,168.200241 404.727356,153.507446 393.738647,143.720657 
	C392.636475,142.739014 392.113434,141.175049 391.816467,139.701401 
	C390.732788,134.323990 387.601746,130.375122 383.319580,127.186195 
	C382.785797,126.788666 382.217316,126.392235 381.833282,125.855621 
	C370.602173,110.161461 354.387939,101.494400 336.924408,95.149925 
	C329.714233,92.530487 322.041687,90.283043 314.091125,90.375877 
	C305.775055,90.472977 297.459595,90.027725 289.163055,91.368698 
	C276.663391,93.389046 265.546173,98.542023 254.313309,104.240929 
	C243.877121,109.535652 237.201736,118.870583 227.867889,125.210663 
	C223.550171,128.143509 222.581268,134.289902 218.880310,138.238876 
	C210.395126,147.292618 209.100220,159.446594 205.295364,170.525024 
	C201.949280,180.267700 203.582382,190.603745 201.490738,200.494278 
	C200.975601,202.930222 201.366058,205.505264 202.293533,207.875641 
	C203.570374,211.138992 205.287201,214.463196 205.486588,217.833542 
	C206.397400,233.230316 218.042877,242.966736 224.688477,255.314270 
	C226.223633,258.166565 229.448029,259.445435 231.675354,262.245056 
	C232.969009,267.114594 232.595963,271.656952 232.094574,276.590027 
	C230.068161,280.098145 227.540390,278.935822 225.641815,277.386658 
	C219.262253,272.181061 212.995026,266.995087 209.953949,258.716522 
	C207.920410,253.180771 203.413040,248.842117 200.393219,243.713684 
	C199.563751,242.305038 198.472046,241.025894 197.403229,239.298798 
	C197.123734,205.310852 197.077820,171.618362 197.099243,137.461395 
	C201.637085,131.283844 207.357468,126.393608 208.989410,118.814209 
	C209.232544,117.685059 209.999924,116.661980 210.907333,115.936203 
	C217.687317,110.513069 222.733994,103.002693 229.883118,98.309280 
	C237.867966,93.067207 245.107513,86.441414 254.351761,83.194160 
	C257.847504,81.966209 260.578522,79.285385 263.954651,77.920090 
	C272.612061,74.419098 281.637543,72.237434 290.971802,71.685410 
	C303.951630,70.917786 316.865936,72.450958 329.803864,73.114388 
	C330.813995,73.166183 331.795593,73.449409 332.666107,73.935379 
	C337.622467,76.702385 343.432556,77.358826 348.371307,79.404289 
	C356.471008,82.758896 365.633423,84.835464 372.059174,91.659447 
	C374.635437,94.395378 377.914642,96.012001 381.212219,97.610184 
	C384.587921,99.246262 387.529205,101.430870 389.265015,104.805695 
	C390.906311,107.996689 393.104340,110.614250 395.996948,112.687790 
	C404.885101,119.059174 408.247955,128.958984 412.613312,138.675507 
z"/>
<path fill="#EFF5F8" opacity="1.000000" stroke="none" 
	d="
M412.895325,138.555054 
	C408.245514,136.112427 408.185913,130.517151 405.451294,126.458199 
	C402.690247,122.359962 400.819244,117.827042 396.473267,114.843651 
	C392.668152,112.231567 389.213898,109.097908 387.583588,104.430664 
	C387.180908,103.277786 386.042542,101.983269 384.929169,101.539398 
	C374.707184,97.464195 367.500092,88.802322 357.175049,84.361977 
	C348.760315,80.743156 338.977539,80.987465 331.627319,74.851654 
	C329.222534,72.844231 326.582153,74.976967 323.942505,74.671227 
	C308.483948,72.880745 293.196930,71.896790 277.512543,75.256264 
	C265.053864,77.924820 254.751816,84.228836 244.290649,90.217384 
	C234.533875,95.802704 225.384781,102.697739 217.807892,111.453697 
	C214.069519,115.773804 209.916214,119.130615 207.927582,125.153214 
	C206.434402,129.675217 202.743774,134.297836 197.508163,136.953064 
	C197.121948,124.306885 197.077316,111.616859 197.100403,98.462265 
	C198.782089,98.147125 200.109451,97.591324 201.141296,96.350441 
	C209.477631,86.325211 220.999939,80.454735 231.580475,73.442245 
	C236.054123,70.477242 241.502197,68.840820 246.682922,67.133163 
	C250.249084,65.957680 253.363312,64.381653 256.070801,61.819275 
	C259.310242,58.753418 262.906738,56.763908 267.674133,57.896107 
	C270.336304,58.528328 273.288574,58.131706 275.363159,56.567707 
	C278.902832,53.899158 282.742462,53.904743 286.743103,53.999748 
	C292.075378,54.126373 297.221100,53.885059 302.307678,51.551270 
	C307.045441,49.377522 312.329987,51.292496 317.001251,52.267906 
	C327.485046,54.457024 338.081116,56.254631 348.280029,59.947182 
	C356.798218,63.031223 365.172546,66.522354 373.007751,70.805298 
	C382.273254,75.870079 391.622345,81.056442 400.202728,87.184464 
	C404.531921,90.276352 407.040192,95.955315 410.272003,100.534927 
	C413.047516,104.467934 415.710419,108.433907 419.214325,111.835136 
	C422.276031,114.807137 423.587646,118.811325 424.002502,123.447784 
	C415.091309,124.939621 413.099792,127.514076 412.895325,138.555054 
z"/>
<path fill="#F3F7F9" opacity="1.000000" stroke="none" 
	d="
M231.187622,328.689270 
	C229.158600,328.905762 227.917969,327.910828 227.358749,326.535217 
	C224.668152,319.916870 218.750854,318.259308 212.703217,317.104370 
	C209.761337,316.542542 208.081055,315.393127 206.927643,312.578583 
	C205.343704,308.713470 202.433289,306.125671 197.545258,306.002258 
	C197.123642,294.312500 197.079666,282.622894 197.101822,270.469177 
	C199.252014,268.712921 200.169632,270.482147 201.229019,271.634583 
	C203.153992,273.728638 204.472000,276.255249 205.990173,278.638458 
	C208.267212,282.212982 210.957718,285.297333 215.221817,286.604614 
	C217.689621,287.361145 219.535233,289.091461 221.227203,290.937714 
	C224.484543,294.492126 228.255005,297.477173 231.989075,301.073547 
	C232.596069,310.452606 233.619095,319.449921 231.187622,328.689270 
z"/>
<path fill="#EFF5F8" opacity="1.000000" stroke="none" 
	d="
M231.202133,299.664551 
	C230.338058,299.977203 229.594803,300.154510 229.386353,299.897675 
	C221.981964,290.775665 209.111588,287.833862 203.357788,276.821350 
	C202.010651,274.242981 200.378204,271.761841 197.502960,270.050995 
	C197.124420,259.980713 197.080887,249.956360 197.103516,239.467682 
	C200.557602,239.928452 202.494125,243.082947 203.399887,245.560654 
	C205.622482,251.640564 210.246368,256.159119 212.917465,262.078217 
	C215.954178,268.807526 221.915451,275.351135 230.471130,277.994934 
	C232.585449,279.404175 232.660614,281.442627 232.584778,283.365753 
	C232.374756,288.691833 233.615570,294.118439 231.202133,299.664551 
z"/>
<path fill="#EFF5F8" opacity="1.000000" stroke="none" 
	d="
M378.796753,280.344055 
	C381.031403,279.713776 383.136475,279.089142 383.830139,277.487366 
	C386.165527,272.094574 391.127106,269.594482 395.288849,266.154816 
	C401.208893,261.261902 403.881195,254.108627 407.636993,247.720322 
	C408.872864,245.618210 409.428406,242.990707 412.494904,242.052109 
	C412.876617,256.698669 412.920807,271.389587 412.897766,286.546021 
	C410.062744,287.540619 407.974884,289.549744 406.375275,291.373779 
	C401.829865,296.556915 395.600098,299.589539 390.802460,304.456543 
	C387.979065,307.320740 383.839508,308.720276 379.536896,309.998627 
	C378.486511,309.501526 377.906250,308.837219 377.854401,308.008759 
	C377.283722,298.885834 376.387482,289.751709 378.796753,280.344055 
z"/>
<path fill="#EDAD3A" opacity="1.000000" stroke="none" 
	d="
M230.897247,300.466858 
	C230.875061,292.978607 230.918182,285.954895 230.896317,278.466705 
	C230.875320,272.976654 230.919312,267.951050 230.898727,262.462646 
	C228.070145,256.231598 229.897354,250.099472 229.463669,243.678467 
	C229.317398,233.548706 229.421112,223.889801 229.441360,214.231216 
	C229.451248,209.515381 230.660370,205.328278 235.211334,202.246475 
	C242.604630,199.157959 249.911774,200.829514 257.550110,200.499527 
	C263.978394,200.263870 269.938629,200.314438 275.891663,200.453598 
	C284.918457,200.664612 289.323853,204.987808 289.535980,213.924072 
	C289.704773,221.034912 289.725739,228.153336 289.497437,235.747406 
	C289.799988,249.801315 289.689758,263.375732 289.529785,277.433289 
	C289.795532,288.862579 289.650452,299.809753 289.542053,311.227844 
	C289.718140,319.414429 289.582428,327.130859 289.540405,335.291473 
	C288.973663,340.463318 287.724945,344.747467 282.233521,346.590546 
	C267.723907,347.504669 253.623322,347.004120 239.533661,346.824097 
	C234.479843,346.759521 231.213394,342.884033 231.046280,337.880585 
	C230.957718,335.228302 230.987030,332.572113 230.897949,329.459351 
	C230.876053,319.644470 230.919312,310.287903 230.897247,300.466858 
z"/>
<path fill="#5793F8" opacity="1.000000" stroke="none" 
	d="
M379.101990,279.544159 
	C379.123047,289.696472 379.078979,299.387299 379.102600,309.543274 
	C379.114685,318.330017 379.063568,326.651703 379.002167,334.973297 
	C378.941254,343.231567 375.315002,346.979370 367.224915,346.990265 
	C354.487396,347.007385 341.749847,346.950623 328.555786,346.935730 
	C322.277771,345.258087 320.857330,343.182220 320.536926,335.492310 
	C320.330536,327.632660 320.321228,320.221405 320.499817,312.339752 
	C320.197784,300.742615 320.394318,289.614319 320.457092,278.018066 
	C320.424591,275.075378 320.399872,272.600098 320.477661,270.126099 
	C320.761414,261.103973 324.992676,256.804779 333.902496,256.483368 
	C335.385925,256.429840 336.872467,256.386017 338.819092,256.527222 
	C348.849548,256.255798 358.417084,256.395203 368.432434,256.485504 
	C373.305847,257.333801 377.401215,258.602570 378.742340,264.141083 
	C378.894043,269.402954 378.965454,274.242828 379.101990,279.544159 
z"/>
<path fill="#F3F7F9" opacity="1.000000" stroke="none" 
	d="
M321.490265,335.714050 
	C321.517883,340.760620 323.360199,344.280579 327.921692,346.648010 
	C321.580139,348.566101 315.231934,350.495728 309.011566,353.238403 
	C304.067078,355.418518 298.771820,350.379425 293.799866,351.414825 
	C288.514740,352.515472 285.345154,350.494781 281.963623,346.907104 
	C284.993622,344.400452 287.611664,341.847931 288.084595,337.367371 
	C291.811859,334.480255 296.156097,334.932953 300.083588,335.015778 
	C306.325592,335.147491 312.541901,335.627197 318.773529,334.856720 
	C319.595520,334.755127 320.398438,335.037506 321.490265,335.714050 
z"/>
<path fill="#E7F1F7" opacity="1.000000" stroke="none" 
	d="
M378.882446,264.171967 
	C376.802795,261.533722 374.499390,258.858429 370.351044,257.957642 
	C368.614075,255.436340 370.806000,254.280319 371.838196,252.730682 
	C374.953735,248.053177 379.424103,244.280533 381.195312,238.703415 
	C381.347748,238.223450 381.609955,237.751785 381.993958,237.451385 
	C390.220825,231.016373 391.047974,220.543259 395.779297,212.203964 
	C396.021942,211.776230 396.229004,211.200821 396.110291,210.760864 
	C393.908386,202.600052 398.050995,194.452316 395.765717,186.047775 
	C394.647003,181.933578 395.892822,177.061844 395.087067,172.393234 
	C394.244690,167.512207 392.857605,163.083099 390.459595,158.833649 
	C389.150269,156.513458 387.685730,154.268463 386.543030,151.867371 
	C382.306458,142.965469 377.695953,134.772491 368.798492,129.080093 
	C361.633392,124.496025 356.313599,117.255058 348.376923,113.297150 
	C344.191559,111.209976 339.803741,109.686714 335.573578,107.755524 
	C323.857758,102.406891 311.604675,99.180893 298.514771,100.317123 
	C296.183746,100.519455 293.765594,100.394554 291.667664,101.466621 
	C286.972260,103.866043 281.850281,104.553352 276.790894,105.513626 
	C271.276581,106.560242 266.662903,109.340408 261.909302,112.226212 
	C253.620285,117.258278 246.999008,124.453629 238.657608,129.343994 
	C237.350479,130.110321 236.195938,131.136688 235.433990,132.433411 
	C229.134705,143.154037 221.888763,153.351471 218.194870,165.475296 
	C216.121964,172.278778 212.534500,178.655991 212.864700,186.078430 
	C212.886353,186.565186 212.558578,187.097336 212.663010,187.552444 
	C214.246445,194.452637 215.966232,201.339844 212.865448,208.290390 
	C212.747025,208.555878 212.889633,208.973343 213.059692,209.252213 
	C218.442322,218.078659 220.640915,228.324600 225.590546,237.346634 
	C226.754532,239.468323 229.122635,240.390488 230.592361,242.705688 
	C230.877441,249.023270 230.921478,255.047256 230.899826,261.535522 
	C226.571854,260.161743 223.695648,257.196899 221.700470,252.847122 
	C219.582947,248.230621 216.969315,243.829071 212.587616,240.616898 
	C209.307587,238.212326 207.514969,234.303909 207.140411,230.280548 
	C206.468292,223.061127 203.781097,216.484558 201.402908,209.797958 
	C199.729736,205.093658 199.281418,200.412628 200.975677,195.664902 
	C201.781097,193.407974 201.954803,191.330658 201.235550,188.906662 
	C199.733047,183.842834 202.463181,179.143646 203.159378,174.257263 
	C204.544662,164.534348 208.552689,155.516876 211.395615,146.210770 
	C212.709930,141.908417 216.918182,138.486237 219.835480,134.681213 
	C220.339996,134.023148 221.276306,133.531174 221.462051,132.818802 
	C223.694672,124.255974 232.363281,121.673111 237.205597,115.686852 
	C244.847519,106.239655 255.656509,101.991501 265.807495,96.816635 
	C275.393951,91.929565 286.031525,89.435852 296.824615,89.141632 
	C305.420868,88.907303 314.089294,88.132263 322.691010,89.914436 
	C334.428741,92.346359 345.403381,96.706047 356.114716,101.986069 
	C364.580841,106.159332 372.385284,112.093094 378.147705,118.692711 
	C383.842438,125.214859 393.061188,130.303696 393.586823,140.892365 
	C393.720947,143.594620 396.697876,145.086853 398.218231,147.262329 
	C402.966400,154.056656 406.491425,161.103516 405.120331,169.757217 
	C404.979584,170.645447 405.291534,171.898666 405.873444,172.560394 
	C409.560944,176.753693 408.701996,181.820969 409.068604,186.764221 
	C410.222076,202.315140 407.631592,217.382782 401.636230,231.508423 
	C398.547882,238.784821 394.727753,246.203171 388.644623,251.944153 
	C384.932800,255.447266 380.767181,258.686218 378.882446,264.171967 
z"/>
<path fill="#E4F0F6" opacity="1.000000" stroke="none" 
	d="
M230.899078,242.534698 
	C226.750046,241.703415 225.022141,238.549362 222.861115,234.973709 
	C218.216354,227.288452 217.906387,217.804504 212.011642,210.759689 
	C209.780594,208.093338 211.624405,205.293564 212.702667,202.787903 
	C213.808456,200.218323 214.639374,197.807312 213.082962,195.199600 
	C209.176071,188.653763 211.499298,181.794327 213.047699,175.477585 
	C214.916992,167.851761 218.012955,160.391434 221.543854,153.343353 
	C225.672440,145.102280 229.346756,135.813721 236.202240,130.014526 
	C243.001831,124.262604 250.102112,118.493988 257.639862,113.399605 
	C266.123535,107.665924 275.551117,105.662430 284.795654,102.292824 
	C296.852356,97.898186 308.287323,99.692032 320.084778,100.009766 
	C320.744812,100.027534 321.540863,99.925941 322.040436,100.245003 
	C333.031830,107.264633 346.502808,108.990273 357.128387,116.928429 
	C361.676086,120.325928 364.786102,125.124962 369.492706,128.293518 
	C370.519348,128.984680 371.249908,130.245758 372.542786,130.708405 
	C377.064056,132.326263 379.763672,135.814880 381.924591,139.841385 
	C386.011292,147.456329 390.768188,154.809479 393.928284,162.793213 
	C396.507416,169.309082 399.051392,176.379608 396.608643,183.751938 
	C396.182831,185.037109 396.618927,185.964691 397.010895,187.062775 
	C398.627533,191.591400 398.324951,196.160278 397.235168,200.757309 
	C396.901031,202.166901 395.729187,203.556259 396.572815,205.061752 
	C399.282562,209.897629 396.675385,214.020584 394.879333,218.225357 
	C392.476929,223.849625 388.570221,228.850815 387.903137,235.196899 
	C387.855804,235.647156 387.473907,236.449142 387.275421,236.440598 
	C380.460419,236.147430 382.306427,243.525726 378.581879,246.320435 
	C375.031067,248.984756 372.863464,253.492584 370.046753,257.524658 
	C359.982422,257.890411 349.959106,257.921417 339.471039,257.893036 
	C337.450348,255.903687 338.659363,254.381104 339.829956,252.962952 
	C342.532440,249.688904 345.785004,247.156647 349.925446,245.920578 
	C352.024353,245.294006 354.113464,244.570358 355.387482,242.650299 
	C363.264374,230.779327 372.025665,219.381256 375.555847,205.165222 
	C375.876221,203.875107 376.714325,202.540939 376.319061,201.291397 
	C374.157379,194.457504 375.978485,186.924347 372.574982,180.325470 
	C372.190430,179.579910 371.921295,178.712311 372.084320,177.904999 
	C373.938232,168.722824 368.839447,161.779343 364.589874,154.583282 
	C356.269745,140.494370 343.358032,132.392029 328.381165,127.053246 
	C325.068237,125.872292 321.876465,124.528152 318.995270,122.462692 
	C315.198975,119.741180 311.217651,119.615005 307.349976,122.231384 
	C304.516083,124.148438 302.020477,124.379387 299.170197,122.148094 
	C295.939117,119.618698 292.613861,120.328339 289.589508,122.786636 
	C288.692017,123.516144 288.006409,124.817825 286.843231,124.842957 
	C279.079163,125.010643 273.652069,130.655579 266.905457,133.149445 
	C263.928497,134.249878 262.168182,136.753326 259.753662,138.482498 
	C252.580811,143.619400 245.630386,148.956833 242.938354,158.134598 
	C241.844330,161.864410 238.276306,164.358948 237.234283,168.506470 
	C234.695465,178.611603 234.367142,188.663940 236.210297,198.854904 
	C236.417862,200.002487 236.587616,201.159576 236.165161,202.664810 
	C232.178497,205.994186 230.791626,209.867126 230.924393,214.735779 
	C231.172684,223.840820 230.976181,232.957993 230.899078,242.534698 
z"/>
<path fill="#DDEDF5" opacity="1.000000" stroke="none" 
	d="
M288.440796,236.294769 
	C288.109467,228.367676 288.089050,220.735046 287.989990,213.103424 
	C287.897186,205.955292 284.028870,202.098190 276.855194,202.012238 
	C270.880585,201.940628 264.904633,201.976501 258.464722,201.900070 
	C256.411163,200.141861 254.763916,198.555786 252.882935,197.135010 
	C248.560623,193.870224 248.493927,188.393280 252.981232,185.447296 
	C255.971664,183.484009 256.756531,181.101456 256.602966,177.903900 
	C256.507263,175.911758 256.694366,173.903610 256.570343,171.915024 
	C256.268799,167.081024 258.001587,163.193970 261.538940,159.925095 
	C265.213165,156.529755 268.808563,153.039520 269.856506,147.788483 
	C270.222931,145.952332 271.594818,145.033890 273.417511,144.785141 
	C273.912262,144.717621 274.421082,144.578903 274.905548,144.652725 
	C283.185669,145.914185 290.466949,142.558395 297.934113,139.844574 
	C310.696960,135.206100 322.083923,138.043884 332.180359,146.758743 
	C334.328247,148.612717 336.370056,150.551926 338.982697,151.758957 
	C341.042480,152.710571 342.195953,154.485718 343.400665,156.339737 
	C345.673859,159.838196 348.341461,163.085892 352.363647,164.692139 
	C355.061035,165.769318 356.199524,167.679306 356.331726,170.427368 
	C356.419769,172.257523 356.527435,174.097137 356.388885,175.915878 
	C356.017456,180.791473 357.098114,184.872818 360.772064,188.571579 
	C364.870270,192.697510 364.085846,196.442123 359.010834,199.360809 
	C356.885498,200.583084 356.469727,202.260132 356.387146,204.299011 
	C356.262268,207.382095 355.117249,209.819901 352.128815,211.030289 
	C349.614624,212.048584 349.329102,214.146179 349.440430,216.378448 
	C349.647186,220.524734 348.850098,224.014709 344.316772,225.488770 
	C343.530548,225.744431 342.820679,226.349014 342.421326,227.065506 
	C336.419525,237.832153 325.113129,240.616730 314.919708,244.497665 
	C308.981781,246.758392 302.113373,246.649887 296.383545,242.127029 
	C293.911896,240.176025 290.908264,238.943649 288.440796,236.294769 
z"/>
<path fill="#E0EFF5" opacity="1.000000" stroke="none" 
	d="
M288.099579,236.464691 
	C292.078339,236.278458 294.712555,239.144257 297.494598,241.234528 
	C303.322693,245.613403 309.659607,244.869995 315.503937,242.972931 
	C322.310516,240.763519 328.604980,236.968521 335.104492,233.826035 
	C336.960663,232.928589 338.358917,231.480804 339.161316,229.589981 
	C340.504974,226.423615 342.194763,223.821106 345.956451,223.057205 
	C349.140289,222.410660 347.811035,219.618286 347.961487,217.674759 
	C348.233948,214.155212 346.560394,209.951141 352.654755,209.361847 
	C355.002319,209.134857 355.129364,206.165436 355.002289,203.911850 
	C354.822388,200.722031 354.862885,198.050491 359.377655,197.790268 
	C362.265442,197.623825 363.601959,192.615616 360.884644,190.736420 
	C353.718658,185.780655 354.989288,178.731888 355.029175,171.877502 
	C355.047913,168.658249 354.735504,166.825867 350.687286,165.579224 
	C347.081421,164.468796 343.844421,160.843857 342.056061,156.898727 
	C341.574524,155.836456 341.404877,154.321411 340.351654,154.021545 
	C334.091370,152.239197 331.081451,145.960205 325.535492,143.384964 
	C316.820465,139.338165 307.941925,136.973343 298.352356,141.204865 
	C291.028412,144.436646 283.517456,147.469986 275.123627,146.032623 
	C272.737549,145.624039 271.150513,146.192459 270.839508,149.291901 
	C270.481323,152.862305 268.315460,155.848618 265.450806,157.982880 
	C259.236145,162.613007 257.088928,168.636932 257.899658,176.249252 
	C258.348511,180.464355 259.211304,184.955460 252.972733,186.980972 
	C249.246719,188.190704 250.301514,194.789307 254.422211,196.555649 
	C256.647278,197.509460 258.323303,198.348999 257.999023,201.454041 
	C250.964935,202.647675 243.807617,200.945511 236.413422,202.933289 
	C234.740219,197.622162 232.485672,192.523926 233.876221,186.613281 
	C235.228561,180.865204 232.866302,174.758453 235.765472,168.844009 
	C237.179596,165.959106 237.574310,162.648575 240.178558,160.248947 
	C243.522964,157.167297 243.506607,152.324158 246.235992,148.571548 
	C249.707596,143.798492 254.925446,141.571701 258.581116,137.352264 
	C263.025024,132.223022 270.541382,131.678513 275.137909,126.606674 
	C276.226654,125.405365 278.037231,125.226074 279.726166,124.935120 
	C283.089935,124.355637 286.697571,124.920303 289.093719,120.938950 
	C290.776855,118.142342 297.653687,118.266869 300.009491,120.878258 
	C302.499054,123.637932 304.127197,123.068939 306.624451,121.037491 
	C310.376038,117.985672 315.003784,117.762024 318.658264,120.586548 
	C322.772583,123.766495 327.376221,125.354477 332.096161,126.853058 
	C339.199615,129.108398 345.512360,132.547791 350.587616,138.086243 
	C351.946472,139.569122 353.482910,140.779465 355.309570,141.695312 
	C359.461273,143.776871 361.982819,146.942673 364.541962,151.112259 
	C368.204071,157.078735 369.936646,163.831741 373.742432,169.598495 
	C374.276245,170.407425 374.967102,171.530518 374.787628,172.328857 
	C372.633728,181.910080 376.861725,190.756638 377.864838,199.961929 
	C378.302460,203.978165 376.769501,207.858032 375.183807,210.841248 
	C371.926147,216.970016 370.891022,224.151840 366.212982,229.546158 
	C362.300842,234.057266 358.775452,238.807541 356.084656,244.201553 
	C355.109253,246.156860 352.670135,246.513916 350.533020,247.126862 
	C345.220428,248.650620 341.102448,251.778946 339.010254,257.480774 
	C321.690887,257.434448 321.563171,263.093597 321.899628,276.554565 
	C317.364349,280.005829 312.357605,280.778442 307.176300,280.113922 
	C303.995544,279.705963 300.968994,279.676697 297.892609,280.649689 
	C294.504486,281.721344 291.357483,281.259796 288.454712,278.310974 
	C288.121674,264.311615 288.078308,250.620575 288.099579,236.464691 
z"/>
<path fill="#EAF3F7" opacity="1.000000" stroke="none" 
	d="
M288.101135,278.467346 
	C293.001801,280.904541 297.984955,277.894226 302.645233,278.360474 
	C309.032013,278.999420 314.961914,278.211761 321.432922,277.009155 
	C321.877930,288.365906 321.921387,299.720673 321.900513,311.540405 
	C318.843689,315.017670 314.802124,316.413666 311.001648,316.058868 
	C303.558258,315.363983 295.826630,315.932312 288.475677,312.273865 
	C288.123047,300.977814 288.080170,289.954926 288.101135,278.467346 
z"/>
<path fill="#EFF5F8" opacity="1.000000" stroke="none" 
	d="
M288.100952,312.465393 
	C292.531891,311.633789 297.008545,312.776886 300.959473,313.625122 
	C308.170990,315.173431 314.533020,314.611389 321.458191,312.012329 
	C321.880402,319.695282 321.924622,327.385193 321.903931,335.540344 
	C310.964325,338.123810 299.960510,335.987793 288.608154,337.001007 
	C288.121399,328.977844 288.078705,320.953979 288.100952,312.465393 
z"/>
</svg>