<svg version="1.1" id="Layer_1" xmlns="http://www.w3.org/2000/svg" xmlns:xlink="http://www.w3.org/1999/xlink" x="0px" y="0px"
	 width="100%" viewBox="0 0 608 420" enable-background="new 0 0 608 420" xml:space="preserve">
<path fill="#FAFAFA" opacity="1.000000" stroke="none" 
	d="
M1.157192,420.175964 
	C1.000000,287.645782 1.000000,155.291550 1.000000,22.468658 
	C2.496477,20.326353 2.107494,18.244431 2.214336,15.929845 
	C2.303018,13.045414 3.557349,11.156389 5.833334,9.510696 
	C7.244417,8.787688 8.483027,8.375131 9.049237,6.705397 
	C9.921072,5.022593 10.918798,3.915001 12.769439,3.343504 
	C13.463274,3.247080 13.852147,3.209620 14.493175,3.088639 
	C14.894218,2.922755 15.042784,2.837057 15.380878,2.582563 
	C15.683950,2.289353 15.797493,2.164939 16.094858,1.868955 
	C16.401224,1.583557 16.523767,1.469730 16.823156,1.177952 
	C17.444445,1.000000 17.888889,1.000000 18.666668,1.000000 
	C19.424263,1.517069 19.944136,1.682279 20.788898,1.214366 
	C210.020889,1.000000 399.041779,1.000000 588.531372,1.000000 
	C590.310120,2.319482 592.005005,2.255494 593.986450,2.282822 
	C594.946350,2.291671 595.543152,2.463221 596.302124,3.039140 
	C597.135742,4.031068 597.779968,4.770190 599.076599,5.165336 
	C599.728149,5.496121 600.056824,5.756194 600.550659,6.314636 
	C601.283569,7.511200 601.806091,8.462531 603.164978,9.085386 
	C603.816101,9.516654 604.140686,9.818971 604.588440,10.454371 
	C605.260315,11.908182 605.385254,13.234925 606.436035,14.494492 
	C606.791443,14.872953 606.940430,15.017696 607.306885,15.385822 
	C607.794128,15.922873 608.018555,16.265692 608.301514,16.924555 
	C608.462158,17.601431 608.481506,17.998711 608.416382,18.685408 
	C608.186218,19.550686 608.200073,20.102070 608.792297,20.801884 
	C609.000000,153.687561 609.000000,286.375122 609.000000,419.531342 
	C608.796875,420.240692 608.580811,420.469238 608.175903,420.842804 
	C406.312439,421.000000 204.624878,421.000000 2.468657,421.000000 
	C1.759281,420.796875 1.530742,420.580841 1.157192,420.175964 
z"/>
<path fill="#000000" opacity="1.000000" stroke="none" 
	d="
M604.217285,11.195927 
	C604.022278,10.563229 603.864685,10.287576 603.320801,10.031479 
	C602.137878,9.170069 601.292786,8.271163 600.233521,7.152208 
	C600.020813,6.557428 599.861145,6.282683 599.315918,6.030419 
	C598.258789,5.336558 597.200867,5.107157 596.232544,4.155965 
	C595.853516,3.177472 595.293579,3.029559 594.334351,2.973058 
	C593.701477,2.535893 593.539429,2.097035 593.785156,1.295721 
	C598.932373,1.000000 606.072021,-0.940483 608.222290,1.505404 
	C610.745667,4.375629 608.933350,11.058405 608.998840,16.087641 
	C609.007385,16.745182 609.000000,17.402931 609.000000,18.530293 
	C608.842102,19.127073 608.684265,19.254145 608.301208,19.177105 
	C608.033508,18.532333 607.991028,18.091675 607.874451,17.326612 
	C607.687439,16.814672 607.574463,16.627138 607.249512,16.188744 
	C607.037537,15.937883 607.001892,15.996430 607.031433,15.979090 
	C605.654968,14.771465 605.139404,13.054554 604.217285,11.195927 
z"/>
<path fill="#000000" opacity="1.000000" stroke="none" 
	d="
M16.528801,1.000000 
	C17.172705,1.193257 17.345411,1.386514 17.282780,1.889224 
	C16.849329,2.306725 16.651213,2.414772 16.195568,2.742495 
	C15.938036,2.962171 15.996552,2.998500 15.979029,2.968858 
	C15.606921,3.426225 15.150900,3.765362 14.264711,3.911046 
	C12.124107,3.772506 11.379822,5.371622 10.088251,6.607350 
	C9.171005,7.862078 8.271282,8.706589 7.152962,9.766798 
	C4.766338,11.107410 3.814437,13.127536 2.974828,15.621029 
	C2.538092,16.302015 2.095778,16.454935 1.295956,16.214912 
	C1.000000,11.072524 -0.939029,3.959479 1.507166,1.789221 
	C4.351715,-0.734453 11.038403,1.072524 16.528801,1.000000 
z"/>
<path fill="#E8E9EC" opacity="1.000000" stroke="none" 
	d="
M1.000000,16.428463 
	C1.306762,16.564306 1.704953,16.643850 2.557925,16.098408 
	C4.076158,18.265230 3.247825,20.148773 1.348149,21.941380 
	C1.000000,20.285643 1.000000,18.571283 1.000000,16.428463 
z"/>
<path fill="#E8E9EC" opacity="1.000000" stroke="none" 
	d="
M593.583374,1.000000 
	C593.436096,1.306522 593.356506,1.704418 593.901733,2.556783 
	C591.904236,4.412606 590.441833,3.276906 589.048462,1.337595 
	C590.388916,1.000000 591.777771,1.000000 593.583374,1.000000 
z"/>
<path fill="#E8E9EC" opacity="1.000000" stroke="none" 
	d="
M607.834473,19.134037 
	C608.075989,18.972988 608.537048,19.017794 608.768555,19.008896 
	C609.000000,19.444445 609.000000,19.888889 609.000000,20.666668 
	C608.050842,20.827953 606.904602,20.818535 607.834473,19.134037 
z"/>
<path fill="#E8E9EC" opacity="1.000000" stroke="none" 
	d="
M20.666668,1.000000 
	C20.700359,2.552763 20.214340,3.473103 18.954895,1.308000 
	C19.444445,1.000000 19.888889,1.000000 20.666668,1.000000 
z"/>
<path fill="#E8E9EC" opacity="1.000000" stroke="none" 
	d="
M1.000000,420.500000 
	C1.334583,420.083679 1.596796,420.269501 1.893319,420.778687 
	C1.666667,421.000000 1.333333,421.000000 1.000000,420.500000 
z"/>
<path fill="#E8E9EC" opacity="1.000000" stroke="none" 
	d="
M608.500000,421.000000 
	C608.100403,420.676117 608.284485,420.410187 608.776123,420.101105 
	C609.000000,420.333344 609.000000,420.666656 608.500000,421.000000 
z"/>
<path fill="#FEFFFF" opacity="1.000000" stroke="none" 
	d="
M64.692276,95.394737 
	C65.012215,85.346916 66.342476,84.000587 75.879913,84.000526 
	C159.327347,84.000031 242.774796,84.000046 326.222229,84.000038 
	C390.125854,84.000031 454.029480,83.997269 517.933105,84.004517 
	C524.933594,84.005310 526.601074,85.537865 527.003296,92.595802 
	C528.853027,95.071693 528.637024,97.637756 528.642761,100.112671 
	C528.820618,176.768234 528.575562,253.423813 528.651794,330.079407 
	C528.655273,333.610107 528.573303,337.120697 525.318726,340.098969 
	C522.970703,341.828552 520.758484,342.437469 517.858582,342.434753 
	C514.535034,342.616821 511.708466,342.701233 508.875763,342.701050 
	C366.974792,342.692047 225.073822,342.692932 83.172852,342.693604 
	C80.674812,342.693604 78.176224,342.729340 75.186081,342.466309 
	C72.289650,342.559906 70.002213,342.172363 67.484726,340.665680 
	C64.454567,338.173126 63.561962,335.218781 63.401466,331.941193 
	C63.303658,329.943726 63.319473,327.945251 63.319416,325.946930 
	C63.317356,252.334076 63.311108,178.721222 63.340897,105.108376 
	C63.342163,101.981049 62.812519,98.754601 64.692276,95.394737 
z"/>
<path fill="#F6F6F6" opacity="1.000000" stroke="none" 
	d="
M64.631668,94.960602 
	C64.998337,173.364426 65.009140,251.726807 64.968880,330.089142 
	C64.967125,333.504913 65.086746,336.750153 67.838974,339.669830 
	C71.126556,344.366211 75.407845,346.373840 80.745987,346.542694 
	C101.342796,347.194122 121.934631,347.537323 142.544785,346.968323 
	C157.492767,346.555725 172.456467,347.068481 187.410110,347.035858 
	C207.847412,346.991241 228.308609,347.367249 248.756165,347.355988 
	C259.046692,347.350342 269.427063,346.645630 279.642090,346.948975 
	C294.781616,347.398590 309.914215,347.114990 325.038910,347.297485 
	C347.492035,347.568390 369.958160,347.665405 392.418793,347.459106 
	C410.191864,347.295868 427.959900,347.071777 445.739563,347.373077 
	C463.834900,347.679749 481.938751,346.591553 500.045410,347.388245 
	C504.698364,347.593018 509.347412,346.739532 513.966431,346.287598 
	C517.695679,345.922699 521.352478,344.254303 523.841125,340.409760 
	C526.484802,337.475555 527.077148,334.482819 527.070374,330.954163 
	C526.968750,277.957611 526.999939,224.960831 527.000061,171.964111 
	C527.000122,161.039658 527.000793,150.115204 527.001221,139.190750 
	C527.001709,124.107056 527.002258,109.023361 527.003784,93.471359 
	C530.629211,92.572548 532.551575,94.280846 533.419983,97.741570 
	C534.793030,103.213234 536.083618,108.601189 536.074219,114.368210 
	C535.959900,184.507462 535.989990,254.646973 536.023193,324.786407 
	C536.025330,329.296997 535.403992,333.750763 534.370178,338.054993 
	C531.462280,350.161255 522.368835,353.886627 511.324005,356.023865 
	C503.721588,357.494995 496.176147,355.523743 488.582153,355.942810 
	C478.393707,356.504974 468.184845,356.805573 457.981110,356.939514 
	C452.023438,357.017700 446.129761,355.654816 440.113220,355.954742 
	C430.129242,356.452454 420.115356,356.429596 410.145355,357.094727 
	C405.322998,357.416443 400.558258,356.650818 395.881561,356.343018 
	C384.964172,355.624390 374.169312,357.541962 363.170898,356.402649 
	C355.219543,355.579010 346.733276,356.736603 338.616913,356.567413 
	C331.954773,356.428558 325.293060,357.595367 318.446289,356.403381 
	C311.829742,355.251434 304.760376,356.953888 297.891266,356.934570 
	C289.354248,356.910583 280.793518,357.118042 272.284607,356.022125 
	C268.272675,355.505402 264.370636,356.630707 260.414856,356.971344 
	C255.091690,357.429779 249.824356,356.173462 244.548050,356.111237 
	C236.515640,356.016510 228.429565,357.320465 220.451218,356.778931 
	C213.895218,356.333923 207.375961,357.403076 200.793777,356.342377 
	C197.392258,355.794250 193.619812,356.272949 190.092712,356.419434 
	C177.464447,356.943939 164.861465,356.208771 152.285431,356.399597 
	C142.326569,356.550720 132.368668,355.821869 122.323997,356.576355 
	C108.477455,357.616455 94.396667,356.970978 80.520065,355.808289 
	C63.904751,354.416077 56.156151,345.464691 56.094971,326.735840 
	C55.860409,254.931152 55.993874,183.125229 56.014233,111.319786 
	C56.015556,106.655762 56.889420,102.099556 58.257706,97.645866 
	C59.223961,94.500771 61.100452,93.264877 64.631668,94.960602 
z"/>
<path fill="#E8E9EC" opacity="1.000000" stroke="none" 
	d="
M604.022095,11.297625 
	C605.953857,11.729517 606.288818,13.622104 607.029907,15.609850 
	C604.482727,15.641577 604.279846,13.633731 604.022095,11.297625 
z"/>
<path fill="#E8E9EC" opacity="1.000000" stroke="none" 
	d="
M600.054504,7.268584 
	C601.621399,6.941026 602.731079,7.569050 603.040466,9.614368 
	C601.478333,9.955788 600.403320,9.266511 600.054504,7.268584 
z"/>
<path fill="#E8E9EC" opacity="1.000000" stroke="none" 
	d="
M7.269554,9.945905 
	C6.940275,8.378362 7.569302,7.269556 9.614048,6.958564 
	C9.955691,8.519977 9.266799,9.595405 7.269554,9.945905 
z"/>
<path fill="#E8E9EC" opacity="1.000000" stroke="none" 
	d="
M596.072998,4.276615 
	C597.279114,3.785229 598.102112,4.495883 598.968445,5.652511 
	C597.898682,5.946223 596.595093,6.202213 596.072998,4.276615 
z"/>
<path fill="#E8E9EC" opacity="1.000000" stroke="none" 
	d="
M14.136945,4.161370 
	C14.120452,3.154384 14.677855,2.999273 15.650812,2.969696 
	C15.817121,3.891201 15.872684,5.069908 14.136945,4.161370 
z"/>
<path fill="#E8E9EC" opacity="1.000000" stroke="none" 
	d="
M607.090576,16.160505 
	C607.333313,16.117178 607.629089,16.296455 607.862610,16.738972 
	C607.512085,16.869421 607.293213,16.663054 607.090576,16.160505 
z"/>
<path fill="#E8E9EC" opacity="1.000000" stroke="none" 
	d="
M16.165306,2.906841 
	C16.127983,2.662141 16.317930,2.362111 16.777660,2.130379 
	C16.896032,2.483383 16.677744,2.700994 16.165306,2.906841 
z"/>
<path fill="#F6F6F6" opacity="1.000000" stroke="none" 
	d="
M380.000000,210.001221 
	C418.147644,210.001221 455.795258,209.997833 493.442902,210.003632 
	C502.661316,210.005051 504.999237,212.334763 504.999603,221.460526 
	C505.000732,250.445877 505.003296,279.431213 504.997894,308.416565 
	C504.996399,316.588684 503.586060,318.001953 495.497711,318.002045 
	C434.861694,318.002747 374.225677,318.002686 313.589661,318.002167 
	C305.028503,318.002106 304.000000,317.002655 303.999542,308.665039 
	C303.997833,279.013367 303.996796,249.361679 304.000458,219.709991 
	C304.001343,212.666824 306.614471,210.040497 314.033051,210.021393 
	C335.855225,209.965225 357.677673,210.001282 380.000000,210.001221 
z"/>
<path fill="#F6F6F6" opacity="1.000000" stroke="none" 
	d="
M180.000427,114.340546 
	C180.000610,179.594009 180.001556,244.384613 179.999329,309.175201 
	C179.999069,316.653503 178.691071,317.998901 171.401535,318.000397 
	C146.084900,318.005615 120.768272,318.006226 95.451637,317.999908 
	C88.602150,317.998199 87.004944,316.285675 87.004089,308.867462 
	C86.996956,246.408676 87.073845,183.949722 86.943672,121.491203 
	C86.914253,107.374481 87.709297,105.639870 102.662613,105.896385 
	C125.640686,106.290550 148.630524,105.983398 171.615326,106.011246 
	C177.856644,106.018806 179.453827,107.581070 180.000427,114.340546 
z"/>
<path fill="#F6F6F6" opacity="1.000000" stroke="none" 
	d="
M246.000000,210.001831 
	C231.513153,210.001862 217.526291,210.020279 203.539490,209.993134 
	C197.716537,209.981827 195.015137,207.316055 195.010895,201.538834 
	C194.989883,172.899124 194.988846,144.259369 195.010223,115.619659 
	C195.015396,108.694420 197.740875,106.003090 204.596176,106.001762 
	C229.406174,105.996971 254.216187,105.991142 279.026184,106.005020 
	C286.353455,106.009117 288.988190,108.603004 288.992371,115.841835 
	C289.008270,143.315994 289.008667,170.790176 288.974030,198.264282 
	C288.971954,199.902405 288.620911,201.541077 288.418304,203.177765 
	C287.800201,208.171082 285.113708,210.204376 279.966675,210.082901 
	C268.816711,209.819717 257.656189,210.001831 246.000000,210.001831 
z"/>
<path fill="#F6F6F6" opacity="1.000000" stroke="none" 
	d="
M505.000000,165.000000 
	C504.999908,173.992767 505.038635,182.485764 504.985077,190.978195 
	C504.952972,196.067215 502.086975,198.977264 497.021271,198.984039 
	C471.376526,199.018387 445.731628,199.020233 420.086884,198.984482 
	C414.110779,198.976151 412.021759,196.857376 412.014038,190.828354 
	C411.981384,165.350113 411.986267,139.871765 412.010223,114.393501 
	C412.015594,108.658356 414.744049,106.011787 420.607452,106.007553 
	C445.919220,105.989296 471.230988,105.987099 496.542755,106.009338 
	C502.319427,106.014420 504.982666,108.714172 504.991272,114.542587 
	C505.015869,131.195023 504.999969,147.847519 505.000000,165.000000 
z"/>
<path fill="#669EFA" opacity="1.000000" stroke="none" 
	d="
M326.328003,198.723999 
	C321.705475,198.961807 317.389008,199.069397 313.072845,199.058807 
	C306.053040,199.041580 303.832733,196.832581 303.745819,189.896866 
	C303.725006,188.236389 303.763123,186.575165 303.852264,184.463409 
	C310.002411,176.299271 318.817108,171.623260 325.246887,164.092209 
	C333.143036,154.843658 343.492706,147.897507 352.187897,139.390167 
	C360.103027,131.645996 368.802429,124.768272 376.393524,116.698563 
	C379.453491,113.445663 382.611298,110.278717 385.948242,106.828262 
	C390.314575,105.072868 393.776642,105.814255 396.079773,110.344864 
	C396.162262,111.017227 396.290039,111.299576 396.620422,111.749268 
	C396.775543,120.324051 396.826660,128.686874 396.804413,137.510971 
	C382.280823,151.672943 368.372162,165.944580 353.383209,179.077438 
	C347.753601,184.009949 342.699158,189.545639 337.252136,194.675659 
	C333.984467,197.753128 330.790741,198.936432 326.328003,198.723999 
z"/>
<path fill="#4CCF7D" opacity="1.000000" stroke="none" 
	d="
M212.236816,318.093445 
	C211.795120,318.354309 211.642548,318.444824 211.482819,318.459991 
	C194.702576,320.054108 194.610626,315.854462 195.391449,301.424744 
	C202.214432,296.397308 207.639328,290.453918 213.211060,284.639954 
	C226.089951,271.201172 239.718277,258.519714 253.102448,245.593781 
	C257.887054,240.972961 262.091370,235.784515 267.179657,231.469009 
	C268.803925,230.091431 269.155273,228.062119 269.778809,225.822815 
	C270.154114,225.498398 270.309723,225.420547 270.471161,225.405533 
	C287.336426,223.835846 289.229431,225.684052 288.438232,243.517639 
	C275.065033,253.803070 262.977051,264.990021 252.138657,277.328033 
	C241.352112,289.607025 228.606644,299.803772 217.496597,311.693878 
	C215.673874,313.644592 213.875473,315.577179 212.236816,318.093445 
z"/>
<path fill="#76A9FA" opacity="1.000000" stroke="none" 
	d="
M326.483490,198.981171 
	C333.254974,198.495071 337.179810,192.936218 341.839661,188.612396 
	C352.877777,178.370239 363.857574,168.063950 374.769348,157.687271 
	C380.717773,152.030579 386.506531,146.204483 392.301514,140.389236 
	C393.404816,139.282043 394.680542,138.638519 396.397522,138.026825 
	C396.785614,155.770935 396.925568,173.570068 396.839508,191.368103 
	C396.815521,196.322968 393.648529,198.962631 388.349365,198.977936 
	C367.881378,199.037079 347.413269,199.034576 326.483490,198.981171 
z"/>
<path fill="#40CD74" opacity="1.000000" stroke="none" 
	d="
M269.541077,225.425308 
	C271.546356,228.502655 270.124603,230.730042 267.973175,232.474426 
	C261.805176,237.475479 256.387238,243.364075 250.991623,249.029266 
	C237.888016,262.787628 223.331039,275.050781 210.622742,289.248688 
	C206.743484,293.582642 203.370178,300.067230 195.856445,300.969757 
	C195.427277,290.945709 195.336502,280.910675 195.373352,270.422058 
	C203.507965,264.073059 210.814026,257.295105 217.812836,250.334015 
	C223.905518,244.274170 230.763977,238.917267 235.948318,231.916107 
	C237.417679,229.931824 239.258392,228.211182 240.695587,225.759232 
	C250.335846,224.763153 259.713440,225.310623 269.541077,225.425308 
z"/>
<path fill="#5694F8" opacity="1.000000" stroke="none" 
	d="
M385.667206,106.394058 
	C384.523102,112.757614 378.594330,115.421394 374.919830,119.946274 
	C369.205719,126.982674 361.058716,131.429672 355.195526,138.593414 
	C351.705811,142.857208 346.195465,145.862564 342.204254,150.017075 
	C336.107574,156.363220 328.262482,160.730087 323.032104,168.130035 
	C320.052582,172.345459 316.209991,176.287247 310.957062,178.177643 
	C308.073761,179.215286 308.322021,183.725143 304.301208,184.001938 
	C303.874268,175.319748 303.818146,166.626984 303.845337,157.471985 
	C316.062531,145.390427 328.136902,133.707047 340.231506,122.049309 
	C345.428955,117.039627 351.853241,113.151215 355.756348,106.344955 
	C365.747467,105.662231 375.498322,105.728630 385.667206,106.394058 
z"/>
<path fill="#E8E9EC" opacity="1.000000" stroke="none" 
	d="
M73.787483,341.444763 
	C221.690140,341.009918 369.373199,341.007538 517.524475,341.008362 
	C518.776855,346.208496 514.710144,346.161621 511.636230,346.374969 
	C503.665588,346.928131 495.656616,346.384460 487.672821,346.650757 
	C469.710846,347.249908 451.744324,346.775909 433.788025,346.720490 
	C402.990540,346.625488 372.192535,346.736908 341.395081,346.645905 
	C322.419708,346.589813 303.439636,346.691467 284.462799,346.779144 
	C263.174683,346.877533 241.878250,346.603088 220.586777,346.637512 
	C192.139908,346.683502 163.692902,346.436523 135.246964,346.645050 
	C117.272568,346.776825 99.301048,346.610474 81.329170,346.449036 
	C77.989159,346.419037 74.475922,346.241486 73.787483,341.444763 
z"/>
<path fill="#EFF0F2" opacity="1.000000" stroke="none" 
	d="
M73.619141,341.005890 
	C75.091446,345.524139 78.741440,344.982208 82.014832,344.984833 
	C114.123581,345.010468 146.232361,345.000946 178.341125,345.001190 
	C203.950256,345.001373 229.559372,345.001251 255.168503,345.001251 
	C311.033569,345.001251 366.899078,344.876251 422.763397,345.078827 
	C439.116119,345.138123 455.485352,345.249908 471.832428,345.355072 
	C485.103119,345.440430 498.439972,345.412872 511.739807,344.994781 
	C514.309814,344.914001 516.759277,344.562134 517.948242,341.381775 
	C519.822144,341.161163 521.554626,340.760040 523.618164,340.041443 
	C526.094910,342.068237 524.316589,343.387390 522.891907,344.388824 
	C520.290100,346.217712 517.322998,347.632874 514.170349,347.863647 
	C510.532074,348.129974 506.833435,349.029602 503.319153,348.830688 
	C489.798859,348.065369 476.294189,349.544220 462.822174,348.869720 
	C451.652039,348.310455 440.388885,348.189423 429.332062,348.428162 
	C401.463104,349.029907 373.600586,348.982941 345.743896,348.844391 
	C331.609650,348.774109 317.418610,348.560822 303.325500,348.771057 
	C291.955261,348.940643 280.603607,347.860229 269.162659,348.735626 
	C254.809845,349.833862 240.304016,349.230103 225.874466,348.905579 
	C218.354080,348.736450 210.818253,349.231567 203.355499,348.843597 
	C189.648880,348.130951 175.941696,348.904510 162.237015,348.551941 
	C152.614944,348.304413 142.740509,348.502380 133.014145,348.673431 
	C122.020882,348.866760 110.968422,349.616913 99.854256,348.355957 
	C93.189713,347.599854 86.173790,348.314758 79.316040,348.000244 
	C73.185898,347.719086 68.751587,344.870239 67.760681,340.195862 
	C69.747093,340.328552 71.489151,340.664001 73.619141,341.005890 
z"/>
<path fill="#5DD489" opacity="1.000000" stroke="none" 
	d="
M288.043365,256.732666 
	C289.220703,266.315338 288.574738,275.655121 288.491791,285.433014 
	C283.983093,291.445465 278.829559,296.300995 273.735748,301.191833 
	C269.232300,305.515869 264.606537,309.724884 260.136566,314.078369 
	C257.635803,316.513916 255.197189,318.379456 251.255951,318.301453 
	C242.572144,318.487946 234.223038,318.566040 225.432205,318.485382 
	C223.019257,314.074860 225.534851,311.256317 228.478180,309.101379 
	C236.160599,303.476715 242.000488,295.918121 249.179077,289.816040 
	C260.696930,280.025421 269.777374,267.774628 281.517181,258.233673 
	C283.381104,256.718903 285.208832,255.327972 288.043365,256.732666 
z"/>
<path fill="#4A8CF7" opacity="1.000000" stroke="none" 
	d="
M355.568970,106.005852 
	C356.601288,109.413612 354.496002,111.385223 352.257263,113.138695 
	C340.013489,122.728523 329.637268,134.295410 318.386749,144.936325 
	C313.968994,149.114716 309.224915,152.948105 304.279022,156.974182 
	C303.843079,142.594635 303.686523,128.179413 303.708832,113.764473 
	C303.717133,108.408051 306.297424,105.908920 311.730286,105.848976 
	C320.512787,105.752068 329.297638,105.862289 338.546051,105.958641 
	C342.399567,107.052132 345.861969,106.310867 349.634583,106.263184 
	C351.702850,106.019691 353.423737,105.974068 355.568970,106.005852 
z"/>
<path fill="#2DC866" opacity="1.000000" stroke="none" 
	d="
M240.515411,225.425095 
	C241.026367,227.049026 240.984436,228.461823 239.815002,229.706421 
	C236.070160,233.691910 232.769714,238.178055 228.642105,241.703278 
	C220.349930,248.785309 213.552124,257.488953 204.518387,263.729523 
	C201.664200,265.701233 200.939880,270.504364 195.856659,269.970276 
	C195.402161,257.665192 195.230392,245.361847 195.249527,233.058792 
	C195.255173,229.428604 196.987991,226.688370 201.103989,225.659058 
	C201.810074,225.810974 202.136688,225.759628 202.703278,225.485138 
	C215.330246,225.389984 227.695862,225.350479 240.515411,225.425095 
z"/>
<path fill="#54D282" opacity="1.000000" stroke="none" 
	d="
M288.445007,256.548676 
	C282.390076,256.501129 279.666718,261.510040 276.151276,264.612213 
	C270.590179,269.519562 266.111450,275.637085 260.670013,280.700134 
	C251.330261,289.390472 242.375031,298.468933 233.105698,307.218964 
	C229.793640,310.345459 225.091263,312.117218 224.990509,317.988861 
	C220.956863,319.137939 216.891708,318.671143 212.393997,318.462891 
	C211.633499,315.831757 213.175476,314.353424 214.707169,312.750916 
	C221.707245,305.427032 229.427582,298.846588 236.589462,291.718689 
	C248.359985,280.004059 259.255554,267.401276 271.496063,256.158600 
	C276.438660,251.618912 281.368561,246.848083 287.978088,243.981628 
	C289.146027,247.985397 288.604675,252.051498 288.445007,256.548676 
z"/>
<path fill="#7CDC9F" opacity="1.000000" stroke="none" 
	d="
M251.371704,318.572357 
	C262.504425,312.225342 270.744751,302.272461 279.651825,293.049225 
	C282.134003,290.478943 285.045776,288.323547 288.070007,285.928131 
	C289.358307,294.470581 288.834137,303.093597 288.710297,311.694366 
	C288.645355,316.207245 285.295776,318.780029 280.185181,318.815979 
	C270.731506,318.882477 261.276581,318.771729 251.371704,318.572357 
z"/>
<path fill="#5694F8" opacity="1.000000" stroke="none" 
	d="
M349.532806,105.974899 
	C346.598877,107.827591 343.082031,106.968376 339.300323,106.313919 
	C342.368317,105.982994 345.725983,105.933731 349.532806,105.974899 
z"/>
<path fill="#76A9FA" opacity="1.000000" stroke="none" 
	d="
M396.733521,111.712051 
	C396.428680,111.781273 396.238281,111.523468 396.143127,110.939026 
	C396.336243,110.947800 396.539429,111.205345 396.733521,111.712051 
z"/>
<path fill="#4CCF7D" opacity="1.000000" stroke="none" 
	d="
M202.705139,225.330231 
	C202.638443,225.561691 202.312241,225.693909 201.722229,225.746338 
	C201.787491,225.521362 202.116562,225.376175 202.705139,225.330231 
z"/>
</svg>